<svg width="61" height="61" viewBox="0 0 61 61" fill="none" xmlns="http://www.w3.org/2000/svg">
<rect width="61" height="61" rx="10" fill="#E2E2E8"/>
<path d="M31 14C27.8355 14 24.7421 14.9384 22.1109 16.6965C19.4797 18.4546 17.4289 20.9534 16.2179 23.8771C15.0069 26.8007 14.6901 30.0177 15.3074 33.1214C15.9248 36.2251 17.4487 39.0761 19.6863 41.3137C21.9239 43.5513 24.7749 45.0752 27.8786 45.6926C30.9823 46.3099 34.1993 45.9931 37.1229 44.7821C40.0466 43.5711 42.5454 41.5203 44.3035 38.8891C46.0616 36.2579 47 33.1645 47 30C46.9953 25.758 45.3081 21.6911 42.3085 18.6915C39.3089 15.6919 35.242 14.0047 31 14ZM31 42.8C28.4684 42.8 25.9937 42.0493 23.8887 40.6428C21.7838 39.2363 20.1432 37.2372 19.1743 34.8983C18.2055 32.5595 17.9521 29.9858 18.446 27.5028C18.9398 25.0199 20.1589 22.7391 21.949 20.949C23.7392 19.1589 26.0199 17.9398 28.5028 17.4459C30.9858 16.9521 33.5595 17.2055 35.8984 18.1743C38.2372 19.1431 40.2363 20.7838 41.6428 22.8887C43.0493 24.9936 43.8 27.4684 43.8 30C43.7961 33.3936 42.4463 36.647 40.0467 39.0467C37.6471 41.4463 34.3936 42.7961 31 42.8ZM31 29.2C30.5757 29.2 30.1687 29.3686 29.8686 29.6686C29.5686 29.9687 29.4 30.3757 29.4 30.8V35.6C29.4 36.0243 29.5686 36.4313 29.8686 36.7314C30.1687 37.0314 30.5757 37.2 31 37.2C31.4244 37.2 31.8313 37.0314 32.1314 36.7314C32.4314 36.4313 32.6 36.0243 32.6 35.6V30.8C32.6 30.3757 32.4314 29.9687 32.1314 29.6686C31.8313 29.3686 31.4244 29.2 31 29.2ZM31 22.8C30.6044 22.8 30.2178 22.9173 29.8889 23.1371C29.56 23.3568 29.3036 23.6692 29.1522 24.0346C29.0009 24.4001 28.9613 24.8022 29.0384 25.1902C29.1156 25.5781 29.3061 25.9345 29.5858 26.2142C29.8655 26.4939 30.2219 26.6844 30.6098 26.7616C30.9978 26.8387 31.3999 26.7991 31.7654 26.6478C32.1308 26.4964 32.4432 26.24 32.6629 25.9111C32.8827 25.5822 33 25.1956 33 24.8C33 24.2696 32.7893 23.7609 32.4142 23.3858C32.0391 23.0107 31.5304 22.8 31 22.8Z" fill="#464646"/>
</svg>
