<svg width="239" height="99" viewBox="0 0 239 99" fill="none" xmlns="http://www.w3.org/2000/svg">
<g clip-path="url(#clip0_348_38498)">
<path d="M41.871 54.707L29 0H42.1706L46.2975 22.5296C47.4552 29.0391 48.5856 36.1516 49.4573 41.6743H49.6208C50.4924 35.7267 51.8 29.1761 53.162 22.3789L57.8337 0H70.8953L75.2401 23.0915C76.3978 29.4776 77.324 35.3156 78.1139 41.3728H78.2774C79.1218 35.2745 80.2659 28.9295 81.4781 22.3652L85.8637 0H98.3533L84.3383 54.707H71.0587L66.4279 31.1495C65.3383 25.6816 64.4939 20.5151 63.8129 14.3071H63.6494C62.7369 20.474 61.8516 25.6542 60.5577 31.177L55.3548 54.6933H41.871V54.707Z" fill="white"/>
<path d="M120.772 54.707L120.05 50.7602H119.791C117.217 53.9259 113.186 55.5978 108.514 55.5978C100.478 55.5978 95.752 49.7872 95.752 43.4422C95.752 33.0956 104.959 28.1895 118.92 28.2032V27.6961C118.92 25.5857 117.789 22.5708 111.687 22.5845C107.656 22.5845 103.434 23.9686 100.805 25.5446L98.5441 17.6373C101.295 16.0613 106.675 14.0742 113.894 14.0742C127.037 14.0742 131.191 21.8856 131.191 31.2181V45.073C131.191 48.8554 131.396 52.4596 131.818 54.6933H120.758L120.772 54.707ZM119.287 35.9186C112.832 35.8775 107.833 37.4535 107.833 42.1814C107.833 45.3882 109.917 46.9368 112.709 46.9368C115.719 46.9368 118.252 44.9223 119.056 42.3733C119.247 41.7292 119.287 40.9618 119.287 40.2629V35.9186Z" fill="white"/>
<path d="M145.942 14.9786L151.253 33.4518C152.22 36.8094 152.901 39.9339 153.514 43.1133H153.773C154.386 39.838 155.053 36.8642 155.952 33.4518L161.019 14.9786H173.931L159.235 54.707H146.99L132.635 14.9786H145.955H145.942Z" fill="white"/>
<path d="M185.072 38.8239C185.44 43.9492 190.466 46.3885 196.2 46.3885C200.354 46.3885 203.759 45.8267 207.069 44.7029L208.73 53.0625C204.644 54.7344 199.714 55.5703 194.429 55.5703C181.054 55.5703 173.373 47.7316 173.373 35.3567C173.373 25.2567 179.624 14.1016 193.271 14.1016C206.074 14.1016 210.909 24.1056 210.909 33.9452C210.909 36.0967 210.692 37.9194 210.474 38.8376H185.086L185.072 38.8239ZM199.482 30.3547C199.509 27.3809 198.188 22.2966 192.604 22.2966C187.415 22.2966 185.317 27.0657 184.977 30.3547H199.496H199.482Z" fill="white"/>
</g>
<mask id="mask0_348_38498" style="mask-type:alpha" maskUnits="userSpaceOnUse" x="29" y="0" width="182" height="56">
<g clip-path="url(#clip1_348_38498)">
<path d="M41.871 54.707L29 0H42.1706L46.2975 22.5296C47.4552 29.0391 48.5856 36.1516 49.4573 41.6743H49.6208C50.4924 35.7267 51.8 29.1761 53.162 22.3789L57.8337 0H70.8953L75.2401 23.0915C76.3978 29.4776 77.324 35.3156 78.1139 41.3728H78.2774C79.1218 35.2745 80.2659 28.9295 81.4781 22.3652L85.8637 0H98.3533L84.3383 54.707H71.0587L66.4279 31.1495C65.3383 25.6816 64.4939 20.5151 63.8129 14.3071H63.6494C62.7369 20.474 61.8516 25.6542 60.5577 31.177L55.3548 54.6933H41.871V54.707Z" fill="#231815"/>
<path d="M120.772 54.707L120.05 50.7602H119.791C117.217 53.9259 113.186 55.5978 108.514 55.5978C100.478 55.5978 95.752 49.7872 95.752 43.4422C95.752 33.0956 104.959 28.1895 118.92 28.2032V27.6961C118.92 25.5857 117.789 22.5708 111.687 22.5845C107.656 22.5845 103.434 23.9686 100.805 25.5446L98.5441 17.6373C101.295 16.0613 106.675 14.0742 113.894 14.0742C127.037 14.0742 131.191 21.8856 131.191 31.2181V45.073C131.191 48.8554 131.396 52.4596 131.818 54.6933H120.758L120.772 54.707ZM119.287 35.9186C112.832 35.8775 107.833 37.4535 107.833 42.1814C107.833 45.3882 109.917 46.9368 112.709 46.9368C115.719 46.9368 118.252 44.9223 119.056 42.3733C119.247 41.7292 119.287 40.9618 119.287 40.2629V35.9186Z" fill="#231815"/>
<path d="M145.942 14.9786L151.253 33.4518C152.22 36.8094 152.901 39.9339 153.514 43.1133H153.773C154.386 39.838 155.053 36.8642 155.952 33.4518L161.019 14.9786H173.931L159.235 54.707H146.99L132.635 14.9786H145.955H145.942Z" fill="#231815"/>
<path d="M185.072 38.8239C185.44 43.9492 190.466 46.3885 196.2 46.3885C200.354 46.3885 203.759 45.8267 207.069 44.7029L208.73 53.0625C204.644 54.7344 199.714 55.5703 194.429 55.5703C181.054 55.5703 173.373 47.7316 173.373 35.3567C173.373 25.2567 179.624 14.1016 193.271 14.1016C206.074 14.1016 210.909 24.1056 210.909 33.9452C210.909 36.0967 210.692 37.9194 210.474 38.8376H185.086L185.072 38.8239ZM199.482 30.3547C199.509 27.3809 198.188 22.2966 192.604 22.2966C187.415 22.2966 185.317 27.0657 184.977 30.3547H199.496H199.482Z" fill="#231815"/>
</g>
</mask>
<g mask="url(#mask0_348_38498)">
<path d="M16 58V14C31.4317 18.1368 65.1942 26.4103 76.7914 26.4103C91.2878 26.4103 114.201 38.2564 151.612 37.6923C181.54 37.241 203.674 29.9829 211 26.4103V58H16Z" fill="#247EF4"/>
</g>
<g clip-path="url(#clip2_348_38498)">
<path d="M3.05858 98.8051L0 86.8335H3.12979L4.11048 91.7625C4.38559 93.1866 4.65423 94.7426 4.86137 95.9509H4.90021C5.10735 94.6497 5.41806 93.2166 5.74172 91.7295L6.84864 86.8335H9.95253L10.985 91.8854C11.2601 93.2825 11.4802 94.5597 11.6679 95.8849H11.7068C11.9074 94.5508 12.1793 93.1626 12.4674 91.7265L13.5128 86.8305H16.4807L13.1503 98.7991H9.99461L8.89417 93.6453C8.63524 92.449 8.43457 91.3187 8.27274 89.9606H8.2339C8.01705 91.3097 7.80667 92.4431 7.49919 93.6513L6.26281 98.7961H3.05858V98.8051Z" fill="white"/>
<path d="M22.4359 98.8051L22.2643 97.9416H22.2028C21.5911 98.6342 20.6331 99 19.5229 99C17.6133 99 16.4902 97.7288 16.4902 96.3406C16.4902 94.077 18.6782 93.0037 21.9957 93.0067V92.8958C21.9957 92.434 21.727 91.7744 20.2771 91.7774C19.319 91.7774 18.3157 92.0803 17.691 92.425L17.1537 90.6951C17.8075 90.3503 19.086 89.9156 20.8014 89.9156C23.9247 89.9156 24.9119 91.6245 24.9119 93.6663V96.6974C24.9119 97.5249 24.9604 98.3134 25.0607 98.8021H22.4326L22.4359 98.8051ZM22.0831 94.6946C20.5489 94.6857 19.3611 95.0304 19.3611 96.0648C19.3611 96.7664 19.8563 97.1052 20.5198 97.1052C21.2351 97.1052 21.8371 96.6644 22.0281 96.1068C22.0734 95.9659 22.0831 95.798 22.0831 95.6451V94.6946Z" fill="white"/>
<path d="M29.168 90.1105L30.4303 94.152C30.6601 94.8865 30.8219 95.5701 30.9676 96.2657H31.0291C31.1747 95.5491 31.3333 94.8985 31.5469 94.152L32.7509 90.1105H35.8192L32.3269 98.8021H29.4172L26.0059 90.1105H29.1713H29.168Z" fill="white"/>
<path d="M39.1142 95.3273C39.2016 96.4486 40.3959 96.9822 41.7585 96.9822C42.7457 96.9822 43.5548 96.8593 44.3413 96.6135L44.7362 98.4423C43.7652 98.8081 42.5936 98.991 41.3378 98.991C38.1594 98.991 36.334 97.2761 36.334 94.5687C36.334 92.3591 37.8196 89.9186 41.0627 89.9186C44.1051 89.9186 45.254 92.1072 45.254 94.2599C45.254 94.7306 45.2023 95.1294 45.1505 95.3302H39.1175L39.1142 95.3273ZM42.5385 93.4774C42.545 92.8268 42.2311 91.7145 40.9041 91.7145C39.6709 91.7145 39.1725 92.7578 39.0916 93.4774H42.5418H42.5385Z" fill="white"/>
<path d="M51.1996 98.8051V92.1072H49.96V90.1135H51.1996V89.7837C51.1996 88.7403 51.5459 87.586 52.3777 86.8695C53.1189 86.2279 54.119 86 54.9767 86C55.6175 86 56.116 86.078 56.5238 86.1859L56.4073 88.2576C56.1516 88.1857 55.8538 88.1347 55.4654 88.1347C54.5074 88.1347 54.1028 88.8333 54.1028 89.6727V90.1135H55.98V92.1072H54.1255V98.8051H51.2028H51.1996Z" fill="white"/>
<path d="M57.398 92.9767C57.398 91.6995 57.3721 90.86 57.3203 90.1105H59.8287L59.9355 91.7205H60.0067C60.4889 90.4493 61.6315 89.9156 62.5409 89.9156C62.8096 89.9156 62.9455 89.9216 63.1656 89.9666V92.509C62.939 92.464 62.706 92.434 62.3759 92.434C61.3046 92.434 60.5731 92.9617 60.3757 93.8072C60.3401 93.9781 60.3206 94.188 60.3206 94.4098V98.8081H57.398V92.9797V92.9767Z" fill="white"/>
<path d="M73.7878 94.3708C73.7878 97.5459 71.3603 99 68.8423 99C66.1138 99 63.9971 97.327 63.9971 94.5208C63.9971 91.7145 65.9941 89.9156 69.0106 89.9156C72.0271 89.9156 73.7878 91.7445 73.7878 94.3708ZM67.0039 94.4608C67.0039 95.9449 67.6803 97.0692 68.9232 97.0692C70.0592 97.0692 70.781 96.0138 70.781 94.4458C70.781 93.1656 70.2469 91.8464 68.9264 91.8464C67.5347 91.8464 67.0039 93.1716 67.0039 94.4608Z" fill="white"/>
<path d="M75.5938 92.8898C75.5938 91.8074 75.5582 90.893 75.5161 90.1135H77.9824L78.1054 91.2917H78.1669C78.565 90.7401 79.4 89.9186 80.9989 89.9186C82.2191 89.9186 83.1642 90.4942 83.5688 91.4087H83.6076C83.9572 90.9469 84.3747 90.5932 84.8278 90.3503C85.3359 90.0685 85.9088 89.9186 86.6079 89.9186C88.401 89.9186 89.7668 91.0939 89.7668 93.6903V98.8051H86.9283V94.083C86.9283 92.8238 86.4914 92.0922 85.5463 92.0922C84.8699 92.0922 84.4006 92.518 84.2031 93.0337C84.1319 93.2285 84.0963 93.5014 84.0963 93.7202V98.8021H81.2578V93.9301C81.2578 92.8358 80.8371 92.0922 79.9049 92.0922C79.1573 92.0922 78.7106 92.6259 78.5359 93.0636C78.4517 93.2765 78.4258 93.5224 78.4258 93.7472V98.8021H75.5873V92.8868L75.5938 92.8898Z" fill="white"/>
<path d="M104.795 96.0198C104.795 97.1501 104.83 98.0826 104.872 98.8051H102.341L102.205 97.5789H102.144C101.778 98.1155 100.904 99 99.2211 99C97.3148 99 95.9263 97.8967 95.9263 95.2223V90.1105H98.8489V94.7816C98.8489 96.0528 99.2891 96.8143 100.318 96.8143C101.111 96.8143 101.581 96.3047 101.768 95.8639C101.843 95.705 101.875 95.5072 101.875 95.2913V90.1105H104.798V96.0168L104.795 96.0198Z" fill="white"/>
<path d="M107.122 96.4486C107.653 96.7514 108.776 97.0962 109.624 97.0962C110.472 97.0962 110.879 96.8203 110.879 96.3766C110.879 95.9329 110.582 95.708 109.504 95.3722C107.552 94.7786 106.818 93.7952 106.831 92.7728C106.831 91.1418 108.316 89.9156 110.646 89.9156C111.744 89.9156 112.715 90.1554 113.291 90.4223L112.783 92.2841C112.362 92.0803 111.543 91.7924 110.75 91.7924C110.038 91.7924 109.63 92.0563 109.63 92.494C109.63 92.9317 110.002 93.1296 111.151 93.4984C112.932 94.059 113.679 94.9075 113.689 96.1757C113.689 97.7977 112.323 98.994 109.633 98.994C108.41 98.994 107.31 98.7392 106.594 98.3824L107.122 96.4516V96.4486Z" fill="white"/>
<path d="M119.527 96.0108C120.301 96.3946 121.518 96.7634 122.767 96.7634C124.11 96.7634 124.819 96.2477 124.819 95.4592C124.819 94.7246 124.201 94.2899 122.657 93.7862C120.502 93.0786 119.094 91.9903 119.094 90.2424C119.094 88.2006 120.942 86.6506 123.981 86.6506C125.454 86.6506 126.518 86.9204 127.279 87.2532L126.632 89.4239C126.12 89.199 125.188 88.8542 123.936 88.8542C122.683 88.8542 122.055 89.3999 122.055 90.0115C122.055 90.773 122.77 91.1088 124.447 91.6935C126.735 92.485 127.794 93.5853 127.794 95.2793C127.794 97.279 126.143 98.994 122.586 98.994C121.12 98.994 119.657 98.6252 118.935 98.2504L119.527 96.0138V96.0108Z" fill="white"/>
<path d="M135.173 98.8051L135.002 97.9416H134.94C134.328 98.6342 133.37 99 132.26 99C130.351 99 129.228 97.7288 129.228 96.3406C129.228 94.077 131.415 93.0037 134.733 93.0067V92.8958C134.733 92.434 134.464 91.7744 133.014 91.7774C132.06 91.7774 131.053 92.0803 130.428 92.425L129.891 90.6951C130.545 90.3503 131.823 89.9156 133.539 89.9156C136.662 89.9156 137.652 91.6245 137.652 93.6663V96.6974C137.652 97.5249 137.701 98.3134 137.801 98.8021H135.173V98.8051ZM134.82 94.6946C133.286 94.6857 132.098 95.0304 132.098 96.0648C132.098 96.7664 132.594 97.1052 133.257 97.1052C133.969 97.1052 134.574 96.6644 134.765 96.1068C134.811 95.9659 134.82 95.798 134.82 95.6451V94.6946Z" fill="white"/>
<path d="M141.905 90.1105L143.168 94.152C143.397 94.8865 143.559 95.5701 143.705 96.2657H143.766C143.912 95.5491 144.071 94.8985 144.284 94.152L145.488 90.1105H148.557L145.064 98.8021H142.155L138.743 90.1105H141.909H141.905Z" fill="white"/>
<path d="M151.852 95.3273C151.939 96.4486 153.133 96.9822 154.496 96.9822C155.483 96.9822 156.292 96.8593 157.079 96.6135L157.474 98.4423C156.503 98.8081 155.331 98.991 154.075 98.991C150.897 98.991 149.071 97.2761 149.071 94.5687C149.071 92.3591 150.557 89.9186 153.8 89.9186C156.842 89.9186 157.991 92.1072 157.991 94.2599C157.991 94.7306 157.94 95.1294 157.888 95.3302H151.855L151.852 95.3273ZM155.276 93.4774C155.282 92.8268 154.968 91.7145 153.641 91.7145C152.408 91.7145 151.91 92.7578 151.829 93.4774H155.279H155.276Z" fill="white"/>
<path d="M163.937 98.8051V92.1072H162.697V90.1135H163.937V89.7837C163.937 88.7403 164.283 87.586 165.115 86.8695C165.856 86.2279 166.856 86 167.714 86C168.355 86 168.853 86.078 169.261 86.1859L169.145 88.2576C168.889 88.1857 168.591 88.1347 168.203 88.1347C167.245 88.1347 166.84 88.8333 166.84 89.6727V90.1135H168.717V92.1072H166.863V98.8051H163.94H163.937Z" fill="white"/>
<path d="M170.138 92.9767C170.138 91.6995 170.112 90.86 170.061 90.1105H172.569L172.676 91.7205H172.747C173.229 90.4493 174.372 89.9156 175.281 89.9156C175.55 89.9156 175.689 89.9216 175.906 89.9666V92.509C175.679 92.464 175.443 92.434 175.116 92.434C174.045 92.434 173.313 92.9617 173.116 93.8072C173.08 93.9781 173.061 94.188 173.061 94.4098V98.8081H170.138V92.9797V92.9767Z" fill="white"/>
<path d="M186.525 94.3708C186.525 97.5459 184.098 99 181.58 99C178.851 99 176.734 97.327 176.734 94.5208C176.734 91.7145 178.731 89.9156 181.748 89.9156C184.764 89.9156 186.525 91.7445 186.525 94.3708ZM179.741 94.4608C179.741 95.9449 180.418 97.0692 181.66 97.0692C182.797 97.0692 183.518 96.0138 183.518 94.4458C183.518 93.1656 182.984 91.8464 181.664 91.8464C180.272 91.8464 179.741 93.1716 179.741 94.4608Z" fill="white"/>
<path d="M188.331 92.8898C188.331 91.8074 188.295 90.893 188.253 90.1135H190.72L190.843 91.2917H190.904C191.302 90.7401 192.137 89.9186 193.736 89.9186C194.956 89.9186 195.901 90.4942 196.306 91.4087H196.345C196.694 90.9469 197.112 90.5932 197.565 90.3503C198.073 90.0685 198.646 89.9186 199.345 89.9186C201.138 89.9186 202.504 91.0939 202.504 93.6903V98.8051H199.666V94.083C199.666 92.8238 199.229 92.0922 198.284 92.0922C197.607 92.0922 197.138 92.518 196.94 93.0337C196.869 93.2285 196.834 93.5014 196.834 93.7202V98.8021H193.995V93.9301C193.995 92.8358 193.574 92.0922 192.642 92.0922C191.895 92.0922 191.448 92.6259 191.273 93.0636C191.189 93.2765 191.163 93.5224 191.163 93.7472V98.8021H188.325V92.8868L188.331 92.8898Z" fill="white"/>
<path d="M210.709 90.1105L211.463 93.6753C211.651 94.5687 211.838 95.5341 211.997 96.5265H212.042C212.217 95.5401 212.502 94.5477 212.728 93.6933L213.716 90.1105H216.027L216.965 93.5733C217.221 94.5657 217.47 95.5341 217.651 96.5235H217.69C217.823 95.5401 218.011 94.5567 218.231 93.5584L219.03 90.1105H221.878L219.011 98.8021H216.276L215.395 95.753C215.153 94.8985 214.981 94.122 214.787 93.0397H214.748C214.577 94.131 214.382 94.9375 214.146 95.741L213.207 98.8021H210.469L207.734 90.1105H210.709Z" fill="white"/>
<path d="M228.452 98.8051L228.28 97.9416H228.219C227.607 98.6342 226.649 99 225.539 99C223.629 99 222.506 97.7288 222.506 96.3406C222.506 94.077 224.694 93.0037 228.012 93.0067V92.8958C228.012 92.434 227.743 91.7744 226.293 91.7774C225.338 91.7774 224.332 92.0803 223.707 92.425L223.17 90.6951C223.824 90.3503 225.102 89.9156 226.817 89.9156C229.941 89.9156 230.931 91.6245 230.931 93.6663V96.6974C230.931 97.5249 230.98 98.3134 231.08 98.8021H228.452V98.8051ZM228.099 94.6946C226.565 94.6857 225.377 95.0304 225.377 96.0648C225.377 96.7664 225.872 97.1052 226.536 97.1052C227.248 97.1052 227.853 96.6644 228.044 96.1068C228.089 95.9659 228.099 95.798 228.099 95.6451V94.6946Z" fill="white"/>
<path d="M233.235 92.9767C233.235 91.6995 233.21 90.86 233.158 90.1105H235.666L235.773 91.7205H235.844C236.326 90.4493 237.469 89.9156 238.378 89.9156C238.647 89.9156 238.786 89.9216 239.003 89.9666V92.509C238.776 92.464 238.54 92.434 238.213 92.434C237.142 92.434 236.41 92.9617 236.213 93.8072C236.177 93.9781 236.158 94.188 236.158 94.4098V98.8081H233.235V92.9797V92.9767Z" fill="white"/>
</g>
<defs>
<clipPath id="clip0_348_38498">
<rect width="181.896" height="55.6115" fill="white" transform="translate(29)"/>
</clipPath>
<clipPath id="clip1_348_38498">
<rect width="181.896" height="55.6115" fill="white" transform="translate(29)"/>
</clipPath>
<clipPath id="clip2_348_38498">
<rect width="239" height="13" fill="white" transform="translate(0 86)"/>
</clipPath>
</defs>
</svg>
