<?xml version="1.0" encoding="UTF-8" standalone="no"?>
<!-- Created with Inkscape (http://www.inkscape.org/) -->

<svg
   width="210mm"
   height="297mm"
   viewBox="0 0 210 297"
   version="1.1"
   id="svg1"
   xml:space="preserve"
   sodipodi:docname="팔레스타인.svg"
   xmlns:inkscape="http://www.inkscape.org/namespaces/inkscape"
   xmlns:sodipodi="http://sodipodi.sourceforge.net/DTD/sodipodi-0.dtd"
   xmlns="http://www.w3.org/2000/svg"
   xmlns:svg="http://www.w3.org/2000/svg"><sodipodi:namedview
     id="namedview1"
     pagecolor="#ffffff"
     bordercolor="#000000"
     borderopacity="0.25"
     inkscape:showpageshadow="2"
     inkscape:pageopacity="0.0"
     inkscape:pagecheckerboard="0"
     inkscape:deskcolor="#d1d1d1"
     inkscape:document-units="mm" /><defs
     id="defs1" /><g
     inkscape:label="Layer 1"
     inkscape:groupmode="layer"
     id="layer1"><g
       style="fill:none"
       id="g1"
       transform="matrix(0.26458333,0,0,0.26458333,86.379207,99.88239)"><path
         d="m 64.4897,21.5319 c 1.2819,-0.0471 2.5664,0.7732 3.7637,-0.2205 0.0971,-0.0818 0.4655,0.0941 0.6672,0.218 0.8986,0.5527 1.5856,0.342 2.0337,-0.5724 0.3286,-0.6641 0.7542,-0.7261 1.2645,-0.275 0.9858,0.8697 1.9591,0.6814 2.9498,0.0297 0.7518,-0.4956 1.5931,-0.6592 2.4768,-0.6617 0.9584,0 1.5707,0.3172 1.8919,1.3605 0.7144,2.3219 2.3921,3.1942 4.8142,2.706 0.7293,-0.1462 1.4736,-0.2205 2.2005,-0.3742 0.692,-0.1462 1.3791,-0.1536 1.6354,-1.1547 0.2017,-0.7905 1.0406,-1.2589 1.9516,-1.301 0.58,-0.0273 1.1625,-0.0446 1.74,-0.005 0.7568,0.0546 1.2173,-0.1338 1.0953,-1.0085 -0.1269,-0.9144 0.6348,-1.13 1.2247,-1.2985 1.0629,-0.3024 1.4239,-0.9466 1.1899,-1.9403 -0.2664,-1.1449 0.005,-2.1832 0.4132,-3.2389 0.4282,-1.1101 0.5775,-2.1831 0.3186,-3.4618 -0.2887,-1.4224 -0.0796,-3.03066 1.048,-4.23995 0.4132,-0.44357 0.7094,-0.90201 0.7493,-1.51161 0.0124,-0.19577 -0.015,-0.44605 0.2315,-0.52039 0.2987,-0.08921 0.463,0.16107 0.5874,0.35188 0.3386,0.51792 0.6622,1.04574 0.9485,1.59339 0.2539,0.48322 0.5526,0.92431 0.9956,1.24894 0.451,0.3271 0.988,0.61208 1.499,0.32958 0.505,-0.28002 -0.003,-0.7335 -0.03,-1.11017 -0.045,-0.63686 -0.03,-1.20929 0.5,-1.69994 0.612,-0.565 1.065,-0.0793 1.563,0.1462 0.68,0.30728 1.265,0.35436 1.676,-0.43366 0.291,-0.56004 0.771,-0.95405 1.287,-1.31584 0.647,-0.45349 1.229,-0.99866 1.657,-1.65782 0.451,-0.691377 0.705,-1.618169 1.84,-0.85245 0.132,0.08921 0.5,-0.044605 0.687,-0.175942 1.125,-0.807845 2.308,-0.4138349 3.475,-0.193288 0.418,0.079298 0.777,0.312235 0.894,0.7682 0.117,0.45596 -0.252,0.6765 -0.518,0.90696 -2.838,2.46071 -2.87,2.64409 0.281,4.70583 1.026,0.67155 0.929,1.524 0.769,2.36158 -0.236,1.2465 0.028,2.1187 1.125,2.8498 1.106,0.7359 0.984,3.1768 -0.169,4.1656 -0.523,0.4485 -0.988,0.9119 -1.095,1.5884 -0.125,0.7806 -0.224,1.4844 0.953,1.747 1.24,0.2751 2.044,1.3357 1.949,2.5698 -0.303,4.0218 1.033,7.6349 2.562,11.2132 0.381,0.8921 0.226,1.6156 -0.386,2.2723 -1.752,1.871 -2.823,3.9971 -2.947,6.6214 -0.06,1.2811 -0.794,2.4557 -1.559,3.4618 -1.842,2.431 -3.684,4.8645 -5.775,7.1046 -1.09,1.1697 -2.369,1.9131 -3.87,2.3269 -0.864,0.2379 -1.534,0.6121 -1.661,1.586 -0.082,0.6294 -0.391,0.6517 -0.958,0.4857 -2.519,-0.7335 -3.348,-0.2949 -3.948,2.1782 -0.214,0.8772 -0.6772,1.3555 -1.4588,1.6727 -1.4761,0.5947 -1.6802,1.011 -1.399,2.5276 0.2639,1.4149 0.4954,2.8373 0.7269,4.2573 0.127,0.7781 -0.1717,1.462 -0.5526,2.1113 -0.9509,1.6206 -0.8986,2.597 0.229,4.0541 0.1469,0.1883 0.3883,0.5476 0.3336,0.612 -1.2297,1.4076 0.3709,3.4346 -1.1874,4.8793 -0.7169,0.6666 -0.2539,1.9825 -0.244,3.0034 0.01,0.907 -0.2862,1.0581 -1.1176,0.7682 -1.5932,-0.56 -3.246,-0.9664 -4.65,-1.9601 -0.5974,-0.4238 -1.3268,-0.5031 -1.8943,-0.2255 -0.6821,0.3345 -1.1451,0.3791 -1.5608,-0.2677 -0.468,-0.7285 -1.394,-1.3802 -0.6945,-2.3888 0.697,-1.0011 0.5974,-1.8115 -0.2962,-2.6069 -0.1643,-0.1462 -0.2539,-0.4213 -0.2937,-0.6517 -0.4381,-2.5822 -3.3356,-4.2623 -5.9519,-3.4396 -2.8477,0.8971 -5.4042,0.1512 -7.3333,-2.1261 -0.6099,-0.7212 -1.1326,-1.6306 -2.2877,-0.6369 -0.4007,0.3444 -0.687,-0.0248 -0.8662,-0.4981 -0.6821,-1.7817 -1.1302,-1.866 -2.4669,-0.5625 -0.5626,0.5476 -1.1301,1.0928 -1.7325,1.5934 -1.6056,1.3356 -3.9803,1.1002 -5.2275,-0.5551 -0.3734,-0.4981 -0.814,-0.2602 -1.2272,-0.3321 -0.3634,-0.0644 -0.8115,-0.0099 -0.6148,-0.617 0.3012,-0.9243 -0.0473,-1.7049 -0.5825,-2.4235 -0.3659,-0.4932 -0.463,-0.8327 0.2614,-1.1003 1.0305,-0.3816 1.8221,-0.9912 1.6503,-2.2773 -0.0547,-0.4114 0.2863,-0.4956 0.585,-0.6716 1.2496,-0.7335 2.3598,-1.6652 3.4974,-2.5573 0.6846,-0.5378 0.8265,-1.187 0.351,-1.8214 -0.5401,-0.7211 -0.219,-1.0804 0.3435,-1.4843 1.1775,-0.8451 1.7699,-2.0321 1.984,-3.4396 0.0672,-0.446 0.0996,-0.9367 0.3086,-1.3183 0.7369,-1.3357 0.4655,-2.4434 -0.6173,-3.4346 -0.5202,-0.4758 -0.58,-0.8847 0.0398,-1.4174 0.7393,-0.6369 0.5601,-1.1622 -0.3709,-1.4869 -0.7393,-0.2577 -1.5607,-0.1412 -2.2751,-0.5402 -0.8364,-0.4683 -1.1103,-1.0234 -0.5751,-1.913 0.7319,-1.2192 0.6199,-1.814 -0.5103,-2.6094 -0.5775,-0.4064 -1.033,-0.798 -0.9509,-1.5835 0.0399,-0.3841 -0.1194,-0.85 -0.4082,-0.9962 -1.0853,-0.5501 -0.6273,-1.2886 -0.4058,-2.0716 1.1352,-4.012 1.8595,-8.0983 2.0089,-12.2689 0.0448,-1.244 0.8936,-0.7558 1.4413,-0.8723 z"
         fill="#ff5039"
         id="path8" /><path
         d="m 50.8175,54.1585 c 0.7839,-0.7714 0.8618,-0.403 0.9884,-0.8876 0.6184,-2.366 0.3554,-4.8259 0.7182,-7.2216 0.056,-0.3634 0.0998,-0.7417 0.2361,-1.0755 0.2264,-0.5686 0.4577,-1.2435 1.1613,-1.2955 0.6695,-0.0494 0.8886,0.586 1.1686,1.0903 0.986,1.7702 2.6853,1.879 3.9975,0.2497 1.0955,-1.3597 1.6457,-3.0088 2.3031,-4.6009 0.129,-0.314 0.1533,-1.1423 0.7644,-0.7145 0.4845,0.3387 1.4461,0.6848 0.7888,1.7108 -0.9008,1.4092 -0.5599,2.5143 0.9349,3.2387 0.667,0.3239 1.4023,0.3659 2.3128,0.534 -1.0785,1.0631 -0.8448,1.9754 0.0097,2.7814 0.7401,0.6997 0.8448,1.4339 0.3774,2.3166 -0.2289,0.4351 -0.3506,0.9048 -0.392,1.4117 -0.1241,1.4339 -0.7547,2.6157 -1.9817,3.3598 -0.8618,0.5242 -1.0128,1.1175 -0.4358,1.9062 0.504,0.6873 0.3701,1.1521 -0.3432,1.5897 -1.1345,0.6947 -2.0012,1.7949 -3.3305,2.2176 -0.5867,0.1879 -0.6938,0.7862 -0.6695,1.3326 0.0316,0.717 -0.2191,1.1052 -0.9105,1.3771 -1.3585,0.534 -1.5265,1.026 -0.7839,2.2004 0.5161,0.8183 0.8934,1.5773 0.185,2.4599 -0.2021,0.2497 -0.1558,0.534 0.1266,0.581 1.6628,0.2744 2.8046,1.654 4.3968,2.0817 1.5532,0.4178 2.8679,0.0025 4.0437,-1.0359 0.2751,-0.2423 0.5478,-0.4895 0.8156,-0.7392 0.4747,-0.4426 0.9349,-1.2312 1.4218,-1.2461 0.6257,-0.0197 0.5064,1.0829 1.0127,1.5007 0.4723,0.3907 0.3263,0.7195 -0.0511,1.1076 -1.9987,2.0595 -4.0511,3.9903 -6.8435,4.9694 -1.8381,0.6428 -2.3663,2.4921 -2.9531,4.1485 -0.4212,1.1941 -0.6524,2.4575 -0.9762,3.6862 -0.2897,1.1002 -0.7572,1.3079 -1.7456,0.7417 -0.4212,-0.2398 -0.835,-0.5266 -1.1734,-0.8702 -1.2344,-1.2485 -2.7024,-1.8938 -4.4431,-1.9878 -0.7328,-0.0395 -1.4291,-0.131 -2.1253,0.2473 -0.8424,0.4573 -1.6604,-0.089 -2.4711,-0.2374 -0.4309,-0.0791 -0.2215,-0.6255 -0.1485,-0.9716 1.4875,-6.9843 2.4053,-14.0774 3.9683,-21.0468 0.0365,-0.1607 0.0682,-0.3264 0.0657,-0.4895 0,0 -0.6451,-3.8099 -0.0194,-4.423 z"
         fill="#ff5039"
         id="path7" /><path
         d="m 85.2019,179.919 c -0.1047,-0.803 0.0365,-1.592 0.4552,-2.265 0.5793,-0.934 0.5039,-1.789 -0.0925,-2.641 -0.7595,-1.084 -1.0199,-2.163 -0.3311,-3.433 0.4552,-0.837 0.241,-1.714 -0.4722,-2.372 -0.5745,-0.528 -0.6986,-1.049 -0.2532,-1.737 1.5385,-2.382 1.1125,-5.082 1.1611,-7.708 0.0195,-1.049 -0.1022,-2.053 0.8764,-2.908 1.0321,-0.902 0.4089,-2.14 -0.039,-3.104 -0.4795,-1.037 -0.37,-1.944 0.0974,-2.843 1.3315,-2.554 2.4926,-5.16 3.1839,-7.99 0.5233,-2.143 2.1859,-3.423 3.8679,-4.607 0.5331,-0.374 1.1514,-0.384 1.7015,0.038 0.4844,0.368 0.998,0.378 1.4727,0.072 0.7035,-0.454 1.4751,-0.476 2.0326,0.025 0.5793,0.523 0.6596,1.38 0.5696,2.187 -0.1899,1.697 -0.8131,3.274 -1.2999,4.886 -0.5161,1.704 -0.9055,3.433 -0.8641,5.23 0.0876,3.677 -0.3603,7.379 0.4917,11.019 0.1022,0.441 0.2044,0.882 0.3067,1.323 0.3846,1.667 0.3481,3.289 -0.5648,4.791 -1.015,1.67 -1.3193,3.511 -1.4507,5.437 -0.1242,1.791 -0.1217,3.655 -1.3583,5.16 -0.4503,0.548 -0.9737,1.009 -1.609,1.298 -0.6402,0.291 -0.9591,0.015 -0.8155,-0.671 0.2045,-0.971 0.4893,-1.925 0.9956,-2.785 0.3992,-0.68 0.1266,-0.875 -0.5258,-0.917 -0.9225,-0.062 -1.6163,0.391 -2.0009,1.151 -1.0394,2.053 -2.7603,3.391 -4.4472,4.809 -0.7011,0.588 -0.9007,0.261 -1.0686,-0.322 -0.0998,-0.344 -0.0171,-0.74 -0.0171,-1.123 z"
         fill="#ff5039"
         id="path2" /><path
         d="m 38.513,109.739 c 0.593,-0.3 0.6024,-0.958 0.6847,-1.469 0.3835,-2.393 1.3365,-4.615 1.8423,-6.966 0.1694,-0.785 0.5224,-1.029 1.2329,-0.649 0.3836,0.204 0.7953,0.347 1.1836,0.543 1.7246,0.874 1.7176,0.877 1.0305,2.727 -0.0964,0.259 -0.2494,0.658 -0.1412,0.81 0.7836,1.11 0.1365,1.974 -0.3482,2.9 -0.5153,0.982 -0.4117,2.067 -0.3741,3.13 0.0235,0.667 0.4518,0.953 1.0188,0.943 0.8659,-0.017 1.08,0.463 1.0212,1.245 -0.0542,0.731 0.1317,1.487 -0.1812,2.186 -0.3059,0.684 -0.6776,0.945 -1.327,0.293 -1.0824,-1.086 -1.3859,-1.019 -2.24,0.29 -0.0659,0.101 -0.1365,0.199 -0.2023,0.303 -1.3035,2.033 -3.127,2.257 -4.9176,0.642 -0.4729,-0.428 -0.1717,-0.795 -0.0541,-1.206 0.4282,-1.516 1.3247,-2.872 1.4094,-4.506 0.4588,-0.293 0.0564,-0.872 0.367,-1.216 z"
         fill="#ff5039"
         id="path5" /><path
         d="m 43.1747,139.23 c -0.0098,0.017 -0.0172,0.04 -0.0271,0.059 0.0099,-0.019 0.0173,-0.039 0.0271,-0.059 0.0124,-0.678 0.0223,-1.356 0.0371,-2.037 0.0148,-0.649 -0.3159,-0.691 -0.8046,-0.478 -0.4986,0.015 -0.9181,0.119 -1.2365,0.592 -0.3826,0.569 -0.8539,1.081 -1.3229,1.586 -0.3677,0.396 -0.6812,0.441 -0.812,-0.222 -0.1505,-0.76 -0.3702,-1.508 -0.5133,-2.27 -0.0716,-0.376 -0.2049,-0.656 -0.6121,-0.604 -0.6293,0.077 -0.8095,-0.198 -0.9601,-0.79 -0.1382,-0.539 -0.6861,-0.861 -1.2735,-0.591 -0.4714,0.215 -0.9502,0.495 -0.4862,1.215 0.3505,0.54 -0.1061,1.03 -0.4442,1.399 -1.0785,1.17 -3.3985,0.967 -4.3536,-0.337 -0.4344,-0.594 -0.3431,-1.094 0.3134,-1.411 0.9625,-0.463 1.0736,-0.893 0.1456,-1.569 -0.3381,-0.245 -0.8095,-0.698 -0.5232,-1.248 0.2517,-0.482 0.77,-0.534 1.2908,-0.537 0.6417,0 1.3697,0.325 1.9102,-0.146 0.5874,-0.512 -0.0987,-1.321 0.1851,-1.868 0.7874,-1.523 -0.3776,-1.594 -1.2833,-1.886 -0.1925,-0.062 -0.4048,-0.067 -0.6072,-0.107 -0.6417,-0.119 -1.0069,0.01 -1.276,0.748 -0.5799,1.591 -1.2907,3.141 -2.0237,4.67 -2.9888,6.252 -6.1159,12.428 -10.4251,17.91 -0.5947,0.758 -0.575,1.354 0.2567,1.965 1.5105,1.109 2.858,2.414 4.1784,3.743 0.3801,0.383 0.849,0.836 0.58,1.388 -0.5084,1.052 -1.0538,2.364 -2.2089,2.602 -2.4902,0.507 -4.2228,2.052 -6.0171,3.636 -2.8975,2.557 -5.73323,5.138 -7.18938,8.871 -0.12587,0.321 -0.30357,0.621 -0.16042,0.91 0.47633,0.966 0.43191,2.018 0.4788,3.03 0.05677,1.243 0.15302,2.552 -1.03164,3.47 -2.16694,1.683 -4.3092,3.399 -6.471205,5.087 -0.4812675,0.376 -0.624414,0.819 -0.4319067,1.388 1.0686617,3.141 2.1496617,6.279 3.1985817,9.428 1.05139,3.158 2.09043,6.319 3.10233,9.49 0.90083,2.821 1.58201,5.727 2.66795,8.472 2.22869,5.628 5.00519,11.022 7.28569,16.638 0.7601,1.871 1.3204,3.732 1.6239,5.717 0.274,1.79 1.0045,3.495 0.8688,5.366 -0.0963,1.312 -0.0346,2.636 -0.1111,3.951 -0.0518,0.886 0.2666,1.445 1.0662,1.841 1.0415,0.517 1.5055,1.396 1.4586,2.594 -0.0444,1.131 -0.4738,2.153 -0.8045,3.196 -0.5998,1.9 -0.2049,3.39 1.3993,4.517 1.0243,0.72 2.1003,1.363 3.1147,2.094 0.4442,0.319 0.9749,0.611 1.1402,1.205 0.3505,1.252 0.6812,2.512 1.0317,3.765 0.7034,2.504 1.2759,5.056 2.1521,7.499 1.5228,4.238 2.8185,8.549 4.2722,12.807 1.0983,3.217 2.0781,6.477 3.1319,9.712 1.0835,3.324 2.2089,6.636 3.2899,9.962 0.7133,2.201 1.0934,4.565 2.1374,6.589 1.3821,2.681 1.9694,5.408 1.8707,8.351 -0.0345,1.045 0.0272,2.099 0.6467,2.933 1.0884,1.463 1.1871,3.166 0.6984,4.676 -0.6392,1.978 0.2888,3.638 0.4936,5.433 0.1703,1.495 1.4808,2.487 2.0386,3.829 0.3233,0.775 0.6096,0.69 1.1106,0.168 0.9922,-1.034 1.7203,-2.232 2.3422,-3.507 0.1999,-0.411 0.427,-0.894 0.9848,-0.53 0.7897,0.52 0.6663,-0.079 0.7009,-0.517 0.195,-2.398 0.7206,-4.629 2.6581,-6.324 0.5207,-0.455 0.8959,-1.196 0.7725,-2 -0.2715,-1.765 -0.2493,-3.547 -0.1136,-5.304 0.2197,-2.849 0.5751,-5.767 2.2089,-8.168 1.8683,-2.743 2.3348,-5.757 2.5174,-8.911 0.037,-0.641 -0.0173,-1.237 -0.2394,-1.893 -0.3504,-1.04 -0.3035,-2.171 0.1703,-3.25 0.6294,-1.44 1.7696,-2.661 1.8683,-4.334 0.1605,-2.735 1.5796,-4.898 3.2455,-6.91 1.1674,-1.411 2.2509,-2.842 1.9053,-4.785 -0.3134,-1.767 -0.0839,-3.737 -1.6313,-5.116 -0.2148,-0.191 -0.1802,-0.438 -0.2148,-0.678 -0.5577,-4.096 0.3283,-7.881 2.5841,-11.309 0.5972,-0.908 0.4516,-1.465 -0.1481,-2.245 -2.315,-3.01 -2.5841,-6.287 -1.1797,-9.787 0.9452,-2.361 2.3323,-4.584 2.4063,-7.237 0.0592,-2.044 0.5504,-3.948 1.7819,-5.626 0.5479,-0.747 1.0391,-1.534 1.5426,-2.312 1.8214,-2.799 3.0282,-5.863 3.8822,-9.083 0.4516,-1.708 0.7305,-3.52 2.5865,-4.458 0.3751,-0.188 0.5726,-0.77 0.7996,-1.198 0.7577,-1.421 0.4048,-2.973 0.4468,-4.468 0.0913,-3.277 1.7547,-5.544 4.5535,-6.93 0.9403,-0.465 1.2463,-0.903 1.1057,-1.839 -0.4887,-3.233 0.2789,-6.205 1.582,-9.17 1.661,-3.775 1.8041,-7.587 -0.6022,-11.22 -0.9107,-1.374 -1.8659,-2.733 -2.3521,-4.354 -0.2097,-0.7 0.2468,-1.572 -0.1703,-2.039 -1.5351,-1.728 -0.9625,-3.555 -0.3356,-5.312 0.306,-0.856 0.2912,-1.485 -0.2073,-2.149 -0.8663,-1.15 -0.7824,-2.368 -0.2542,-3.596 0.2739,-0.636 0.3109,-1.188 -0.2444,-1.658 -1.1427,-0.963 -0.8514,-2.01 -0.3035,-3.161 0.3307,-0.695 0.9625,-1.344 0.6737,-2.309 -0.2171,0.069 -0.4171,0.101 -0.5849,0.193 -3.0209,1.633 -5.6518,3.849 -7.989,6.282 -1.7055,1.774 -3.211,3.264 -5.8567,3.304 -2.468,0.037 -4.7411,1.428 -7.3375,1.136 -2.0633,-0.233 -4.1759,-0.178 -6.254,-0.042 -1.8189,0.119 -3.7243,-0.196 -5.4322,0.755 -1.1155,0.621 -1.8362,0.535 -2.3026,-0.552 -0.3999,-0.931 -1.0564,-1.488 -1.8239,-2.045 -1.429,-1.037 -1.5919,-2.014 -0.8268,-3.583 0.575,-1.181 1.3303,-2.25 2.1496,-3.24 2.0387,-2.468 3.0061,-5.166 2.4261,-8.399 -0.1999,-1.113 -0.2492,-2.301 0.2222,-3.413 0.2665,-0.628 0.8218,-1.319 0.7132,-1.876 -0.1357,-0.695 -1.1649,-0.728 -1.7548,-1.153 -1.2488,-0.901 -2.2903,-2.072 -3.7366,-2.73 -0.7305,-0.335 -1.002,-1.117 -0.9354,-1.973 0.084,-1.069 0.1086,-2.141 0.1728,-3.21 0.037,-0.629 -0.1061,-1.218 -0.306,-1.795 -0.3209,-0.921 -1.666,-2.309 -1.666,-2.309 z m -0.7157,1.485 c 0.0889,-0.027 0.1629,-0.074 0.2221,-0.136 -0.0592,0.059 -0.1308,0.106 -0.2221,0.136 z"
         fill="#ff5039"
         id="path1" /><path
         d="m 74.8542,136.219 c 0.5711,-1.25 -0.0374,-2.667 0.1695,-4.01 0.0424,-0.276 -0.399,-0.638 -0.7905,-0.695 -1.1547,-0.173 -1.5736,-0.885 -1.636,-1.96 -0.0224,-0.396 -0.2394,-0.781 -0.3666,-1.17 -0.0972,-0.299 -0.2918,-0.604 -0.6035,-0.469 -0.4015,0.175 -0.0848,0.516 0.0324,0.723 0.7357,1.284 0.7607,2.661 0.5836,4.061 -0.0374,0.304 -0.0549,0.688 -0.4464,0.816 -0.4115,0.136 -0.5761,-0.194 -0.7881,-0.446 -0.4962,-0.589 -0.9002,-0.737 -1.1771,0.192 -0.3865,1.299 -0.9751,1.63 -2.2843,1.171 -1.9652,-0.688 -3.7907,-1.636 -5.3169,-3.086 -1.444,-1.37 -2.0799,-1.382 -3.5263,0.037 -0.7906,0.777 -1.6859,1.353 -2.7582,1.57 -1.02,0.205 -2.0201,-0.047 -2.7408,-0.811 -0.7207,-0.764 0.3816,-1.131 0.6235,-1.791 -0.5537,0 -1.0051,-0.015 -1.4564,0.002 -0.8654,0.037 -1.4664,0.754 -2.2944,0.887 -0.7082,0.116 -0.9003,0.555 -0.9427,1.22 -0.1047,1.728 -0.8105,2.292 -2.4938,1.965 -1.0774,-0.21 -2.045,0.019 -3.0051,0.446 -0.7182,0.32 -1.5811,0.562 -0.4913,1.501 0.1945,0.17 0.1746,0.614 0.202,0.934 0.0324,0.384 0.0474,0.752 0.5287,0.848 0,0 0.7232,1.735 1.2345,2.408 0.5237,0.784 0.6459,1.644 0.5935,2.568 -0.0648,1.107 -0.0449,2.216 -0.0848,3.325 -0.02,0.53 0.0623,1.028 0.6035,1.232 1.4041,0.528 2.3492,1.649 3.4814,2.529 1.9053,1.484 2.6261,1.363 4.0401,-0.564 0.6259,-0.853 1.0898,-1.881 2.1322,-2.339 3.0774,-1.356 5.5489,-3.483 7.8008,-5.896 0.4963,-0.532 0.9826,-1.07 1.7233,-1.269 0.2818,0.088 1.5337,0.461 2.3916,0.345 0.0199,-0.003 0.0399,-0.003 0.0598,-0.005 0,0 0.0025,0.002 0.005,0.005 0.005,-0.003 0.0125,-0.005 0.0175,-0.008 0.9027,-0.081 1.1821,0.548 1.4414,0.666 0.01,0.005 0.0225,0.005 0.0349,0.007 0.2793,0.422 0.7058,0.513 1.3268,0.151 0.3167,-0.185 0.5636,-0.178 0.8928,0.064 1.5461,1.136 1.5586,1.124 2.636,-0.387 0.192,-0.269 0.3591,-0.552 0.5536,-0.816 0.3616,-0.491 0.394,-0.991 0.0249,-1.476 -0.6484,-0.858 -0.3441,-1.583 0.0649,-2.477 z"
         fill="#ff5039"
         id="path3" /><path
         d="m 58.4351,84.6736 c -1.1755,-0.025 -2.0491,-0.6867 -2.8172,-1.4608 -1.1093,-1.1211 -2.4737,-1.6555 -3.9486,-1.9077 -0.6846,-0.1173 -1.492,-0.3146 -2.0024,0.492 -0.1497,0.2372 -0.3093,0.3545 -0.589,0.1448 -0.6479,-0.4844 -1.5313,-0.0425 -2.1988,-0.5818 -0.2209,-0.1773 -0.6233,-0.0125 -0.6233,0.3546 0,0.8489 -0.4099,1.588 -0.5448,2.3946 -0.3927,2.3521 -1.0773,4.6319 -1.6884,6.9291 -0.6822,2.5644 -1.4945,5.0914 -2.2184,7.6433 -0.2062,0.7266 -0.0589,1.2535 0.8491,1.4333 0.6527,0.13 1.2662,0.509 1.8675,0.834 1.3129,0.714 1.5386,1.433 0.903,2.804 -0.2159,0.465 -0.4098,0.909 -0.0539,1.383 0.4638,0.615 0.3533,1.169 -0.0491,1.798 -0.5964,0.929 -1.0209,1.935 -0.9865,3.099 0.0196,0.652 0.0589,1.134 0.8981,1.129 0.7117,-0.003 1.1338,0.552 1.2172,1.191 0.1571,1.191 0.2258,2.407 -0.2969,3.548 -0.3951,0.859 -1.4503,1.131 -2.0786,0.412 -0.93,-1.066 -1.3227,-0.499 -1.8209,0.382 -0.7116,1.256 -1.6,2.24 -3.2613,1.993 -0.7142,-0.108 -1.3105,-0.437 -1.87,-0.797 -0.8393,-0.539 -1.3669,-0.302 -1.6516,0.537 -0.8417,2.477 -2.1472,4.744 -3.0871,7.174 -0.4483,1.162 -0.0835,1.824 1.0945,1.987 1.6172,0.223 1.8822,0.642 1.4135,2.225 -0.0221,0.078 -0.0147,0.165 -0.0295,0.247 -0.1423,0.857 0.427,1.783 -0.3411,2.587 -0.7583,0.797 -1.7816,0.245 -2.5841,0.56 -0.1055,0.362 0.1571,0.402 0.2921,0.529 0.9938,0.956 0.9595,1.343 -0.1939,2.152 -0.1939,0.138 -0.4957,0.243 -0.5546,0.427 -0.108,0.34 0.3215,0.565 0.481,0.607 0.8049,0.21 1.6564,0.487 2.4,-0.185 0.1767,-0.159 0.562,-0.267 0.2086,-0.664 -0.3951,-0.442 -0.9865,-0.839 -0.7902,-1.565 0.2601,-0.962 1.0871,-0.048 1.5583,-0.445 0.8,-0.672 1.924,-0.562 2.2135,0.197 0.3804,1.002 1.6442,0.582 1.8749,1.708 0.1252,0.617 0.2381,1.276 0.4663,2.063 0.7804,-0.52 0.9865,-1.384 1.6294,-1.88 1.8087,-1.399 3.7032,-2.46 6.0934,-2.05 0.7583,0.129 1.0258,-0.25 0.9791,-0.984 -0.0515,-0.817 0.3264,-1.603 0.9669,-1.868 1.3056,-0.537 2.508,-1.501 4.0884,-1.199 0.7117,0.138 1.4675,0.045 2.2037,0.048 1.8945,0.002 1.8553,-0.722 1.8896,-2.51 0.0369,-1.962 -0.93,-2.976 -1.9018,-4.23 -0.4172,-0.539 -0.7068,-1.176 -1.0798,-1.752 -0.5178,-0.802 -0.6037,-1.716 -0.0442,-2.407 0.5841,-0.722 0.6896,-1.436 0.6332,-2.28 -0.0295,-0.452 -0.0565,-0.922 0.2135,-1.326 0.4122,-0.617 0.2576,-1.196 0.0638,-1.878 -0.5841,-2.057 -2.4418,-3.87 -1.2418,-6.29 -0.5987,-1.533 -0.2895,-3.338 -1.8478,-4.612 -1.4675,-1.201 -1.0307,-3.3832 0.746,-4.0174 1.9166,-0.6817 2.7215,-2.2673 3.6835,-3.7979 0.4785,-0.7616 0.8221,-1.4583 -0.324,-1.9752 -0.3313,-0.1498 -0.4564,-0.6292 -0.4392,-0.9863 0.0613,-1.3633 0.081,-2.7467 0.3264,-4.0826 0.1668,-0.9014 0.5202,-1.8502 1.5607,-2.2198 0.2135,-0.0774 0.3877,-0.2921 0.5571,-0.4644 0.3534,-0.3571 0.2748,-0.5993 -0.2233,-0.6093 z"
         fill="#ff5039"
         id="path4" /><path
         d="m 96.5121,100.237 c 0.3785,-2.862 0.9148,-5.8133 -0.0825,-8.5763 -0.8663,-2.4061 -0.6018,-4.6859 -0.1577,-7.0177 0.1626,-0.8549 -0.1141,-1.1771 -0.7983,-1.3084 -1.6282,-0.3122 -3.1472,-0.8847 -4.54,-1.809 -0.6625,-0.4386 -1.3832,-0.4658 -2.0529,-0.0545 -0.3518,0.2181 -0.5993,0.2974 -0.973,0.0471 -1.6695,-1.12 -2.1717,-2.7555 -1.3856,-4.6339 0.0316,-0.0743 0.1384,-0.1808 0.1214,-0.2032 -0.8347,-1.1225 -0.8226,-2.8348 -1.6501,-3.6724 -1.1234,-1.1374 -2.8244,-1.7569 -4.6613,-1.0804 -2.9458,1.0829 -5.3893,-0.0421 -7.3572,-2.2426 -0.6818,-0.7632 -1.0555,-0.9441 -1.5651,-0.2626 -0.1238,0.1635 -0.33,0.4287 -0.4659,0.5823 -1.8538,2.0592 -3.7562,4.1705 -6.3623,5.1121 -1.9679,0.7112 -2.776,2.0915 -3.5233,3.8211 -0.3689,0.8549 -0.1529,1.8659 -0.728,2.5796 -0.5629,0.6963 -0.3882,1.519 -0.3057,2.1658 0.2354,1.8362 0.2184,2.1162 -1.4729,3.1049 -0.3422,0.2008 -0.5921,0.5378 -0.6843,0.9293 -0.2766,1.1795 -0.5387,2.3591 -0.5581,3.5832 -0.0073,0.4683 0.165,0.9243 0.4853,1.2613 0.9318,0.9788 0.9488,1.8213 0.1966,3.043 -1.0774,1.7519 -2.3246,3.2734 -4.2489,4.1506 -0.9342,0.4267 -1.1162,1.2437 -0.4416,2.1287 0.296,0.387 0.5945,0.776 0.9294,1.127 0.7279,0.771 1.0361,1.658 1.1283,2.744 0.1796,2.111 -0.3543,4.316 0.9342,6.296 1.3807,2.119 0.0582,4.327 -0.0097,6.495 -0.0097,0.322 -0.3397,0.632 -0.5144,0.952 -0.1335,0.245 -0.4077,0.51 -0.2063,0.785 0.7838,1.058 1.0046,2.5 2.1451,3.306 0.9293,0.656 1.5359,1.392 1.087,2.671 -0.1504,0.431 -0.1019,1.014 0.0413,1.465 0.5484,1.712 -0.4149,2.934 -2.4241,3.018 -0.5678,0.025 -0.9827,0.208 -1.3831,0.575 -0.1941,0.178 -0.3688,0.362 -0.3106,0.617 0.0631,0.27 0.3251,0.327 0.5775,0.352 1.1138,0.114 2.1548,0.042 3.0089,-0.87 0.4635,-0.496 0.9949,-0.957 1.5724,-1.299 0.9002,-0.537 1.8344,-0.557 2.6691,0.209 0.4198,0.384 0.8105,0.802 1.2521,1.157 1.3273,1.073 2.7517,1.98 4.4357,2.344 0.6503,0.141 1.1162,0.052 1.2302,-0.865 0.1068,-0.85 0.6309,-1.445 1.6161,-0.825 0.626,0.394 0.7158,0.04 0.7546,-0.535 0.0728,-1.046 -0.3033,-1.916 -0.7983,-2.788 -0.2572,-0.454 -0.4489,-1.128 0.0777,-1.427 0.5581,-0.32 1.2763,-0.31 1.7155,0.376 0.1941,0.305 0.3907,0.645 0.4489,0.994 0.1772,1.053 0.3591,1.987 1.5918,2.384 1.007,0.324 1.1186,1.298 0.9997,2.257 -0.0606,0.488 0.0631,1.259 0.2111,1.727 0.199,0.632 -0.1844,1.17 -0.5217,1.713 -0.33,0.533 -0.427,0.956 -0.0606,1.568 0.4829,0.806 0.4683,1.651 -0.1165,2.528 -0.4319,0.647 -1.1769,1.204 -1.0798,2.116 0.0825,0.781 -0.3785,0.748 -0.7983,0.565 -0.6188,-0.27 -1.189,-0.662 -1.7738,-1.016 -0.2329,-0.141 -0.3834,-0.391 -0.7352,-0.327 -1.3249,0.235 -2.0504,0.327 -2.8294,-1.058 -0.1722,-0.238 -0.4343,-0.149 -0.6624,-0.201 -0.4319,-0.099 -0.3179,-0.233 -1.2132,-0.171 l -0.4659,0.05 c -0.0801,0.007 -0.1529,0.049 -0.2014,0.116 -2.0383,2.733 -4.4794,5.023 -7.4689,6.602 -1.1962,0.632 -2.2202,1.273 -2.9749,2.463 -0.7959,1.254 -1.9654,2.27 -2.7201,3.543 -1.0434,1.77 -0.4999,3.792 -0.4052,5.702 0.0995,2.01 -0.347,3.779 -1.519,5.41 -1.0871,1.511 -2.0965,3.085 -3.0696,4.678 -0.7667,1.254 -0.5848,2.146 0.5436,2.917 0.8177,0.557 1.4365,1.358 1.9194,2.232 0.2644,0.479 0.643,0.573 1.155,0.266 1.1113,-0.672 2.3391,-0.828 3.5961,-0.88 3.152,-0.129 6.3041,-0.196 9.4561,-0.025 0.7231,0.04 1.4972,0.159 2.1596,-0.166 1.7883,-0.872 3.7417,-0.939 5.6344,-1.239 0.9221,-0.146 1.5675,-0.483 2.1183,-1.189 2.3659,-3.031 5.2826,-5.4 8.522,-7.372 1.1768,-0.717 1.9679,-1.596 1.9509,-3.118 -0.0122,-1.15 0.1528,-2.302 0.262,-3.452 0.0389,-0.404 0.051,-0.874 0.4514,-1.1 1.0215,-0.575 0.757,-1.358 0.4198,-2.2 -0.5363,-1.348 -0.5848,-2.682 0.0582,-4.039 0.9027,-1.904 2.0844,-3.715 2.5066,-5.797 0.626,-3.08 2.2008,-5.364 4.7632,-7.047 0.7231,-0.476 1.4147,-0.706 2.1087,-0.223 1.024,0.714 1.0531,0.131 0.9876,-0.679 -0.1723,-2.136 -0.2572,-4.287 -0.5703,-6.401 -0.1771,-1.201 -0.1892,-2.512 -0.8395,-3.58 -0.7353,-1.21 -0.4538,-2.258 0.1941,-3.331 0.4295,-0.713 0.8153,-1.484 0.6285,-2.324 -0.3179,-1.43 -0.529,-2.89 -1.1745,-4.233 -1.0094,-2.098 -1.2205,-4.195 0.0291,-6.314 0.6091,-1.033 0.842,-2.198 0.728,-3.424 -0.068,-0.746 -0.034,-1.492 0.5265,-2.082 0.3276,-0.344 0.3616,-0.666 0.0583,-1.085 -0.5023,-0.694 -0.3567,-1.356 0.165,-2.01 0.296,-0.374 0.626,-0.825 0.6843,-1.276 z"
         fill="#ff5039"
         id="path6" /></g></g></svg>
