<?xml version="1.0" encoding="UTF-8" standalone="no"?>
<!-- Created with Inkscape (http://www.inkscape.org/) -->

<svg
   width="210mm"
   height="297mm"
   viewBox="0 0 210 297"
   version="1.1"
   id="svg1"
   xml:space="preserve"
   inkscape:export-filename="시리.svg"
   inkscape:export-xdpi="96"
   inkscape:export-ydpi="96"
   xmlns:inkscape="http://www.inkscape.org/namespaces/inkscape"
   xmlns:sodipodi="http://sodipodi.sourceforge.net/DTD/sodipodi-0.dtd"
   xmlns="http://www.w3.org/2000/svg"
   xmlns:svg="http://www.w3.org/2000/svg"><sodipodi:namedview
     id="namedview1"
     pagecolor="#ffffff"
     bordercolor="#000000"
     borderopacity="0.25"
     inkscape:showpageshadow="2"
     inkscape:pageopacity="0.0"
     inkscape:pagecheckerboard="0"
     inkscape:deskcolor="#d1d1d1"
     inkscape:document-units="mm" /><defs
     id="defs1" /><g
     inkscape:label="Layer 1"
     inkscape:groupmode="layer"
     id="layer1"><g
       style="fill:none"
       id="g1"
       transform="matrix(0.26458333,0,0,0.26458333,66.32063,111.98809)"><path
         d="m 64.7874,135.676 c -0.078,-0.113 0.0941,0.283 0.3872,0.545 1.3474,1.207 2.157,1.072 3.0364,-0.458 1.4684,-2.554 5.8494,-3.731 8.4367,-2.266 1.2263,0.692 1.8288,0.313 1.8637,-1.175 0.0861,-3.836 0.3765,-4.191 4.2358,-5.355 1.0946,-0.331 2.1489,-0.814 3.2569,-1.086 3.7329,-0.91 5.8871,0.367 7.0758,4.012 0.1964,0.6 0.6536,1.161 1.1054,1.629 1.4415,1.501 2.9745,2.913 4.3945,4.432 1.2505,1.339 1.9852,1.342 2.9962,-0.183 0.148,-0.224 0.366,-0.466 0.382,-0.709 0.285,-4.703 3.784,-6.371 7.439,-7.799 1.576,-0.614 2.213,-1.511 2.044,-3.214 -0.081,-0.816 0.088,-1.84 0.543,-2.492 1.802,-2.589 2.181,-5.417 2.044,-8.475 -0.137,-3.076 -0.024,-3.111 3.109,-3.152 8.487,-0.108 16.779,1.156 24.922,3.548 3.228,0.948 6.493,1.837 9.798,2.436 3.545,0.641 6.385,2.5 8.399,5.185 2.181,2.907 4.284,6.067 3.816,10.149 -0.11,0.956 0.323,2.171 0.901,2.982 8.993,12.567 18.051,25.089 27.091,37.621 1.812,2.514 3.603,5.046 5.534,7.753 -2.071,1.326 -4.088,2.624 -6.115,3.909 -24.555,15.571 -49.12,31.132 -73.647,46.743 -1.175,0.747 -1.856,0.72 -2.953,-0.132 -6.121,-4.763 -12.304,-9.442 -18.5059,-14.094 -0.8337,-0.625 -1.8718,-1.062 -2.883,-1.353 -5.1395,-1.482 -8.7271,-4.698 -10.6904,-9.633 -1.2075,-3.034 -3.9158,-4.575 -6.1453,-6.555 -2.8803,-2.562 -5.8037,-5.003 -7.6325,-8.521 -0.3981,-0.768 -1.3797,-1.522 -2.2242,-1.719 -4.0986,-0.953 -7.4173,-2.909 -9.7921,-6.492 -1.7105,-2.578 -3.6603,-4.995 -5.4864,-7.497 -0.7638,-1.046 -1.6862,-1.024 -2.6544,-0.415 -1.8853,1.188 -3.8163,0.924 -5.8441,0.452 -0.8499,-0.199 -1.81,0.105 -2.7217,0.119 -0.6777,0.011 -1.7212,0.178 -1.9579,-0.17 -0.4625,-0.676 -0.8068,-1.754 -0.597,-2.495 0.3442,-1.223 0.4572,-1.88 -0.9037,-2.57 -1.1914,-0.603 -1.982,-1.767 -1.3608,-3.389 0.5218,-1.365 0.2367,-2.492 -1.3017,-3.125 -0.6669,-0.274 -1.4469,-0.697 -1.7857,-1.282 -1.3232,-2.287 -3.2004,-2.874 -6.1184,-1.759 1.385,-1.784 2.3828,-3.069 3.671,-4.725 1.1618,0.094 1.7454,-0.771 1.1887,-2.713 -2.3129,0.557 -3.9265,-0.288 -5.0776,-2.419 -0.632,-1.17 -2.0816,-0.879 -2.3424,0.571 -0.3873,2.15 -1.7024,2.039 -3.2462,1.942 -1.0623,-0.065 -2.13,-0.013 -3.3375,-0.013 0.3792,-5.596 5.3922,-8.468 7.2506,-13.136 0.7746,2.802 3.4156,0.768 5.196,1.611 0.2528,0.118 1.2505,-0.948 1.6486,-1.619 0.6965,-1.178 1.1941,-2.471 1.8879,-3.96 1.7374,3.009 3.8593,3.383 7.6487,1.891 2.8588,-1.126 5.7526,-2.185 8.6868,-3.079 0.5917,-0.181 1.7212,0.291 2.1219,0.827 0.8391,1.115 1.4146,2.446 1.9929,3.736 0.6562,1.466 1.4523,1.485 2.6598,0.598 1.2398,-0.908 2.5307,-1.813 3.9319,-2.408 1.2291,-0.523 2.641,-0.62 4.6258,-1.045 z"
         fill="#ff5039"
         id="path4" /><path
         d="m 156.456,116.194 c 3.434,-5.283 6.812,-10.485 10.196,-15.679 2.503,-3.8446 5.01,-7.6889 7.535,-11.517 0.643,-0.9752 0.708,-1.7241 -0.204,-2.6751 -0.495,-0.5146 -0.761,-1.576 -0.64,-2.3087 0.817,-4.9219 1.737,-9.8303 2.681,-14.7307 1.057,-5.4876 2.171,-10.9617 3.279,-16.4386 0.088,-0.4445 0.312,-0.8647 0.572,-1.5652 0.417,0.59 0.74,0.9618 0.971,1.3847 3.316,6.0749 8.795,10.1832 13.619,14.8519 8.878,8.5884 18.041,16.8804 26.854,25.5334 2.886,2.8341 6.309,3.8497 9.929,4.4343 3.368,0.5442 6.837,0.4661 10.261,0.6681 1.514,0.0889 3.028,0.1994 4.375,0.2883 -1.199,5.9456 -2.614,11.5386 -3.37,17.2176 -0.503,3.779 -0.083,7.685 -0.032,11.535 0.019,1.282 0.024,2.597 0.304,3.836 1.665,7.395 -1.506,13.567 -4.776,19.758 -1.383,2.621 -2.663,5.307 -3.79,8.047 -1.041,2.529 -3.281,3.214 -5.475,3.634 -5.917,1.131 -10.927,4.049 -15.836,7.325 -4.206,2.807 -8.555,5.401 -12.807,8.144 -1.108,0.716 -1.761,0.754 -2.616,-0.466 -4.806,-6.846 -9.693,-13.637 -14.588,-20.418 -5.448,-7.546 -10.959,-15.048 -16.376,-22.618 -0.623,-0.873 -1.172,-2.053 -1.161,-3.085 0.056,-5.183 -2.313,-9.154 -5.885,-12.581 -0.92,-0.881 -1.936,-1.659 -3.02,-2.578 z"
         fill="#ff5039"
         id="path11" /><path
         d="M 285.306,-6.83492e-6 C 286.823,0.740835 287.853,1.47898 288.996,1.74838 c 1.885,0.44451 2.789,2.0097 2.821,3.97091 0.03,2.01779 0.791,4.01402 1.127,6.03991 0.102,0.6169 0.097,1.5113 -0.264,1.9073 -5.763,6.3497 -11.591,12.6374 -17.405,18.9386 -0.183,0.1994 -0.396,0.3826 -0.53,0.6116 -3.916,6.5436 -10.623,7.5996 -17.255,9.0113 -9.112,1.9423 -6.853,0.3529 -11.245,8.5345 -2.076,3.8658 -1.611,8.0145 -2.34,12.0286 -0.941,5.1832 -0.282,10.0646 2.623,14.5501 3.041,4.6983 2.845,10.035 2.92,15.2991 0.014,0.8432 -0.331,1.7214 -0.634,2.535 -0.632,1.6999 -1.582,2.4273 -3.682,2.0743 -2.835,-0.4741 -5.807,-0.0781 -8.674,-0.4418 -3.654,-0.4633 -7.277,-1.2365 -10.876,-2.0474 -0.914,-0.2074 -1.785,-0.9617 -2.503,-1.6433 -12.345,-11.7188 -24.767,-23.354 -36.899,-35.2883 -2.611,-2.5674 -4.12,-6.25 -6.191,-9.3831 -0.608,-0.9187 -1.24,-2.0097 -2.141,-2.5027 -2.724,-1.4871 -5.368,-3.4726 -8.843,-2.4435 -0.454,0.1347 -1.247,-0.1912 -1.605,-0.5684 -0.925,-0.9725 -1.848,-2.007 -2.496,-3.1735 -1.49,-2.6805 -1.237,-3.0792 1.748,-3.6126 6.858,-1.2258 13.705,-2.6913 19.872,-5.9995 5.901,-3.1654 12.307,-5.4283 17.546,-9.8572 1.503,-1.2716 3.725,-1.6891 5.613,-2.5081 1.229,-0.5334 2.547,-0.9348 3.655,-1.6595 6.352,-4.1487 13.269,-5.4364 20.49,-3.3728 9.682,2.7667 19.057,1.479 28.457,-1.1153 3.835,-1.0588 7.651,-2.29261 11.562,-2.95802 4.615,-0.78664 7.508,-3.68535 10.182,-7.07706 0.535,-0.678883 1.081,-1.346988 1.282,-1.60022081 z"
         fill="#ff5039"
         id="path12" /><path
         d="m 108.806,106.11 c -1.727,0.132 -2.846,0.31 -3.962,0.291 -5.7848,-0.1 -11.5724,-0.148 -17.3466,-0.455 -1.3716,-0.073 -2.8777,-0.827 -3.9965,-1.692 -1.8153,-1.404 -3.6925,-1.805 -5.8629,-1.425 -1.1295,0.197 -2.2913,0.232 -3.4021,0.493 -3.1519,0.743 -5.4702,-1.517 -8.2161,-2.223 -3.628,-0.929 -6.1776,-3.0816 -7.3475,-6.7885 -0.3173,-1.0102 -0.4975,-1.6622 0.4411,-2.4542 1.2855,-1.0857 1.3824,-2.4569 -0.2367,-3.2759 -4.0636,-2.0528 -5.6127,-6.1718 -8.0628,-9.5474 -0.2958,-0.4095 -0.5621,-1.0021 -0.511,-1.4763 0.2716,-2.5646 -1.3393,-3.6126 -3.3402,-4.4235 -0.7423,-0.299 -1.5169,-0.5953 -2.1516,-1.0614 -1.8906,-1.3928 -1.9014,-2.1202 -0.1936,-3.7608 0.3416,-0.3286 0.7019,-0.6358 1.0354,-0.9698 3.0068,-2.9984 3.0149,-3.4779 0.1587,-6.541 -0.0914,-0.0997 -0.2474,-0.1805 -0.2743,-0.2936 -0.6697,-3.0523 -2.684,-2.1983 -4.7307,-1.7915 -1.3527,0.2694 -2.7996,0.0512 -4.2062,0.0512 0.1533,-0.2452 0.3039,-0.493 0.4572,-0.7382 -0.5486,-1.0991 -0.9305,-2.3356 -1.6863,-3.2705 -1.2667,-1.5678 -1.7239,-4.0221 -0.8068,-5.8216 0.2716,-0.5334 0.5998,-1.0857 0.6804,-1.6622 0.4653,-3.3271 0.7154,-6.6891 1.3474,-9.9812 0.3577,-1.8669 1.3098,-3.618 2.052,-5.5684 1.9902,0.6519 3.8701,1.3443 5.7957,1.8696 1.4819,0.4041 3.0095,0.687 4.5344,0.8702 3.5042,0.4256 4.9243,2.0609 5.1475,5.5792 0.0565,0.889 0.8767,1.8696 1.6082,2.5081 0.2797,0.2424 1.3044,-0.3449 1.9714,-0.5981 0.3684,-0.1401 0.7046,-0.5253 1.0596,-0.5307 3.3913,-0.0431 6.8042,-0.2425 10.174,0.0323 2.9449,0.2398 5.6827,0.5927 8.1812,-1.5921 3.0632,-2.6805 6.9145,-3.6746 10.7334,-4.9003 4.451,-1.4279 9.0633,-3.0362 12.8633,-5.6493 4.785,-3.292 9.305,-3.7931 14.641,-2.1309 3.97,1.2365 7.584,2.7586 10.088,6.2203 0.498,0.687 0.839,1.4844 1.24,2.2387 0.715,1.3524 0.083,1.9101 -1.197,2.3222 -0.632,0.2048 -1.549,0.8486 -1.57,1.3309 -0.038,0.8351 0.339,1.8669 0.903,2.4757 0.258,0.2775 1.388,-0.2451 2.117,-0.4283 0.185,-0.0458 0.349,-0.1805 0.691,-0.3637 0.129,0.4849 0.331,0.8944 0.334,1.3066 0.037,5.0404 -0.423,9.8895 -4.82,13.3459 -3.278,2.5781 -6.99,4.111 -11.115,4.2646 -5.32,0.1993 -8.69,2.7586 -10.427,7.6993 -0.753,2.1444 -0.046,4.0167 1.14,5.7139 0.96,1.3713 2.238,2.5189 3.187,3.8955 0.406,0.59 0.681,1.6676 0.412,2.2468 -0.67,1.444 -1.627,2.7721 -2.569,4.0706 -2.385,3.292 -3.082,7.1201 -3.649,11.0075 -0.2476,1.6919 0.314,2.985 1.514,4.173 2.294,2.2713 4.497,4.6313 7.175,7.4083 z"
         fill="#ff5039"
         id="path9" /><path
         d="m 124.915,40.4015 c 0.296,-0.4822 0.54,-1.3362 0.895,-1.3874 1.679,-0.2344 2.303,-1.2339 2.316,-3.0011 4.986,2.4704 9.967,1.3551 14.956,0.8297 1.283,-0.1347 2.751,0.0782 3.924,0.6062 3.741,1.6864 7.455,1.4709 11.26,0.4041 1.356,-0.3799 2.749,-0.6142 4.058,-0.8998 1.149,1.9073 2.19,3.7662 3.36,5.5415 1.137,1.7268 2.614,2.6886 4.819,1.7726 0.479,-0.1993 1.202,-0.0404 1.732,0.1617 1.509,0.5738 2.966,1.2796 4.462,1.8857 1.955,0.7948 2.439,2.0663 2.001,4.1811 -2.233,10.7678 -4.333,21.5652 -6.439,32.3573 -0.301,1.5436 -0.882,3.1977 0.874,4.4343 0.218,0.1535 0.089,1.1691 -0.183,1.5894 -5.532,8.5507 -11.128,17.0612 -16.655,25.6142 -0.699,1.086 -1.461,1.161 -2.552,0.884 -6.53,-1.646 -13.047,-3.344 -19.609,-4.855 -6.331,-1.457 -12.758,-1.964 -19.253,-1.425 -0.536,0.043 -1.264,-0.092 -1.625,-0.436 -3.695,-3.546 -7.393,-7.096 -10.938,-10.7897 -0.683,-0.7139 -1.07,-2.0852 -0.984,-3.1008 0.398,-4.7117 1.676,-9.1433 4.825,-12.8583 0.554,-0.652 0.93,-1.4628 1.345,-2.2252 0.734,-1.347 0.269,-2.2872 -0.783,-3.3675 -1.439,-1.4736 -2.775,-3.1358 -3.781,-4.9273 -1.765,-3.1438 2.033,-9.7414 6.734,-10.0646 1.874,-0.1294 3.741,-0.4796 5.589,-0.8433 5.526,-1.0856 9.913,-3.9251 12.441,-9.0275 1.651,-3.3351 1.619,-7.0743 1.393,-10.7327 -0.081,-1.2824 -0.955,-1.5329 -2.028,-0.8917 -0.508,0.3044 -0.982,0.6681 -1.468,1.0075 -0.226,-0.1455 -0.455,-0.2936 -0.681,-0.4391 z"
         fill="#ff5039"
         id="path10" /><path
         d="m 17.9111,132.842 c 0.9064,-0.366 1.8019,-0.759 2.719,-1.093 1.7562,-0.642 2.6464,-1.935 2.4877,-3.742 -0.4841,-5.574 -0.4141,-11.261 -2.4742,-16.571 -1.1699,-3.012 0.2608,-5.875 0.0322,-8.804 -0.1721,-2.195 -0.4141,-4.3829 -0.6024,-6.5758 -0.0323,-0.3798 -0.0726,-0.8163 0.0753,-1.1422 0.4384,-0.9591 0.9709,-1.875 1.6594,-3.1735 1.8906,0.6007 3.9615,1.2608 6.3282,2.0124 -0.1399,1.4224 -0.2206,2.8744 -0.4357,4.3049 -0.4653,3.1112 -0.3604,6.1452 0.7772,9.1272 0.5486,1.436 1.256,2.161 2.8857,1.546 0.4868,-0.183 1.2721,-0.14 1.6863,0.146 3.6926,2.532 7.6298,2.888 11.7688,1.438 1.7266,-0.603 3.1413,-0.751 4.4967,0.916 1.7293,2.129 2.7836,1.97 4.4349,-0.253 0.3845,-0.517 0.8337,-0.989 1.6674,-1.293 -0.121,0.525 -0.2555,1.045 -0.3631,1.573 -0.6105,2.977 0.7934,4.284 3.7248,3.473 2.1274,-0.587 3.3914,-2.023 3.2381,-3.834 -0.0511,-0.617 -0.2582,-1.401 -0.6831,-1.735 -0.2582,-0.202 -1.0758,0.31 -2.2349,0.698 0.667,-1.15 1.0999,-2.082 1.6997,-2.885 0.9413,-1.261 2.1811,-2.33 2.9449,-3.677 0.6428,-1.137 1.2506,-1.482 2.3909,-0.973 1.2236,0.547 2.4097,1.234 3.6844,1.598 1.2587,0.361 2.6088,0.501 3.9239,0.541 1.0677,0.032 2.1435,-0.226 3.2165,-0.366 2.321,-0.307 4.4402,-0.251 6.4492,1.422 2.5092,2.091 5.7607,2.26 8.8508,2.274 5.4004,0.027 10.8003,-0.253 16.2013,-0.369 3.041,-0.065 4.483,1.336 4.518,4.364 0.04,3.306 0.304,6.649 -1.998,9.496 -0.431,0.534 -0.745,1.444 -0.624,2.088 0.368,1.956 -0.554,2.821 -2.23,3.403 -3.727,1.295 -6.538,3.475 -7.116,7.729 -0.064,0.463 -0.492,0.878 -1.0649,1.848 -1.6379,-3.57 -5.6585,-4.559 -6.4304,-8.435 -0.3227,-1.622 -3.7921,-3.855 -5.4165,-3.427 -2.9664,0.779 -5.8575,1.87 -8.7298,2.969 -2.0654,0.789 -2.208,2.68 -2.0896,4.523 -4.0315,-0.022 -8.2296,-0.838 -10.408,4.033 -0.4545,-0.296 -0.9198,-0.463 -1.1753,-0.795 -0.8579,-1.099 -1.7078,-0.918 -2.8266,-0.342 -1.0757,0.555 -2.3747,0.665 -3.4801,1.177 -1.1376,0.528 -2.208,1.245 -3.2192,1.997 -1.0085,0.748 -1.5625,0.439 -2.0251,-0.569 -0.3658,-0.797 -0.7665,-1.579 -1.1833,-2.352 -1.4685,-2.721 -2.278,-2.78 -5.2121,-1.708 -3.7356,1.366 -7.603,2.379 -11.4488,3.403 -0.3577,0.094 -1.143,-0.73 -1.455,-1.285 -0.796,-1.409 -1.5437,-1.638 -2.5388,-0.372 -0.7718,0.978 -1.1591,2.255 -1.896,3.27 -0.3738,0.515 -1.1054,0.965 -1.7293,1.051 -0.8256,0.113 -1.7024,-0.162 -2.4635,-0.256 -1.0085,-1.538 -1.7481,-3.534 -3.1789,-4.598 -1.2936,-0.965 -3.3429,-0.911 -5.0587,-1.304 -0.0216,-0.162 -0.0458,-0.321 -0.0673,-0.483 z"
         fill="#ff5039"
         id="path5" /><path
         d="m 79.2465,256.032 c -3.819,2.543 -7.5949,5.006 -11.317,7.549 -5.629,3.841 -11.2068,7.758 -16.8492,11.578 -0.7234,0.491 -1.7561,0.941 -2.5576,0.819 -3.7598,-0.565 -7.4873,-1.338 -11.4246,-2.074 0,-0.959 0.078,-1.961 -0.0161,-2.95 -0.2125,-2.265 -0.3819,-4.547 -0.8472,-6.764 -0.1264,-0.598 -1.2022,-1.1 -1.9364,-1.439 -0.6481,-0.299 -1.428,-0.312 -2.6571,-0.552 0.3281,-0.798 0.4545,-1.708 0.9682,-2.242 1.5464,-1.6 1.4415,-2.82 -0.71,-3.273 -1.8342,-0.385 -2.2833,-0.945 -2.0709,-2.89 0.2152,-1.94 -0.0699,-4.106 -0.7584,-5.938 -1.5625,-4.151 1.6809,-7.099 4.8356,-7.255 0.4034,-0.019 0.8283,0.073 1.2102,-0.019 0.8284,-0.199 2.3533,-0.568 2.3344,-0.727 -0.1371,-1.22 0.0027,-2.452 -1.5356,-3.373 -0.9521,-0.571 -1.2345,-2.562 -1.4604,-3.971 -0.2124,-1.328 0.9333,-1.471 2.0251,-1.646 3.5259,-0.568 7.0355,-1.247 10.5452,-1.913 2.0924,-0.396 4.3488,0.477 5.4945,2.263 0.9332,1.458 1.662,3.074 2.7539,4.394 0.6105,0.738 1.7266,1.218 2.7029,1.455 1.8691,0.45 3.437,0.832 4.3729,2.971 0.8418,1.929 2.6975,3.19 5.0992,2.926 1.3689,-0.151 1.7938,0.445 2.0547,1.794 0.2501,1.293 0.8821,2.702 1.7803,3.648 2.4904,2.616 5.2067,5.016 7.9688,7.629 z"
         fill="#ff5039"
         id="path1" /><path
         d="m 23.1021,90.6063 c 0.7046,-2.0555 0.4115,-2.438 -2.1892,-2.3518 -1.0623,0.035 -2.1219,0.097 -3.2811,0.1508 0.2905,-2.2386 0.4788,-4.2968 0.866,-6.3173 0.121,-0.625 0.7342,-1.5868 1.2022,-1.6353 1.5383,-0.1616 2.9261,-0.2397 3.2784,-2.1659 0.0161,-0.0889 0.9601,-0.0835 1.4469,0.0054 1.4038,0.2532 2.0278,-0.2829 2.0063,-1.7161 -0.0377,-2.7047 -0.0189,-5.4095 -0.0323,-8.1169 -0.0081,-1.4709 0.4303,-2.2549 2.173,-2.0124 0.7665,0.1077 1.6218,-0.5819 2.4662,-0.7974 0.8095,-0.2075 1.654,-0.3341 2.4877,-0.3772 1.6029,-0.0862 3.2112,-0.0593 4.8141,-0.132 1.3554,-0.062 2.1246,-0.9321 1.7239,-2.1525 -0.7531,-2.3006 -0.1157,-3.2812 2.2967,-3.1627 0.2959,0.0135 0.6051,-0.2451 0.9763,-0.4068 0.4437,0.59 0.831,1.2069 1.3178,1.7322 1.7893,1.9397 1.7373,3.8434 -0.156,5.7113 -0.1936,0.1885 -0.3873,0.3771 -0.5836,0.563 -2.4258,2.3518 -2.0762,4.5393 1.0139,6.1503 0.6562,0.3422 1.3501,0.6143 2.044,0.8729 1.3178,0.4903 2.1649,1.2257 2.0681,2.826 -0.0403,0.6815 0.2582,1.4628 0.6186,2.0743 1.299,2.2064 2.5334,4.4801 4.0986,6.4871 0.944,1.2123 2.4097,2.0528 3.7249,2.9283 1.3769,0.916 1.783,1.6838 0.3039,2.9365 -0.4411,0.3744 -0.6536,1.4628 -0.468,2.0689 0.9036,2.9553 2.2457,5.6574 5.2121,7.139 0.2904,0.146 0.5136,0.42 0.8498,0.703 -0.6912,1.846 -1.3043,3.629 -3.195,4.696 -0.632,0.355 -1.1215,1.188 -1.3904,1.91 -0.2824,0.754 -0.511,1.781 -0.2017,2.411 0.1963,0.401 1.4173,0.296 2.2268,0.428 0,1.821 -1.775,2.999 -4.7979,2.689 0.0968,-1.172 0.3012,-2.357 0.2501,-3.532 -0.0296,-0.663 -0.4814,-1.304 -0.7449,-1.956 -0.5191,0.321 -1.0758,0.596 -1.5491,0.975 -0.3604,0.291 -0.6159,0.714 -0.9171,1.075 -1.4039,1.676 -1.9929,1.773 -3.2838,0.095 -1.342,-1.749 -2.8615,-2.139 -4.7656,-1.188 -3.2972,1.648 -6.6106,0.482 -9.9212,0.094 -0.234,-0.027 -0.5379,-0.208 -0.6536,-0.404 -1.0703,-1.827 -2.5657,-1.684 -4.3326,-0.8 -1.9337,-3.284 -1.8234,-6.735 -1.385,-10.2267 0.1075,-0.8674 0.2904,-1.7268 0.4114,-2.5916 0.2259,-1.6217 -0.1183,-2.6347 -2.0816,-2.9175 -1.3554,-0.194 -2.6033,-1.1315 -3.9507,-1.7592 z"
         fill="#ff5039"
         id="path8" /><path
         d="m 21.3837,118.718 c -1.9202,0.248 -3.4828,0.264 -4.9351,0.673 -2.8991,0.822 -5.4352,0.159 -7.78847,-1.511 C 8.2352,117.578 7.78338,117.013 7.73497,116.53 7.58436,115.076 7.5494,113.599 7.60857,112.139 7.7538,108.494 5.07784,106.695 2.7784,104.672 2.45298,104.386 1.76449,104.513 1.42294,104.472 0.847403,103.403 0.306833,102.395 0.00292969,101.835 0.360621,99.9382 0.651076,98.3272 0.981873,96.727 1.04642,96.4172 1.25081,96.1236 1.43907,95.8596 c 2.57645,-3.6019 2.71899,-4.5124 1.50607,-8.0173 1.06769,-1.5167 1.80459,-2.8421 2.81312,-3.9009 0.71807,-0.7516 1.80459,-1.1503 3.21922,-2.0016 -0.15868,3.0038 1.29632,3.6207 3.44512,3.9521 1.264,0.1939 2.8051,1.1611 3.4451,2.2414 0.8902,1.5032 1.9149,1.6702 3.3268,1.5247 0.8364,-0.0862 1.6755,-0.1266 2.5227,-0.1885 -1.0408,1.8857 -1.9982,3.5641 -2.8911,5.2775 -0.1641,0.3152 -0.2098,0.8513 -0.0538,1.1503 1.9848,3.7419 0.4115,7.5677 0.3523,11.3577 -0.0215,1.377 0.0807,2.788 0.3685,4.133 0.5217,2.421 1.2263,4.806 1.8879,7.333 z"
         fill="#ff5039"
         id="path7" /><path
         d="m 15.5877,152.029 c -4.0772,0.77 -5.70695,-0.49 -6.86339,-5.218 -0.57285,-2.344 -1.10804,-4.723 -1.98478,-6.959 -1.01391,-2.583 -1.10535,-5.019 -0.0511,-7.578 0.23398,-0.571 0.18826,-1.374 -0.00269,-1.983 -0.79069,-2.519 -0.08875,-4.668 1.46841,-6.627 0.99777,-1.253 1.99555,-2.457 0.64008,-4.318 3.50697,2.987 7.07317,1.285 10.53437,0.757 1.2856,-0.197 1.966,0.094 2.1058,1.4 0.2125,2.016 0.3604,4.039 0.6294,6.046 0.2689,2.009 -0.7181,3.039 -2.5066,3.537 -0.5863,0.164 -1.229,0.218 -1.7427,0.504 -0.4572,0.256 -1.1,0.786 -1.0758,1.161 0.0323,0.56 0.4949,1.177 0.9333,1.603 0.3012,0.291 0.8955,0.463 1.3258,0.409 2.2161,-0.277 3.8809,0.399 4.8329,3.039 -2.1192,3.394 -4.4913,7.117 -6.7746,10.892 -0.6159,1.018 -0.9736,2.193 -1.463,3.332 z"
         fill="#ff5039"
         id="path6" /><path
         fill-rule="evenodd"
         clip-rule="evenodd"
         d="m 1.6990531,223.34575 c -0.17879,0.013 -0.35648,0.026 -0.49677,0.033 h 0.00269 c -0.03227,0.077 -0.06455,0.153 -0.09682,0.23 -0.03227,0.076 -0.06454,0.152 -0.09682,0.228 1.31884,0.817 0.89173,1.539 0.47218,2.249 -0.20072,0.34 -0.39972,0.677 -0.40494,1.019 0.26843,0.599 0.61226,1.178 0.95798,1.761 1.12292,1.892 2.26563,3.818 0.90846,6.545 0.86868,0.073 1.80998,0.132 2.34517,-0.307 0.73151,-0.604 1.42807,-1.504 0.43299,-2.6 -0.25598,-0.282 -0.41025,-0.656 -0.56455,-1.03 -0.07427,-0.18 -0.14856,-0.36 -0.2342,-0.53 -0.7611,-1.517 -1.5222,-3.033 -2.08967,-4.165 -0.01567,-0.205 -0.03043,-0.403 -0.04474,-0.595 -0.08147,-1.092 -0.14799,-1.984 -0.28068,-2.866 -0.00372,-0.03 -0.40978,-10e-4 -0.81028,0.028 z m -0.43429,31.777 c 0.69934,-0.817 1.37695,-1.598 2.03488,-2.356 h 7.3e-4 c 1.64424,-1.894 3.16561,-3.647 4.5964599,-5.47 0.4306,-0.548 0.6428,-1.267 0.8703,-2.038 0.1092,-0.37 0.2219,-0.752 0.3641,-1.133 0.1051,0.041 0.282,0.112 0.5786001,0.231 0.2803,0.112 0.6673999,0.267 1.2017999,0.48 -0.1235,-0.424 -0.2086,-0.809 -0.2851,-1.154 -0.1449,-0.655 -0.259,-1.17 -0.5459,-1.556 -1.2398,-1.67 -1.1053,-3.502 -0.5754999,-5.229 l 0.0489,-0.159 c 0.4363,-1.416 0.8211999,-2.665 -0.2211001,-3.982 -0.1586,-0.199 -0.0215,-0.633 -0.0215,-0.614 3.9508,0.027 7.5546,-0.835 10.9217,-2.54 0.4533,-0.23 0.6889,-0.888 0.9197,-1.533 0.1047,-0.292 0.2083,-0.582 0.3309,-0.827 0.3478,0.28 0.6993,0.567 1.0545,0.857 l 0.0025,0.002 c 0.8166,0.666 1.6524,1.348 2.5064,2.007 1.767,1.366 2.286,1.094 3.7383,-0.614 0.7823,-0.923 1.7811,-1.66 2.8461,-2.446 h 3e-4 c 0.4873,-0.36 0.9884,-0.729 1.4889,-1.132 l 0.9079,1.416 1.8595,2.9 c -0.2934,0.079 -0.5291,0.148 -0.7289,0.207 l -10e-4,0.001 c -0.3455,0.101 -0.5837,0.172 -0.8272,0.204 -2.5496,0.353 -3.6576,1.732 -2.9207,4.168 0.1057,0.349 0.1623,0.74 0.22,1.139 0.189,1.305 0.3887,2.684 2.3564,2.891 0.1275,0.012 0.2166,0.393 0.3255,0.858 0.0564,0.241 0.1183,0.505 0.1936,0.753 -2.7271,-0.21 -4.9996,-0.008 -6.936,1.902 -1.8422,1.818 -2.2725,3.445 -1.6755,6.077 0.5244,2.309 0.6858,4.747 0.6347,7.121 -0.0323,1.549 0.5002,2.268 1.8288,2.656 0.5101,0.148 1.0228,0.288 1.4025,0.392 0.1588,0.043 0.2944,0.08 0.3967,0.109 -0.1523,0.442 -0.3038,0.863 -0.4501,1.269 -0.3882,1.078 -0.7394,2.053 -0.9699,3.055 -0.0699,0.307 0.6374,1.131 1.0112,1.15 1.9633,0.092 3.23,0.391 3.5958,2.907 0.0501,0.344 0.1082,0.707 0.1683,1.084 0.3364,2.107 0.7372,4.617 0.1759,6.324 -3.429,0.016 -6.1426,-1.358 -8.4931,-3.863 -1.4466,-1.543 -3.2693,-2.759 -5.0449,-3.944 l -0.0408,-0.027 c -0.5276,-0.353 -1.4068,-0.28 -2.1436,-0.218 l -0.1316,0.011 c -3.0471,0.253 -5.5456,-1.711 -5.7957,-4.817 -0.1103,-1.382 -0.2932,-2.287 -1.9713,-2.427 -0.3007999,-0.026 -0.5501999,-0.376 -0.8143,-0.747 -0.2341,-0.329 -0.4799,-0.675 -0.7833,-0.824 -1.2685099,-0.625 -2.6089299,-1.108 -3.9452899,-1.59 -0.11745,-0.042 -0.23488,-0.084 -0.35222,-0.127 -0.11847,-0.042 -0.23687,-0.085 -0.35512,-0.128 -0.44278,-0.162 -0.90424,-0.272 -1.50189,-0.414 h -3e-4 c -0.30977,-0.074 -0.65613,-0.157 -1.05543,-0.26 z m 7.3066699,-11.824 -0.0015,-0.002 c 0.0901,-0.088 0.1807,-0.176 0.2714,-0.264 0.1254,-0.121 0.2509,-0.243 0.3755,-0.365 -1.61361,-2.354 -1.26398,-4.736 -0.3684,-7.163 0.1142,-0.31 0.0417,-0.691 -0.0299,-1.069 -0.0279,-0.147 -0.0557,-0.293 -0.0723,-0.434 -0.1237,-1.027 -0.2528,-2.053 -0.4007,-3.077 -0.0796,-0.548 -0.1752,-1.094 -0.2709,-1.64 v -0.001 c -0.0401,-0.228 -0.0802,-0.457 -0.1191,-0.686 -0.8848099,0.156 -1.7723099,0.312 -2.7996699,0.493 0.17428,0.357 0.31688,0.667 0.44375,0.943 h 2e-4 c 0.23524,0.511 0.41642,0.904 0.64526,1.268 1.4228499,2.269 1.09018,2.81 -0.248,4.987 l -0.05321,0.086 c -0.71,1.161 -0.39534,3.241 0.0511,4.723 0.18945,0.629 0.9176,1.094 1.6459099,1.56 0.32572,0.208 0.65146,0.417 0.92906,0.639 l -0.0012,0.002 z"
         fill="#ff5039"
         id="path2" /><path
         fill-rule="evenodd"
         clip-rule="evenodd"
         d="m 114.917,231.981 c 0.004,-0.002 0.007,-0.004 0.01,-0.006 l -0.008,0.008 c -10e-4,0 -10e-4,-0.001 -0.002,-0.002 z m 0,0 c -0.08,-0.153 -0.134,-0.27 -0.176,-0.359 -0.066,-0.143 -0.101,-0.217 -0.159,-0.261 -1.259,-0.985 -2.516,-1.975 -3.772,-2.965 -3.404,-2.683 -6.809,-5.366 -10.291,-7.946 -0.255,-0.189 -0.512,-0.381 -0.7692,-0.573 -2.1754,-1.626 -4.4275,-3.309 -6.914,-4.133 -4.8974,-1.622 -8.4635,-4.693 -10.5747,-9.063 -1.4334,-2.966 -3.4801,-5.016 -5.8468,-7.004 -0.115,-0.097 -0.2301,-0.193 -0.3451,-0.29 -3.0816,-2.587 -6.1619,-5.174 -8.07,-8.872 -0.2985,-0.579 -1.1538,-1.056 -1.8369,-1.215 -3.8136,-0.881 -6.9871,-2.775 -9.3672,-5.87 -1.9283,-2.506 -3.7409,-5.103 -5.524,-7.716 -0.7315,-1.075 -1.4496,-1.22 -2.5119,-0.547 -1.7212,1.091 -3.5662,1.091 -5.4246,0.391 -1.7266,-0.652 -3.2837,-0.183 -4.4724,1.008 -0.0679,0.068 -0.136,0.136 -0.2042,0.204 -1.5013,1.502 -3.0617,3.063 -4.029,4.898 l -0.0151,0.029 c -0.996,1.891 -1.7911,3.401 -4.2476,2.915 -0.2044,-0.04 -0.5271,0.17 -0.6965,0.353 -0.3668,0.402 -0.7453,0.797 -1.124,1.191 -0.979,1.021 -1.9592,2.042 -2.7407,3.198 -1.6863,2.497 -1.4308,2.969 1.4684,3.871 1.1753,0.364 2.286,0.773 1.81,2.336 -0.4303,1.406 -1.5626,1.648 -2.7701,1.236 -0.3063,-0.104 -0.6109,-0.22 -0.9147,-0.335 -1.6998,-0.643 -3.3756,-1.277 -5.1849,0.025 -0.1602,0.118 -0.4914,0.044 -0.7452,-0.012 l -0.0428,-0.009 c -2.1596,-0.472 -4.2492,0.304 -5.4057,2.042 -1.0722,1.613 -2.1396,3.229 -3.2316,4.883 -0.5295,0.802 -1.06481,1.613 -1.60931,2.436 0.52825,0.235 1.01231,0.439 1.46351,0.63 0.9248,0.392 1.712,0.725 2.4603,1.132 1.9741,1.075 2.1489,2.595 0.355,3.942 -0.7451,0.558 -1.6261,0.937 -2.3445,1.245 -0.2824,0.122 -0.5397,0.232 -0.7537,0.339 -0.1806,0.44 -0.3343,0.857 -0.48007,1.253 -0.30144,0.818 -0.56887,1.544 -0.96948,2.187 -0.38353,0.618 -0.83544,1.197 -1.28646,1.776 -0.61478,0.789 -1.22789,1.575 -1.66382,2.453 -0.29583,0.596 0.13716,2.05 0.71001,2.482 0.08599,0.064 0.17181,0.127 0.2566,0.19 0.98926,0.728 1.83843,1.353 1.17954,3.018 2.28868,-0.259 3.70868,0.348 3.91308,2.775 0.035,0.401 1.4819,1.018 2.2268,0.953 1.3609,-0.118 2.7378,-0.538 4.0072,-1.074 0.3657,-0.156 0.7851,-0.24 1.2077,-0.325 1.1907,-0.24 2.4059,-0.484 2.5091,-2.332 0.0258,-0.437 0.2892,-0.862 0.5528,-1.288 0.121,-0.195 0.242,-0.39 0.3401,-0.587 0.188,0.113 0.381,0.218 0.574,0.324 0.4224,0.231 0.8443,0.462 1.2118,0.762 1.0453,0.85 2.0627,1.734 2.9915,2.541 0.3281,0.285 0.6451,0.56 0.9484,0.821 0.5647,-0.468 1.0877,-0.913 1.5858,-1.336 1.0345,-0.879 1.9622,-1.667 2.9351,-2.392 2.278,-1.7 2.3129,-1.665 3.9777,0.751 0.1929,0.281 0.3722,0.574 0.5513,0.866 0.3103,0.505 0.6202,1.011 1.0004,1.456 0.2744,0.321 0.8795,0.58 1.291,0.526 1.489,-0.199 2.967,-0.476 4.4446,-0.754 0.3078,-0.058 0.6156,-0.116 0.9234,-0.173 4.5666,-0.846 6.2367,0.075 8.8535,3.769 0.284,0.401 0.5362,0.85 0.7919,1.305 0.8874,1.581 1.8173,3.237 4.2642,3.207 1.974,-0.024 3.2945,1.116 4.0368,3.08 0.6186,1.643 2.0386,2.403 3.8539,2.403 2.4528,-0.003 3.1789,0.781 3.5985,3.114 0.1882,1.056 0.6562,2.249 1.3931,2.979 1.2362,1.228 2.5483,2.379 3.8609,3.531 1.0203,0.895 2.041,1.79 3.0266,2.722 1.0113,0.956 1.7374,0.803 2.8024,0.078 6.784,-4.625 13.605,-9.193 20.4293,-13.762 l 0.215,-0.144 c 2.914,-1.953 5.841,-3.889 8.795,-5.842 1.228,-0.812 2.46,-1.626 3.698,-2.447 z M 26.4855,209.594 c 1.6217,-0.159 2.2107,1.263 2.1865,2.473 0.0108,3.168 -1.7669,4.423 -4.5182,3.526 -0.0432,-0.014 -0.0878,-0.029 -0.1332,-0.045 -0.2199,-0.075 -0.4582,-0.157 -0.6521,-0.106 -1.6336,0.432 -2.0391,-0.557 -2.444,-1.545 -0.2117,-0.517 -0.4233,-1.033 -0.8102,-1.345 -0.0672,-0.054 0.4088,-1.199 0.8122,-1.347 0.2301,-0.084 0.4608,-0.17 0.6921,-0.256 1.5936,-0.591 3.2159,-1.193 4.8669,-1.355 z m -3.887,2.116 c -0.4964,0.13 -1.0167,0.266 -1.5702,0.408 l 0.0027,0.003 c 0.4998,0.336 0.9502,0.652 1.3696,0.945 0.9801,0.686 1.7906,1.254 2.6645,1.697 0.4088,0.208 1.498,-0.072 1.6728,-0.425 0.4061,-0.83 0.5245,-1.835 0.5836,-2.78 0.0162,-0.251 -0.6589,-0.817 -0.9224,-0.766 -1.2157,0.24 -2.4153,0.555 -3.8006,0.918 z"
         fill="#ff5039"
         id="path3" /></g></g></svg>
