<?xml version="1.0" encoding="UTF-8" standalone="no"?>
<!-- Created with Inkscape (http://www.inkscape.org/) -->

<svg
   width="210mm"
   height="297mm"
   viewBox="0 0 210 297"
   version="1.1"
   id="svg1"
   xml:space="preserve"
   inkscape:export-filename="비트맵.svg"
   inkscape:export-xdpi="96"
   inkscape:export-ydpi="96"
   sodipodi:docname="비트맵.svg"
   xmlns:inkscape="http://www.inkscape.org/namespaces/inkscape"
   xmlns:sodipodi="http://sodipodi.sourceforge.net/DTD/sodipodi-0.dtd"
   xmlns="http://www.w3.org/2000/svg"
   xmlns:svg="http://www.w3.org/2000/svg"><sodipodi:namedview
     id="namedview1"
     pagecolor="#ffffff"
     bordercolor="#000000"
     borderopacity="0.25"
     inkscape:showpageshadow="2"
     inkscape:pageopacity="0.0"
     inkscape:pagecheckerboard="0"
     inkscape:deskcolor="#d1d1d1"
     inkscape:document-units="mm"
     inkscape:zoom="0.71872104"
     inkscape:cx="526.62992"
     inkscape:cy="537.06512"
     inkscape:window-width="1312"
     inkscape:window-height="449"
     inkscape:window-x="252"
     inkscape:window-y="41"
     inkscape:window-maximized="0"
     inkscape:current-layer="g1" /><defs
     id="defs1" /><g
     inkscape:label="Layer 1"
     inkscape:groupmode="layer"
     id="layer1"><g
       style="fill:none"
       id="g1"
       transform="matrix(0.26458333,0,0,0.26458333,59.045152,117.4115)"><path
         d="m 174.863,164.339 c 1.765,4.967 1.369,5.676 -3.721,6.693 -2.608,0.519 -4.405,1.477 -4.037,4.764 0.369,3.307 -2.891,4.915 -4.339,7.395 -0.481,0.82 -1.699,0.177 -2.338,-0.84 -0.751,-1.194 -1.679,-2.277 -2.621,-3.333 -0.823,-0.925 -1.916,-1.267 -2.878,-0.309 -0.994,0.991 -0.421,2.061 0.382,2.881 0.995,1.011 2.075,1.936 3.168,2.841 1.699,1.405 1.672,3.032 0.461,4.613 -1.719,2.251 -2.812,5.04 -6.889,4.41 -1.718,-0.263 -3.055,2.769 -4.26,4.56 -0.283,0.42 -0.343,0.991 -0.527,1.555 -2.515,-0.551 -1.528,-3.379 -3.464,-4.888 -0.283,4.127 -2.561,7.835 1.745,11.109 1.265,0.958 0.389,3.392 -0.375,5.21 -0.105,-2.769 -1.64,-4.324 -4.076,-4.974 -2.931,-0.781 -5.802,-0.564 -8.528,0.919 -1.627,0.879 -2.661,3.294 -5.288,1.588 -1.014,-0.656 -1.008,1.581 -2.285,1.863 -3.55,0.788 -9.713,-3.254 -9.983,-6.817 -0.145,-1.87 1.363,-1.746 2.509,-1.608 2.93,0.354 4.3,-0.564 3.147,-3.596 -0.493,-1.299 0.58,-1.443 1.146,-1.975 1.943,-1.818 4.735,-3.012 4.557,-6.352 -0.026,-0.492 0.316,-0.872 0.79,-0.866 4.268,0.059 3.379,-4.18 5.17,-6.181 0.204,-0.23 0.191,-1.07 0.033,-1.155 -2.713,-1.398 -0.817,-3.832 -1.219,-5.715 -0.507,-2.376 2.035,-2.717 3.477,-2.992 1.574,-0.302 1.107,1.397 1.087,2.414 -0.013,0.676 -0.046,1.483 0.724,1.621 0.791,0.138 0.896,-0.696 1.153,-1.286 0.573,-1.299 3.319,-1.463 4.28,-0.42 1.047,1.135 2.094,2.71 3.681,0.322 1.179,-1.772 1.89,-0.591 2.384,0.728 0.231,0.61 0.106,2.159 1.001,1.516 1.646,-1.181 3.694,0.452 4.919,-0.932 0.751,-0.847 -0.467,-1.608 -1.165,-1.962 -2.628,-1.345 -2.345,-3.379 -1.68,-5.689 1.219,-4.219 0.778,-4.639 -3.226,-6.509 -1.851,-0.867 -3.043,-2.481 -3.866,-4.791 -0.942,-2.664 -0.599,-4.717 0.211,-7.073 0.244,-0.702 0,-1.549 -0.665,-2.08 -0.711,-0.565 -1.113,-0.059 -1.594,0.459 -1.304,1.417 -1.784,0.348 -2.239,-0.787 -0.283,-0.702 -0.461,-1.785 -0.974,-2.002 -5.17,-2.152 -2.411,-5.872 -1.798,-9.048 0.461,-2.409 0.191,-4.528 -0.995,-6.667 -0.724,-1.306 -1.02,-1.982 -2.502,-0.584 -1.547,1.457 -2.193,0.111 -2.45,-1.372 l -0.098,0.04 c 0.5,-0.164 1.264,-0.184 1.462,-0.525 1.369,-2.343 2.765,-2.297 5.34,-1.358 2.43,0.885 5.479,0.164 8.245,0 0.81,-0.046 1.139,-0.978 1.297,-1.733 0.178,-0.846 0.204,-1.732 0.836,-2.421 2.312,2.428 5.749,2.238 8.607,3.858 -0.77,1.424 -0.191,2.763 0.6,4.285 1.112,2.146 1.666,4.567 2.528,6.838 0.725,1.909 1.35,2.742 3.49,3.005 5.302,0.636 5.269,0.8 5.848,6.404 0.079,0.748 0.349,1.483 0.501,2.225 0.223,1.102 0.902,1.542 1.988,1.837 4.103,1.115 5.769,3.707 5.4,8.097 -3.753,1.312 -3.786,1.391 -2.094,4.81 z"
         fill="#ff5039"
         id="path13" /><path
         d="m 253.972,87.7773 c 2.491,-1.7114 4.436,-7.4333 3.363,-10.0134 -0.195,-0.4703 -0.722,-1.2672 -0.859,-1.2215 -3.167,1.0908 -3.251,-1.7767 -4.559,-3.279 -0.995,-1.1431 -2.699,-1.6918 -4.116,-2.4429 -1.743,-0.9145 -2.036,-1.8355 -1.652,-4.0759 0.644,-3.7298 2.718,-4.5854 5.671,-6.2053 3.609,-1.9792 8.311,-1.7179 11.108,-5.4346 0.5,-0.6597 2.516,-0.9014 3.362,-0.4441 3.258,1.7505 7.069,2.3906 9.976,4.729 1.145,0.921 1.73,0.6794 2.335,-0.1894 1.717,-2.4625 3.882,-3.8473 7.01,-3.7232 1.555,0.0654 2.186,-1.6199 3.285,-2.4429 1.404,-1.0516 2.003,-1.8158 3.876,0.3658 3.004,3.4946 4.494,8.3608 9.28,10.451 3.096,1.3521 1.509,4.6703 1.762,7.1525 0.443,4.3829 -1.677,8.5567 -1.053,12.9984 0.254,1.7898 -1.353,0.9929 -2.068,0.921 -2.335,-0.2351 -5.034,-1.1431 -3.447,3.0504 0.072,0.1894 -0.195,0.6075 -0.41,0.8034 -3.05,2.7434 -3.499,7.0218 -5.931,10.131 -1.522,0.6728 -2.478,2.7954 -4.643,1.8224 -2.27,0.065 -4.501,0.131 -3.805,3.508 0.163,0.783 -0.435,1.9 -1.17,1.437 -2.803,-1.79 -4.045,-0.19 -4.923,2.325 -0.956,-1.071 -0.657,-2.391 -1.808,-2.985 -2.446,-1.267 -3.389,-4.037 -4.624,-6.0813 -1.307,-2.1686 -2.426,-2.3972 -4.26,-2.0314 -4.325,0.8622 -8.058,-0.111 -11.179,-3.2986 -0.969,-0.9928 -1.867,-2.1294 -3.512,-1.9988 -0.963,0.0784 -1.385,-0.6401 -1.379,-1.45 0,-1.0321 0.579,-1.5024 1.698,-1.3848 1.079,0.111 2.152,-0.0327 2.803,-1.117 l -0.124,0.1176 z"
         fill="#ff5039"
         id="path24" /><path
         d="m 249.366,132.241 c 0.217,2.125 1.263,4.051 1.026,6.341 -0.171,1.643 -0.783,2.032 -1.955,1.524 -3.251,-1.399 -6.397,0 -9.59,0.047 -1.553,0.019 -1.994,2.896 -3.956,1.346 l 0.125,0.118 c -0.875,-2.184 -1.955,-0.976 -2.955,-0.145 -2.212,1.835 -4.483,2.052 -6.938,0.462 -0.796,-0.515 -2.073,-1.577 -2.626,-0.871 -2.37,3.029 -4.766,0.238 -7.083,0.191 -2.027,-0.046 -3.409,-1.101 -1.513,-3.398 1.099,-1.333 1.217,-2.982 0.888,-4.685 -0.875,-4.519 0,-6.374 3.969,-8.558 4.384,-2.415 4.529,-2.454 3.265,-7.403 -0.764,-2.976 -0.922,-5.246 2.672,-6.302 0.915,-0.27 2.238,-0.989 2.074,-2.203 -0.132,-0.97 -1.448,-0.7 -2.251,-0.977 -0.678,-0.231 -1.738,-0.191 -1.712,-1.174 0.033,-1.076 0.994,-1.399 1.916,-1.347 2.415,0.132 4.838,-0.758 7.247,0.865 2.08,1.405 3.791,0.422 4.298,-2.112 0.257,-1.286 0.369,-2.606 0.527,-3.913 0.164,-1.372 0.598,-2.5135 2.007,-3.1337 1.902,-0.838 3.673,-1.9136 5.424,-3.0617 2.396,-1.5704 7.938,-0.838 9.998,1.1283 2.297,2.1841 4.858,3.7149 8.142,3.6093 2.857,-0.0857 5.74,-1.2734 7.649,2.6068 1.251,2.533 3.712,4.566 5.095,7.152 0.776,1.459 1.737,1.67 2.376,0.548 2.185,-3.847 4.476,-1.947 6.826,-0.396 0.842,0.554 1.132,0.073 1.382,-0.614 l -0.132,0.047 c 0.955,0.277 1.093,0.937 0.816,1.775 -0.862,2.586 -1.263,4.869 1.139,7.205 0.836,0.812 0.448,3.444 -0.105,4.982 -0.468,1.306 -1.896,0 -2.896,-0.086 -2.35,-0.198 -3.232,0.891 -2.166,3.134 0.599,1.267 0.777,2.475 -0.191,3.273 -2.113,1.755 -4.588,2.415 -7.359,1.63 -1.882,-0.535 -1.224,-2.257 -1.54,-3.405 -0.402,-1.438 -0.606,-3.233 -2.238,-3.18 -2.962,0.099 -5.871,-1.577 -8.86,-0.146 -1.737,0.832 -3.508,0.944 -5.377,0.113 -2.995,-1.32 -5.733,0.594 -8.347,1.405 -2.073,0.647 0.02,2.758 0.244,4.23 0.053,0.369 -0.369,0.785 -0.454,1.207 -0.211,1.096 0.112,1.94 1.257,2.31 l -0.112,-0.152 z"
         fill="#ff5039"
         id="path20" /><path
         d="m 103.411,39.4415 c 2.408,-1.1129 3.465,-3.5837 3.799,-5.6902 0.42,-2.643 2.192,-4.3984 2.966,-6.7103 0.151,-0.4504 0.834,-1.1195 1.155,-1.0532 2.612,0.4902 3.13,-1.4772 3.865,-3.7692 1.922,2.5901 3.714,2.5702 5.459,0.3577 0.243,-0.3047 0.761,-0.3908 1.148,-0.5763 0.538,3.9613 6.647,0.1457 6.713,4.9085 0.013,0.7684 0.498,1.7819 1.66,1.6693 0.846,-0.0861 1.463,-0.6425 1.509,-1.497 0.203,-4.2594 4.783,-1.7025 6.168,-4.0805 0.354,0.2252 1.03,0.457 1.023,0.669 -0.098,3.5969 5.072,6.5778 1.063,10.7378 -1.214,1.2586 0.013,2.8352 1.385,3.8354 1.227,0.9009 2.742,1.7091 0.866,3.544 -1.175,1.1459 0.61,1.5434 0.905,2.3317 l 0.013,-0.159 c 0.716,2.345 2.382,4.935 1.87,6.9554 -0.511,2.0137 -0.944,4.1799 -1.679,6.1804 -0.473,1.2917 -0.407,1.8945 0.846,2.6033 2.553,1.4507 4.606,6.1538 3.589,8.7373 -0.702,1.7753 -0.656,3.3783 -0.321,5.1072 -0.965,1.1791 -1.923,2.3649 -2.887,3.544 -1.24,0 -1.903,0.9936 -1.956,1.868 -0.17,2.7623 -2.342,3.2723 -4.186,3.7758 -2.086,0.563 -4.212,0.5034 -4.18,-2.7822 0.014,-1.2652 -0.682,-2.5172 -0.925,-3.8023 -0.479,-2.5105 -1.607,-2.9742 -3.497,-1.2387 -0.905,0.828 -1.837,1.7223 -3.13,1.4971 -4.199,-0.7419 -8.366,0.2252 -12.559,0.1258 -5.216,-0.1192 -7.217,-3.0073 -4.881,-7.8033 1.614,-3.3187 0.111,-6.2731 -3.176,-6.2399 l 0.105,0.1126 c -0.033,-1.3779 -1.03,-2.08 -1.923,-2.8816 -2.408,-2.1528 -2.355,-5.3523 -2.099,-7.9357 0.216,-2.2191 0.695,-4.4515 0.689,-6.7501 -0.007,-1.9276 -0.499,-3.9546 0.728,-5.7365 l -0.118,0.1192 z"
         fill="#ff5039"
         id="path12" /><path
         d="m 242.03,64.7506 c 1.112,0.0937 2.205,-1.4058 3.045,-0.6293 0.954,0.8904 0.272,2.2226 -0.258,3.374 -0.781,1.7004 0.311,2.8184 1.602,3.5414 2.589,1.446 5.177,2.8049 6.581,5.6903 0.291,0.5958 1.218,1.225 1.853,1.225 3.092,0.0067 2.039,3.1933 1.689,3.4276 -2.589,1.7205 -1.179,4.7999 -2.589,6.8015 l 0.126,-0.1205 c -2.224,0.5021 -5.813,-1.2451 -5.468,3.4811 0.066,0.8904 -0.98,0.9641 -1.51,0.8502 -3.489,-0.7765 -5.13,2.6443 -7.924,3.4611 -3.886,1.1313 -3.542,4.525 -3.787,7.638 -0.159,1.989 -1.198,3.261 -3.31,2.015 -1.847,-1.091 -3.912,-1.332 -5.885,-1.948 -0.186,-0.81 -0.914,-1.057 -1.503,-1.051 -5.674,0.114 -8.282,-4.0901 -11.201,-7.9461 -1.53,-2.015 -3.138,-4.03 -5.621,-4.9739 -2.198,-0.8301 -2.463,-2.5238 -2.165,-4.5656 0.662,-4.5255 -1.966,-8.2744 -6.686,-9.5932 -0.146,-2.8317 1.198,-6.1187 -2.397,-7.9329 -0.291,-0.1473 -0.357,-1.0041 -0.324,-1.5196 0.079,-1.1582 -0.457,-1.6335 -1.516,-1.687 -1.423,-0.067 -1.94,-0.8971 -1.741,-2.2226 0.205,-1.3389 0.781,-2.0351 2.363,-2.1422 2.158,-0.1406 4.244,-0.395 6.462,-0.1607 2.846,0.3013 5.726,-0.328 7.725,-2.825 1.794,-2.236 3.833,-2.4703 6.673,-2.0485 2.993,0.4418 6.118,1.6067 9.447,-0.5423 1.523,-0.984 4.621,0.4954 7.044,-0.0803 0.212,-0.0536 0.828,0.7766 0.934,1.2653 0.708,3.2802 2.946,5.7505 4.362,8.6425 1.245,2.5372 2.516,2.4167 4.105,0.4351 l -0.132,0.1205 z"
         fill="#ff5039"
         id="path21" /><path
         d="m 295,142.268 c -0.571,0.48 -1.286,0.86 -1.686,1.46 -0.807,1.206 -2.874,-1.4 -3.228,1.313 -0.341,2.587 0.38,4.393 2.545,5.693 1.037,0.62 2.317,1.267 1.372,2.787 -1.693,2.733 -1.221,7.926 -5.321,7.746 -3.15,-0.14 -5.557,0.42 -7.808,2.08 -1.68,1.24 -3.103,1.853 -5.327,1.84 -3.117,-0.02 -6.188,1.14 -8.412,3.787 -0.99,1.18 -2.158,2.199 -3.254,3.279 -2.113,2.08 -4.125,2.236 -6.036,0.467 -0.991,0.833 0.262,2.493 -1.385,3.28 -0.196,-3.16 -2.348,-4.453 -4.868,-5.606 -2.946,-1.354 -4.258,-4.78 -2.893,-7.7 0.787,-1.693 0.846,-2.753 -0.814,-3.707 -3.405,-1.946 -4.324,-5.306 -4.842,-8.886 -0.256,-1.787 -0.236,-3.213 -3.077,-2.853 -2.178,0.28 -2.664,-2.687 -2.939,-4.507 -0.236,-1.54 1.128,-1.986 2.755,-2.38 2.986,-0.72 5.774,-0.58 8.648,0.147 1.647,0.42 2.467,-0.147 2.493,-1.967 0.039,-2.553 0.256,-5.113 -1.968,-6.993 l 0.111,0.153 c -0.61,-2.079 0.774,-4.426 -0.826,-6.413 -0.191,-0.233 0.124,-0.933 0.642,-0.933 2.907,0.02 5.65,-2.673 8.707,-0.52 0.617,0.433 1.45,0.393 2.218,0.14 2.408,-0.793 4.966,-0.56 7.295,-0.813 4.482,-0.494 4.659,1.82 5.131,4.7 0.25,1.526 0.643,1.953 2.474,2.433 3.005,0.787 5.393,-1.76 8.142,-0.62 0.079,0.08 0.164,0.16 0.243,0.24 0.774,1.433 1.62,2.826 2.296,4.3 1.03,2.26 2.283,3.453 5.131,3.593 1.837,0.087 5.045,0.973 4.369,4.573 l 0.099,-0.12 z"
         fill="#ff5039"
         id="path23" /><path
         d="m 283.782,130.363 c -0.078,-0.079 -0.162,-0.158 -0.24,-0.237 -1.105,-1.755 1.468,-3.45 0.058,-5.245 -0.455,-0.578 -0.923,-1.321 -0.299,-2.076 0.637,-0.776 1.384,-0.296 2.073,-0.033 1.306,0.506 2.873,0.782 3.275,-0.822 0.436,-1.695 0.884,-4.456 0.007,-5.231 -2.957,-2.616 -1.54,-5.245 -1.04,-8.064 0.358,-2.005 -0.65,-1.979 -1.923,-0.901 l 0.13,-0.046 c -2.977,-3.207 -2.951,-3.365 0.961,-6.572 2.164,0.979 3.12,-1.1568 4.64,-1.8338 1.852,-0.8544 3.308,-2.0242 3.152,-4.3574 -0.078,-1.137 0.851,-1.6693 1.313,-2.4843 0.987,-1.7548 3.723,-2.6749 2.372,-5.6127 -0.436,-0.9464 0.922,-0.8281 1.611,-0.8281 1.599,0 3.191,0.0394 4.789,0.0592 L 304.545,86 c 1.429,2.1951 4.834,3.6476 2.443,7.2689 -0.448,0.6835 0.572,1.7811 1.443,1.7942 4.224,0.046 3.86,3.2533 4.126,5.9809 0.124,1.295 -0.097,2.635 1.202,3.483 l -0.091,-0.118 c -0.065,2.32 -0.39,4.798 2.977,5.061 0.208,0.013 0.571,0.131 0.578,0.223 0.377,5.343 6.537,5.192 8.441,9.103 0.507,1.031 1.716,0.709 2.645,0.86 1.085,0.178 1.722,0.704 1.69,1.959 -0.026,1.032 0.019,1.853 -1.352,2.097 -1.533,0.269 -2.242,1.465 -2.612,2.977 -0.637,2.616 -2.379,4.193 -4.933,4.85 -2.963,0.762 -4.256,2.248 -4.295,5.738 -0.032,2.937 0.897,5.842 0.169,8.82 -0.513,2.083 -0.5,3.766 -3.646,3.397 -2.794,-0.328 -5.744,0.599 -8.617,1.026 -0.5,0.072 -1.234,0.296 -1.397,0.664 -1.696,3.726 -5.744,3.765 -8.461,5.816 -0.961,-0.854 -0.247,-1.551 0.078,-2.09 1.248,-2.051 1.118,-3.424 -1.169,-4.778 -3.107,-1.847 -2.899,-3.523 0.344,-5.291 0.949,-0.519 1.501,-1.216 1.462,-2.326 l -0.097,0.118 c 1.228,-0.697 1.871,-2.195 0.949,-2.911 -1.593,-1.229 -3.451,-2.965 -5.446,-2.702 -2.327,0.309 -3.061,-0.815 -3.919,-2.392 -0.864,-1.59 -1.436,-3.444 -3.275,-4.285 z"
         fill="#ff5039"
         id="path26" /><path
         d="m 131.279,128.954 c -1.774,-0.789 -0.848,-3.44 -2.766,-4.091 -1.571,-0.526 -3.102,-0.836 -4.679,0.263 -1.59,1.105 -3.028,0.177 -2.989,-1.927 0.02,-0.921 -0.138,-1.783 -1.058,-1.533 -4.422,1.224 -5.867,-3.045 -8.686,-4.696 -1.32,-0.776 -2.004,-2.552 -4.047,-1.868 -0.808,0.27 -1.754,-0.447 -1.84,-1.053 -0.282,-1.914 -2.221,-3.486 -2.155,-4.867 0.178,-3.631 -0.604,-7.439 0.808,-10.9118 0.933,-2.2955 2.602,-3.7952 5.46,-2.4008 1.393,0.6775 2.609,-0.0197 3.305,-1.2892 1.045,-1.9074 -0.289,-7.6495 -2.017,-9.1097 l -0.007,0.0986 c -0.827,-1.4667 0.618,-2.4139 0.861,-3.6439 0.959,-4.841 1.656,-4.8147 6.452,-4.7489 4.238,0.0592 8.85,1.276 12.753,-1.7693 0.854,-0.6643 1.623,-0.5657 1.932,0.6709 0.236,0.9537 0.611,1.8746 0.775,2.8414 0.821,4.8739 2.365,5.7356 6.991,3.9597 0.999,-0.3815 2.214,-1.6181 3.18,-0.1776 0.795,1.1905 2.227,2.4336 1.255,4.1109 -1.097,1.8811 -0.368,3.2492 0.769,4.7357 1.156,1.5063 2.529,3.0388 1.484,5.2094 -3.324,1.1379 -1.432,3.9796 -0.933,5.1966 2.077,5.084 6.577,9.057 6.873,15.009 0,0.106 -0.033,0.211 -0.072,0.408 -1.052,0.717 -2.95,-0.197 -3.542,1.638 -0.67,2.085 -2.608,3.565 -2.838,5.847 -0.138,1.322 -0.874,1.789 -1.997,1.368 -2.924,-1.098 -6.203,1.414 -9.061,-1.039 -0.67,-0.579 -1.807,0.257 -2.391,1.204 -0.565,0.914 -1.268,1.743 -1.912,2.611 l 0.098,-0.039 z"
         fill="#ff5039"
         id="path11" /><path
         d="m 175.167,163.864 c -1.69,-3.413 -1.657,-3.485 2.091,-4.793 1.309,-0.994 1.881,-2.602 0.967,-3.707 -1.657,-2.008 -1.907,-5.715 -5.912,-5.244 -1.48,0.176 -1.493,-1.236 -1.842,-2.249 -0.637,-1.87 0.106,-3.91 -0.854,-5.741 -0.625,-1.19 -0.698,-2.19 -2.868,-2.046 -2.131,0.143 -5.517,0.653 -5.998,-3.61 -0.177,-1.615 -1.256,-3.517 -1.972,-5.263 -1.835,-4.466 -0.474,-6.133 4.583,-5.845 2.749,0.157 5.432,-0.536 8.063,-1.354 l -0.118,0.085 c 1.295,-0.202 2.42,-1.889 3.86,-0.64 3.091,2.68 6.55,4.08 10.713,3.622 0.664,-0.072 1.164,0.51 1.256,1.255 0.059,1.033 0.559,1.837 1.309,2.524 0.276,1.707 -0.579,4.132 1.506,4.832 4.459,1.51 8.99,-0.51 13.514,-0.373 0.277,0.007 0.573,-0.562 0.855,-0.863 l -0.131,0.118 c 2.611,-2.106 4.334,-5.27 7.799,-6.355 0.29,2.262 2.414,4.433 1.381,6.747 -1.275,2.857 -2.485,5.335 0.704,7.67 0.25,0.183 0.375,1.046 0.197,1.216 -1.4,1.36 -0.374,2.674 0.125,3.844 1.013,2.4 1,4.126 -1.979,4.93 -1.684,0.451 -2.164,2.079 -0.921,2.949 2.019,1.406 1.611,2.602 0.533,4.139 -1.19,1.693 -2.262,2.896 -4.906,2.497 -5.643,-0.85 -10.358,1.851 -14.771,5.028 l 0.105,-0.045 c -1.854,-1.609 0.527,-3.701 -0.769,-5.741 -1.138,1.582 -2.354,2.681 -1.499,4.878 0.762,1.961 -0.178,3.144 -2.48,2.759 -0.427,-0.072 -0.881,-0.288 -1.276,-0.21 -2.63,0.524 -4.301,0.242 -2.275,-3.203 -2.17,0.137 -2.374,1.588 -2.782,2.661 -0.651,1.732 -1.835,1.798 -3.4,1.569 -1.854,-0.275 -1.072,-1.537 -1.072,-2.472 0,-1.484 -0.283,-2.791 -1.716,-3.576 z"
         fill="#ff5039"
         id="path14" /><path
         d="m 53.6885,53.4244 c -0.0663,-0.8246 -0.5175,-1.191 -1.3204,-0.9293 -1.3004,0.4254 -1.8644,-0.1439 -1.2009,-1.204 1.8976,-3.0364 -2.0304,-4.1292 -2.4152,-4.0768 -4.7375,0.602 -4.3593,-3.8216 -6.6417,-5.7782 2.4903,-0.6849 2.8708,-1.8803 1.1412,-3.586 -0.7962,-0.7788 -1.3469,-1.5509 -1.5592,-2.7354 -0.4114,-2.3426 -0.8029,-4.6003 -2.3821,-6.7466 -2.4417,-3.3243 -0.8691,-7.231 -0.0796,-10.7908 0.418,-1.8781 2.4882,-1.5051 3.5498,-0.6282 2.0304,1.6687 3.3905,0.4646 4.9233,-0.5693 0.1791,-0.1244 0.3715,-0.2618 0.4843,-0.4385 3.5631,-5.3594 8.7584,-6.28858 14.8096,-5.8436 3.1118,0.229 6.1972,-0.1047 9.3953,0.4842 3.4967,0.6413 3.0123,2.8335 1.9773,4.2601 -2.5745,3.5664 -0.3583,7.4599 -1.4001,11.0525 -0.2056,0.7067 0.0996,1.8977 0.9754,1.7603 2.9062,-0.4712 3.5365,2.0351 5.0095,3.4159 1.0417,0.975 2.7337,1.9893 0.3849,3.4158 -0.3849,0.2356 -0.5441,0.8835 -0.1593,1.1321 4.0474,2.5717 0.0465,5.366 0.2654,8.0293 l 0.1261,-0.1243 c -1.6986,0.0654 -2.0702,1.3742 -2.5214,2.6109 -0.2455,0.661 -0.1592,1.7538 -1.3203,1.4462 -3.7754,-0.9815 -7.4048,-1.5443 -9.9726,2.3623 -4.1602,-0.5627 -2.3953,2.3558 -2.309,4.0572 0.0597,1.1386 -1.0683,2.0679 -1.1678,1.9959 -2.6209,-1.8323 -7.0266,1.9304 -8.692,-2.6699 l 0.1128,0.1178 z"
         fill="#ff5039"
         id="path8" /><path
         d="m 88.833,60.1903 c 1.9264,-1.9755 3.8529,-3.951 5.7859,-5.9265 1.7698,-0.1193 3.5852,0.3912 5.2309,-0.9546 1.1562,-0.9479 1.6652,0.5304 1.5802,1.1336 -0.575,3.9974 2.351,5.7143 4.715,7.8224 l -0.104,-0.1127 c 0.091,0.305 0.156,0.8552 0.287,0.8751 3.899,0.464 2.612,3.2814 1.887,5.1309 -1.417,3.6063 -1.299,5.7541 1.639,8.1207 1.026,0.8287 1.372,1.3126 0.758,2.6053 -0.731,1.5446 -0.281,3.4339 -1.26,5.0182 -0.464,0.7491 0.045,1.4651 1.031,1.538 0,0 0.013,-0.0994 0.007,-0.0994 1.064,1.7169 0.855,3.7653 1.358,5.6347 0.843,3.1423 -0.457,4.2029 -3.48,3.1688 -2.469,-0.8486 -6.067,2.877 -6.172,6.4572 -0.039,1.418 0.203,2.857 0.079,4.262 -0.451,5.052 -1.535,5.993 -6.7659,6.165 l 0.098,0.1 c -4.5779,-1.293 -4.7215,-1.32 -8.2676,1.584 -0.7836,0.643 -0.8359,0.053 -1.1101,-0.292 -0.7445,-0.968 -1.7633,-1.166 -2.88,-1.173 l 0.0262,0.086 c 0.6269,-2.366 -2.0637,-3.54 -1.9853,-5.694 0.1371,-3.693 -0.529,-7.3388 -0.1959,-11.0975 0.2024,-2.2937 2.4489,-4.2758 1.4693,-6.1651 -1.9852,-3.8383 -0.444,-7.3053 -0.111,-11.0176 0.3331,-3.6991 -1.2408,-7.491 0.1763,-11.2364 l -0.1044,0.1193 c 1.7828,-2.36 3.4088,-4.8923 6.3084,-6.0524 z"
         fill="#ff5039"
         id="path9" /><path
         d="m 144.866,77.0752 c 0.975,-1.1789 1.944,-2.3646 2.919,-3.5436 1.281,-1.2121 0.485,-2.9143 1.042,-4.3715 1.314,-3.4376 0.06,-7.1998 -2.269,-9.1273 -3.357,-2.7752 -1.387,-5.2127 -0.697,-7.6104 0.79,-2.7422 0.086,-6.5176 -2.422,-8.4715 0,0 -0.013,0.1523 -0.013,0.1589 0.013,-0.6425 -0.239,-1.5035 0.086,-1.8877 1.599,-1.9009 0.803,-3.2455 -0.869,-4.3715 -1.844,-1.2386 -2.262,-2.4309 -0.604,-4.2524 1.341,-1.4638 0.724,-4.2523 3.344,-4.9941 1.48,-0.4173 2.628,-2.3514 4.519,-0.4372 0.756,0.7684 2.056,-0.2914 3.085,-0.6292 3.735,-1.2121 5.48,-0.457 7.046,3.1064 0.133,0.2981 0.126,0.7949 0.338,0.9075 4.532,2.4109 3.258,7.0143 4.114,10.803 0.186,0.8213 0.464,1.4439 1.3,1.7089 l -0.119,-0.1391 c 0.75,5.6896 0.75,5.736 6.548,5.9413 1.725,0.0596 2.581,0.6094 2.847,2.411 0.623,4.2059 3.908,6.0605 7.928,4.5305 1.327,-0.5034 2.528,-1.338 3.802,-1.9937 5.732,-2.9541 3.138,3.5701 5.341,4.716 1.3,0.6822 0.975,1.7949 0.1,2.7421 -0.073,0.0795 -0.206,0.106 -0.273,0.1855 -1.771,2.0533 -2.852,4.5702 -3.536,7.0673 -1.214,4.451 -2.077,5.279 -6.489,4.3914 -3.523,-0.7087 -5.944,0.5034 -6.157,3.5635 -0.239,3.4575 -1.134,6.65 -2.567,9.7498 -1.42,1.5102 -3.205,2.4243 -5.109,3.1595 -0.557,-0.828 -1.4,-1.126 -2.302,-0.9207 -3.437,0.775 -6.695,2.6759 -10.417,1.5698 -1.486,1.0465 -2.972,2.0864 -4.459,3.1329 -0.796,0.6491 -1.798,1.4241 -2.454,0.1259 -1.195,-2.3646 -4.359,-4.0536 -2.588,-7.5244 0.584,-1.1458 -0.179,-2.2785 -0.829,-3.3714 -1.214,-2.0201 -2.163,-4.1596 -0.186,-6.3188 z"
         fill="#ff5039"
         id="path17" /><path
         d="m 234.931,141 c 0.744,1.441 1.468,2.896 2.252,4.324 0.579,1.051 1.073,2.823 2.119,2.763 3.542,-0.198 2.943,2.499 3.595,4.436 0.829,2.48 1.389,5.23 4.081,6.46 2.179,0.991 1.264,2.552 1.067,4.066 -0.152,1.143 -2.14,2.254 -1.515,2.532 2.344,1.038 1.468,4.383 4.056,5.057 1.033,0.271 1.922,1.065 2.949,1.422 2.284,0.793 2.179,2.909 2.435,4.628 0.283,1.884 -1.527,1.653 -2.718,2.069 -2.252,0.78 -2.884,2.519 -2.344,4.74 0.895,3.663 2.462,7.041 4.338,10.288 0.533,0.925 -0.384,-1.515 -0.503,-0.167 -1.547,-2.551 -1.86,-1.632 -3.13,-4.316 -0.698,-1.474 -0.837,-3.127 -2.515,-3.986 -0.639,-0.324 -1.422,-1.012 -0.086,-1.594 0.639,-0.277 1.317,-0.588 0.83,-1.395 -0.402,-0.661 -1.106,-1.084 -1.936,-1.071 -0.855,0.02 -0.987,0.641 -1.086,1.349 -0.105,0.747 -0.25,1.514 -0.513,2.215 -0.329,0.866 -0.474,2.122 -1.923,1.626 -1.25,-0.423 -0.803,-1.461 -0.52,-2.208 0.652,-1.739 -0.553,-2.294 -1.705,-2.519 -1.757,-0.344 -3.199,-1.078 -4.647,-3.114 -0.257,4.582 -1.817,4.516 -4.648,2.486 -2.383,-1.706 -6.253,-0.589 -7.925,2.803 -1.633,3.306 -3.371,1.983 -4.668,0.648 -1.817,-1.871 -3.95,-1.858 -5.826,-1.322 -3.048,0.872 -6.293,0.806 -9.222,2.208 -2.416,1.15 -4.417,-0.291 -6.3,-1.527 -2.864,-1.871 -5.793,-3.544 -9.111,-4.43 0.053,-0.099 0.105,-0.397 0.237,-0.436 1.58,-0.45 4.371,-0.351 3.608,-2.592 -0.672,-1.99 -3.693,-2.307 -5.747,-2.129 -1.429,0.126 -2.199,0.06 -2.91,-1.11 0.783,-0.906 1.771,-0.767 2.686,-0.43 3.021,1.097 6.247,1.091 9.315,1.838 2.613,0.635 4.456,0.073 5.773,-2.592 -1.679,-0.82 -3.535,-0.436 -5.24,-0.793 -2.14,-0.45 -4.253,-0.992 -4.621,-3.696 l -0.106,0.046 c 0.408,-0.132 0.81,-0.264 1.218,-0.39 4.266,-1.309 7.985,-4.839 12.791,-3.801 3.634,0.787 5.45,-0.443 6.899,-3.709 0.79,-1.779 1.803,-2.803 -0.58,-4.02 -1.04,-0.529 -0.934,-1.758 0.409,-2.155 3.363,-0.992 3.541,-3.207 2.185,-5.844 -0.77,-1.495 0.362,-2.764 0.092,-4.139 -0.421,-2.136 0.711,-1.871 2.028,-1.316 1.125,0.47 2.238,1.845 3.456,0.304 1.191,-1.507 2.363,-1.183 3.62,-0.224 2.601,1.976 5.082,1.633 7.419,-0.424 0.823,-0.727 1.705,-0.885 2.719,-0.727 l -0.125,-0.119 z"
         fill="#ff5039"
         id="path19" /><path
         d="m 211.715,48.5565 c 0.628,-0.8399 0.317,-1.5419 -0.33,-2.1915 1.856,-1.8633 1.764,-4.2254 1.427,-6.489 -0.284,-1.9356 -1.143,-1.4304 -1.843,-0.0919 l 0.112,-0.0525 c -2.451,-0.8529 -2.074,-2.7294 -2.041,-4.7634 0.066,-3.6087 3.329,-6.535 2.041,-10.3536 l -0.119,0.1312 c 2.279,-1.3779 1.269,-2.8607 0.093,-4.291 -1.943,-2.3621 -1.817,-4.337 0.944,-5.728 2.247,-1.1285 2.755,-3.2872 4.05,-4.97339 0.667,-0.86609 0.278,-1.86339 -0.436,-2.32268 -2.088,-1.33849 -1.407,-2.82788 -0.799,-4.6519 0.541,-1.62063 0.958,-2.486709 2.583,-1.20727 0.978,0.76766 1.354,-0.05905 1.856,-0.56427 1.487,-1.495955 2.848,-1.226945 4.255,0.15747 2.127,2.08647 4.578,3.73334 4.551,7.38138 -0.019,2.27676 2.167,3.92366 3.984,5.33426 1.064,0.8267 2.233,1.4697 1.916,3.0969 -0.304,1.555 -1.605,1.6403 -2.788,1.7847 -2.841,0.3477 -3.118,1.7256 -1.42,3.6677 1.889,2.1652 1.592,5.0325 1.783,7.3682 0.205,2.4736 0.846,2.4277 2.597,2.1784 0.753,-0.105 1.75,-0.374 2.266,-0.0263 2.946,1.9946 5.675,3.3003 8.978,0.4003 0.707,-0.6234 2.517,0.3936 2.629,2.1061 0.165,2.4211 1.136,3.5693 3.746,1.9815 -0.106,2.2636 0.41,4.0811 1.414,5.8329 1.176,2.0537 2.471,4.0155 0.925,6.6662 -0.674,1.1548 0.535,2.6508 1.565,3.7006 0.912,0.9382 1.929,1.7912 2.273,3.1494 0.251,0.9776 -0.172,2.3358 -0.859,2.0405 -2.788,-1.227 -3.917,1.5681 -5.741,1.9421 -2.867,0.584 -4.776,2.6376 -7.379,3.4315 -0.813,0.2494 -1.698,0.5577 -1.929,1.5747 l 0.132,-0.1181 c -1.064,-0.1049 -2.524,1.1614 -3.105,-0.6036 -0.522,-1.5878 -1.658,-2.8345 -2.524,-4.0811 -1.883,-2.7098 -1.585,-8.897 -7.908,-5.8657 -0.198,0.0918 -0.72,-0.4199 -1.057,-0.6955 -0.561,-0.4593 -1.202,-0.7349 -1.763,-0.1903 -2.98,2.9132 -6.448,0.7546 -9.679,0.9711 -4.281,0.2821 -5.074,-2.0996 -4.4,-5.623 z"
         fill="#ff5039"
         id="path25" /><path
         d="m 27.0189,100.993 c -1.1915,-2.5616 -4.0824,-3.61 -6.0292,-4.5864 -2.7086,-1.3564 -3.1057,-3.309 -3.7438,-5.3928 -0.4232,-1.3891 -0.6967,-2.6734 -1.9142,-3.5908 -1.2566,-0.9501 -1.2631,-2.182 -0.5795,-3.486 1.0483,-2.0051 0.9636,-4.0233 -0.2018,-5.8973 -0.9181,-1.4809 -0.6772,-2.4769 0.6446,-3.5581 3.7177,-3.0339 6.6997,-6.7754 9.6492,-10.5366 3.249,-4.1478 8.2299,-6.3626 11.5179,-10.4776 0.2539,-0.3211 1.0352,-0.4194 1.504,-0.3211 3.1513,0.6487 5.2023,-1.1336 6.0487,-3.6432 0.9962,-2.9356 2.6304,-0.616 3.8675,-0.8977 1.4455,-0.3342 2.4351,1.5333 2.2072,2.2213 -1.3738,4.1543 0.9572,3.5777 3.4378,3.0076 l -0.1107,-0.1179 c 0.6967,1.6512 0.0521,4.5737 3.4183,3.7088 4.2191,-1.0812 6.2766,0.6814 5.9706,5.2289 -0.0521,0.7864 -0.3516,1.5268 0.7943,1.6644 0.6185,0.8518 1.2436,1.7037 1.8621,2.5555 1.3022,2.1165 0.5339,3.9512 -1.6017,4.1478 -3.5875,0.3277 -4.447,3.047 -5.8729,5.419 -0.0781,0.0787 -0.1627,0.1573 -0.2409,0.2425 -2.8127,1.1991 -5.2999,3.2566 -8.6856,2.8635 -1.6017,-0.1835 -2.2267,0.9632 -2.1551,2.49 l 0.0846,-0.1442 c -0.8464,1.6316 -1.8556,3.2698 -1.3282,5.1962 0.319,1.1795 -0.1433,1.6775 -1.1329,1.7627 -2.8844,0.2424 -5.8859,1.6774 -8.4512,1.2777 -3.6397,-0.57 -4.4991,1.1861 -5.4562,3.6891 l 0.1041,-0.131 c -1.6407,0.8322 -2.0379,2.2869 -1.9923,3.984 0.039,1.3957 0.1628,2.8637 -1.6929,3.2767 L 26.9993,101 Z"
         fill="#ff5039"
         id="path4" /><path
         d="M 65.685,66.9868 C 65.0583,66.1319 64.425,65.277 63.7982,64.4221 63.884,61.9494 64.8208,59.3911 63,57.1289 c 2.4013,-1.506 -0.2507,-5.6031 3.7537,-6.6816 1.6822,-0.4538 3.3117,-2.0584 5.304,-2.2886 1.9593,-0.2302 5.9835,-2.157 7.0258,-3.6301 0.1187,-0.171 0.1649,-0.388 0.2441,-0.5853 l -0.1254,0.1249 c 1.9066,-1.0259 1.6757,-3.4657 3.193,-4.8205 0.3826,-0.3419 0.3364,-1.7558 -0.376,-2.0781 -1.8934,-0.8681 -2.9027,-1.6375 -0.508,-3.1172 0.1121,-0.0723 0.1187,-0.3814 0.1055,-0.5787 -0.0329,-0.4932 -5.4887,-6.2081 -6.0164,-6.2936 -0.7191,-0.1118 -2.0583,0 -1.7614,-0.9075 1.0687,-3.2488 -1.1743,-6.6882 0.7454,-9.8448 0.442,-0.7234 0.8774,-1.631 0.8379,-2.4267 -0.1914,-3.6696 1.9461,-3.2422 4.2352,-2.4925 5.9703,1.9466 11.9208,3.9459 17.8779,5.9253 0.2045,0.0658 0.442,0.2631 0.6069,0.2105 3.5488,-1.0851 5.1588,1.4797 6.6038,3.7814 0.937,1.4928 1.939,1.8611 3.166,1.0325 1.696,-1.1509 2.936,-0.0132 3.701,0.8746 1.208,1.4008 -0.739,1.894 -1.392,2.749 -0.831,1.0851 -2.572,1.4468 -2.632,3.1566 -0.138,3.8735 -2.329,6.9447 -3.978,10.2263 l 0.119,-0.1184 c -3.417,1.4139 -1.709,4.3009 -1.603,6.4646 0.27,5.3202 -0.884,7.0104 -6.1222,7.8521 -0.4684,0.0724 -0.8708,0.5722 -1.3062,0.8747 -1.9461,1.9597 -3.8922,3.9195 -5.8449,5.8793 -1.4514,-0.0263 -2.8104,0.1972 -3.8659,1.3415 -0.4816,0.5196 -1.1413,0.901 -1.6163,0.1184 -1.7877,-2.933 -3.9186,-1.7493 -6.2077,-0.7431 -1.2667,0.5524 -2.7312,0.9272 -4.1034,0.9075 -3.1863,-0.046 -5.7724,0.4867 -6.3793,4.2286 -0.0462,0.2894 -0.6663,0.4867 -1.0159,0.73 z"
         fill="#ff5039"
         id="path10" /><path
         d="m 58.3888,76.6679 c 0.0768,-0.0779 0.1599,-0.1623 0.2366,-0.2402 2.238,-0.5323 2.1229,-3.8235 4.5207,-4.0766 3.0948,-0.3246 4.38,-2.1876 4.7061,-5.1153 0.3261,-2.9146 1.5538,-4.6413 4.9107,-4.2519 1.4899,0.1753 3.1268,-0.4609 4.6294,-0.9477 1.4643,-0.4804 2.8582,-1.8046 4.3864,-0.4284 1.5154,1.3632 1.0614,3.0964 0.486,4.7647 l 0.1023,-0.1169 c -1.4195,2.2331 -2.6856,4.3233 -1.3748,7.2769 1.0615,2.3824 1.1062,5.1607 -0.5499,7.4132 -1.1381,1.5385 -0.812,2.7329 0.0576,4.0896 0.8248,1.2918 1.8351,2.9082 0.8888,4.1999 -2.1932,2.9926 -1.4004,6.4525 -1.573,9.5944 -0.2174,4.0444 0,8.4064 3.1843,11.6974 l -0.0256,-0.084 c -1.3683,1.012 -3.0372,0.5 -3.7598,-0.383 -1.9758,-2.409 -4.9363,-2.629 -7.398,-3.402 -1.7776,-0.558 -2.0206,-1.525 -2.9285,-2.583 -1.3748,-1.61 -1.8288,-5.2454 -5.563,-3.467 -0.2493,0.117 -3.2482,-0.331 -4.0475,-2.2977 -0.5499,-1.3503 -1.0358,-2.8628 -2.6024,-3.473 l 0.1023,0.1169 c 1.2469,-2.4603 -1.2341,-4.544 -0.6842,-6.9393 -1.4259,-1.7917 -0.3836,-4.226 -1.541,-6.0825 -0.5051,-1.1814 -1.2724,-2.4343 0.9208,-2.6875 1.5218,-0.1752 2.2379,-1.3696 2.9157,-2.577 z"
         fill="#ff5039"
         id="path5" /><path
         d="m 53.8896,82.4697 c 1.1928,1.8898 0.1193,4.3524 1.5971,6.1698 -1.7694,2.5482 -1.3519,4.8726 0.709,7.0389 l -0.106,-0.1185 c 0.8283,1.6461 1.6501,3.2923 2.4983,4.9321 0.3844,0.737 0.5301,1.573 1.8953,1.047 1.6898,-0.652 0.0132,1.396 1.1,1.659 1.1199,0.27 1.5242,-0.698 2.3128,-0.935 1.5506,-0.461 4.42,2.298 4.0754,3.911 -0.0198,0.106 -0.1325,0.191 -0.1457,0.29 -0.4573,4.115 -0.2452,7.875 -6.3154,9.087 -3.0748,0.612 -5.3081,5.491 -7.8859,8.468 -0.7621,0.882 -0.1391,1.896 -0.0861,2.844 0.1193,2.186 0.5301,4.432 -1.7296,6.137 -1.4115,-1.113 -2.114,-3.115 -3.9761,-3.957 -0.4506,-0.204 -0.9476,-1.258 -0.782,-1.679 1.0404,-2.746 -0.1988,-5.341 -0.2319,-7.928 -0.0398,-3.326 -1.6567,-4.353 -3.9562,-5.466 l 0.1325,0.126 c -1.8621,-0.935 -3.9893,-1.581 -3.5851,-4.445 0.1061,-0.744 -0.7488,-1.409 -1.6633,-1.034 -1.5507,0.639 -2.0278,0.073 -2.9025,-1.323 -0.8218,-1.304 -1.8887,-2.819 -3.6713,-3.549 -1.0338,-0.422 -2.4652,-1.238 -2.1206,-2.937 0.444,-2.1928 0.1193,-4.5436 1.332,-6.5914 l -0.106,0.1317 c 1.7561,-0.2765 1.5573,-3.2001 3.6447,-2.8379 3.8436,0.6782 7.2961,-1.5804 11.0734,-1.2972 0.9211,0.0658 2.1339,-0.5663 1.7164,-1.475 -1.0206,-2.2519 0.8349,-4.247 0.2253,-6.3739 l -0.0862,0.1449 c 2.3393,-2.7985 4.6984,-1.0338 7.0576,-0.0395 z"
         fill="#ff5039"
         id="path3" /><path
         d="m 165.518,43.453 c -0.223,-2.2653 -0.38,-4.4979 -1.18,-6.7107 -0.557,-1.5365 -0.525,-3.3029 0.859,-4.8853 1.751,-2.0028 -0.38,-4.0055 -0.748,-5.9163 -0.596,-3.1058 0.879,-8.7988 3.325,-10.9197 1.371,-1.1951 2.957,-2.3967 3.489,-4.3338 0.144,-0.5318 0.281,-1.40514 0.786,-1.22128 3.325,1.22128 6.118,-1.75977 9.148,-1.18194 2.642,0.50561 5.383,-0.47277 8.091,1.98302 2.164,1.9633 6.545,-1.84512 7.01,-5.67327 0.426,-3.49327 0.682,-3.637726 3.672,-2.04868 3.22,1.7138 6.249,1.51024 9.095,-0.83392 1.161,-0.958681 2.367,-2.422963 3.974,-1.31326 1.626,1.12284 0.23,2.52802 -0.216,3.76905 -0.256,0.72229 -0.748,1.41832 0.091,2.04212 0.938,0.69602 2.571,1.30669 1.948,2.60681 -0.761,1.58905 -1.246,3.55235 -3.134,4.42565 -1.686,0.7749 -2.794,2.029 -3.155,3.907 -0.216,1.1162 -0.413,2.1865 0.768,2.9023 1.75,1.0637 1.56,2.6987 1.285,4.36 l 0.118,-0.1313 c -2.393,0.8602 0.295,3.027 -0.846,3.8478 -3.193,2.2916 -1.338,5.8046 -2.275,8.6347 -0.63,1.9042 1.39,3.3028 3.121,2.6462 l -0.112,0.0525 c 1.246,1.6285 1.279,3.3423 0.073,4.9379 -0.636,0.847 -0.669,1.2804 0.341,1.6547 0.642,0.65 0.95,1.3526 0.327,2.1931 -0.741,0.6172 -0.819,1.4774 -0.904,2.3573 -0.604,6.3037 -3.548,8.6741 -9.909,7.8927 -1.416,-0.1707 -2.688,-0.2036 -4.118,0.2298 -2.773,0.8471 -4.38,-0.2889 -5.075,-3.1649 -0.767,-3.165 -2.138,-3.7691 -5.219,-2.377 -1.673,0.7551 -3.102,2.0027 -5.004,2.3047 -3.003,0.4859 -5.095,-0.5515 -5.35,-3.1846 -0.328,-3.4407 -2.158,-4.5242 -5.292,-4.0645 -2.512,0.3677 -4.079,-0.2955 -3.862,-3.2241 0.059,-0.8208 -0.413,-1.438 -1.24,-1.7072 l 0.118,0.1379 z"
         fill="#ff5039"
         id="path22" /><path
         d="m 304.541,85.7073 c -1.707,-4.9244 1.235,-9.7035 0.519,-14.5157 -0.558,-3.723 1.951,-6.3634 2.548,-9.6441 0.303,-1.67 1.439,-2.2311 2.864,-0.4554 1.208,1.505 2.614,3.0958 4.958,1.6502 0.559,-0.3432 1.55,-0.264 1.708,0.4225 0.63,2.7064 3.54,1.6238 4.965,3.1487 0.729,0.7855 1.635,-0.6403 2.397,-1.1816 1.55,-1.109 2.85,-1.3004 3.238,1.0231 0.361,2.1454 1.944,2.6074 3.329,1.8087 2.378,-1.3664 3.448,0.0198 4.532,1.5579 2.082,2.9506 3.927,3.2807 6.751,0.8779 0.795,-0.6799 1.557,-0.9109 2.358,-0.4687 1.209,0.6733 0.315,1.5381 -0.105,2.1652 -1.143,1.7096 -0.571,2.8582 1.031,3.7361 1.445,0.7922 2.22,2.0926 1.478,3.525 -1.55,2.977 -2.483,6.535 -6.246,7.7892 -0.65,0.2178 -1.694,0.2376 -1.747,1.2212 -0.046,0.9637 0.723,1.571 1.478,2.0133 1.235,0.7327 2.561,1.2212 4.045,0.8713 1.064,-0.2508 2.378,-0.7327 2.503,0.9704 0.118,1.6172 -1.281,1.9275 -2.496,1.8879 -1.149,-0.033 -2.194,-1.5777 -3.441,0.0726 -1.288,1.703 -0.099,3.888 -1.347,5.624 -0.322,0.442 0.815,0.878 1.425,0.964 3.264,0.475 3.79,2.99 3.737,5.531 -0.033,1.565 -0.098,2.595 1.741,2.733 1.32,0.106 1.477,1.413 0.965,1.882 -3.008,2.752 -2.121,6.317 -2.226,9.663 -0.053,1.789 -0.821,2.37 -2.562,2.614 -3.204,0.456 -6.462,-0.369 -9.647,0.68 -1.55,0.515 -2.141,-0.627 -2.108,-2.072 0.039,-1.631 -0.559,-2.958 -2.26,-3.09 -3.067,-0.237 -4.209,-3.274 -6.698,-4.422 -1.137,-0.522 -1.419,-2.621 -3.435,-2.383 -0.677,0.079 -0.526,-0.799 -0.401,-1.307 0.217,-0.845 0,-1.954 -0.689,-1.954 -3.133,0 -2.956,-2.812 -4.066,-4.515 l 0.092,0.119 c -0.039,-1.413 0.191,-2.898 -0.184,-4.219 -0.729,-2.6069 -0.282,-6.2639 -4.689,-6.1517 -0.932,0.0264 -1.103,-0.6403 -0.9,-1.6172 0.913,-4.3039 0.519,-4.9508 -3.539,-6.6142 l 0.118,0.0792 z"
         fill="#ff5039"
         id="path27" /><path
         d="m 227.255,182 c 1.838,1.657 4.18,2.398 5.181,4.579 3.049,-2.81 3.396,0.695 4.75,1.979 0.51,0.478 0.798,-0.112 1.177,-0.551 1.302,-1.487 2.532,-1.434 3.324,0.531 1.007,2.496 2.328,2.751 4.435,0.753 0.608,1.684 -1.472,2.588 -1.243,4.317 2.074,-0.275 2.002,-2.81 3.932,-3.321 -1.583,3.112 0.281,4.271 2.675,5.319 2.715,1.186 4.442,4.697 4.004,7.789 -0.203,1.435 1.033,2.372 1.747,2.346 3.218,-0.138 6.005,2.928 9.564,0.871 1.694,-0.983 3.598,-1.428 4.487,-3.407 0.596,-1.329 1.27,-1.506 2.369,-0.36 1.57,1.651 2.963,2.064 4.128,-0.635 0.739,-1.71 2.57,-1.841 4.271,-1.618 1.178,0.157 2.342,0.445 3.513,0.642 0.857,0.137 2.002,0.072 2.342,0.884 0.478,1.153 -1.112,1.081 -1.472,1.762 -1.066,2.005 -3.153,3.747 -1.334,6.479 0.89,1.343 -1.668,3.4 -4.063,2.856 -1.642,-0.373 -2.891,0.027 -4.363,0.426 -1.773,0.485 -3.448,0.878 -5.306,-0.871 -2.806,-2.64 -5.272,-1.716 -6.986,1.873 -0.949,1.985 -3.494,2.025 -4.71,3.78 -0.988,1.429 -2.297,1.782 -4.207,2.169 -4.658,0.943 -9.636,2.207 -12.226,7.16 -1.453,2.784 -3.873,4.73 -6.49,6.295 -3.657,2.188 -11.03,0.361 -12.999,-2.98 -0.523,-0.891 0.125,-1.212 0.615,-1.507 1.963,-1.159 2.074,-2.909 1.649,-4.841 -0.268,-1.225 -0.196,-2.182 0.791,-3.243 1.688,-1.828 0.91,-4.009 -0.202,-5.739 -1.073,-1.67 -2.369,-3.694 -4.9,-2.954 -1.734,0.504 -2.898,-0.19 -4.148,-1.146 -1.557,-1.186 -3.186,-2.28 -4.808,-3.374 -1.773,-1.192 -3.618,-1.081 -5.606,-0.485 -1.067,0.315 -2.454,0.478 -2.964,-1.127 -0.51,-1.611 0.066,-2.935 1.557,-3.432 4.2,-1.402 7.006,-5.136 11.043,-6.617 3.323,-1.218 6.012,-3.786 9.564,-4.317 1.164,-0.177 1.832,-0.681 2.191,-1.618 0.563,-1.461 -1.203,-1.009 -1.38,-1.448 -0.929,-2.319 -0.569,-4.71 0.111,-7.212 z"
         fill="#ff5039"
         id="path18" /><path
         d="m 26.8218,101.038 -0.0593,-0.054 c 2.1082,2.01 4.9279,3.119 6.7264,5.549 1.0672,1.436 1.4164,4.248 4.4139,2.645 0.6061,-0.321 0.6786,0.674 0.7115,1.169 0.2043,2.844 1.792,3.799 4.414,3.385 l -0.1318,-0.127 c 3.4455,2.111 2.4244,6.237 3.933,9.249 0.6127,1.222 -0.4809,2.11 -2.4046,2.765 -4.1636,1.409 -7.866,-1.643 -11.9308,-0.287 -1.568,0.521 -2.8724,-2.177 -5.165,-2.097 -2.9185,0.1 -5.5734,-1.022 -7.2138,-3.913 -0.6259,-1.109 -1.759,-1.022 -2.1214,0.354 -0.5007,1.903 -1.9895,1.736 -3.3533,2.003 -1.2187,0.24 -1.614,-0.174 -1.3571,-1.396 0.2108,-1.035 0,-2.618 -0.9355,-2.471 -3.45867,0.541 -3.80124,-3.352 -5.30989,-3.893 -3.69586,-1.322 -3.42576,-5.262 -6.113654,-7.105 -1.870988,-1.282 -0.540215,-4.16 0.810324,-5.055 3.90009,-2.5712 4.89487,-7.1122 7.70135,-10.3443 0.68517,-0.788 0.36893,-2.6778 1.82487,-2.384 1.647,0.3339 3.9923,0.6879 4.4864,2.3173 1.7261,5.7162 6.7132,7.2521 11.0744,9.676 z"
         fill="#ff5039"
         id="path1" /><path
         d="m 95.6518,110.671 c 1.5838,2.247 3.2397,0.575 4.8502,0.06 2.493,-0.795 3.9,0.422 3.396,3.016 -0.078,0.395 -0.497,1.077 -0.504,1.077 -2.297,-1.09 -3.6582,2.086 -6.1649,1.244 -1.7279,-0.582 -3.9466,1.477 -5.8708,-0.361 -0.0523,-0.047 -0.4189,0.127 -0.5367,0.28 -2.343,3.17 -5.4061,5.096 -9.2741,5.664 -1.0145,0.147 -1.4857,0.997 -1.7409,1.813 -0.9621,3.042 -3.0761,3.45 -5.9428,3.697 -3.423,0.295 -6.8133,0.696 -10.2624,0.556 -2.4544,-0.101 -4.3066,1.103 -5.7203,3.196 -0.8181,1.217 -1.682,2.728 -3.8811,1.799 1.4857,-2.187 1.4792,-4.534 0.8574,-6.941 -0.0524,-0.214 -0.1244,-0.442 -0.1113,-0.656 0.0916,-1.845 8.0241,-10.03 9.9025,-10.244 4.1822,-0.468 4.3458,-0.682 3.9269,-4.929 -0.0851,-0.882 -0.1113,-1.772 -0.1767,-2.942 3.868,1.404 7.795,2.073 11.1198,4.547 1.0864,0.809 2.6376,1.057 4.0644,0.876 0.7461,-0.093 1.4464,-0.555 2.0354,0.301 1.1847,1.719 1.9308,0.956 2.9583,-0.321 0.864,-1.076 1.8915,-2.354 3.6717,-0.735 1.1388,1.036 2.2188,-0.95 3.5016,-0.91 -0.0066,0 -0.1048,-0.107 -0.1048,-0.107 z"
         fill="#ff5039"
         id="path2" /><path
         d="m 198.902,75.77 c 1.23,1.3121 2.308,2.8353 3.727,3.8903 1.955,1.4507 2.472,3.231 1.89,5.4004 -0.68,2.5386 0.137,4.3255 2.426,5.3805 3.472,1.5957 5.643,4.3124 6.944,7.8335 L 214,98.1889 c -2.785,-0.2967 -5.623,-1.5429 -7.951,1.6155 -0.412,0.5606 -2.707,2.6636 -4.78,0.5476 -3.145,-3.2049 -3.766,-2.8686 -6.63,0.461 -1.615,1.88 -3.662,3.482 -6.558,1.53 -1.923,-1.292 -5.257,0.224 -5.944,2.512 -0.562,1.886 -1.661,2.724 -3.563,2.631 -3.1,-0.145 -6.16,0.739 -9.318,-0.033 -2.014,-0.494 -3.917,0.185 -4.433,2.697 l 0.098,-0.138 c -1.236,2.09 -2.668,3.923 -5.257,4.398 -0.294,0.052 -0.497,0.653 -0.739,1.002 l 0.15,-0.106 c -0.327,-0.006 -0.68,-0.105 -0.967,0 -3.198,1.128 -5.427,1.425 -5.022,-3.428 0.131,-1.543 -2.184,-3.205 -3.165,-4.939 -1.765,-3.099 -3.505,-6.251 -2.733,-10.0688 1.386,-0.7385 3.348,-0.6924 3.76,-2.776 1.464,-1.0418 2.929,-2.0771 4.4,-3.1189 1.203,0.455 2.393,0.9627 3.61,1.3517 0.745,0.2374 1.687,1.1803 2.308,0.1649 1.641,-2.6837 4.23,-2.0177 6.617,-2.1628 1.876,-0.7253 3.635,-1.6418 5.035,-3.1452 2.648,-2.1101 3.047,-5.0707 3.243,-8.2093 0.235,-3.8442 1.994,-5.2026 5.577,-3.9366 3.204,1.1276 5.029,0 6.232,-2.7628 1.183,-2.7166 2.19,-5.5124 3.275,-8.2752 3.204,0.9561 3.93,4.5827 6.467,6.3696 0.811,0.5737 0.53,1.8265 0.275,2.7958 -0.288,1.0946 -0.647,2.1826 0.922,2.6046 z"
         fill="#ff5039"
         id="path16" /><path
         d="m 214.044,98.086 c 0.522,0.0926 1.426,0.0463 1.519,0.2976 1.855,5.1724 6.568,4.1274 10.437,4.9074 -0.304,0.278 -0.588,0.768 -0.911,0.801 -1.717,0.158 -3.558,0.403 -3.69,2.48 -0.139,2.216 2.145,1.693 3.439,2.388 -0.119,0.271 -0.158,0.674 -0.37,0.82 -4.766,3.241 -4.991,3.3 -3.492,8.605 0.799,2.831 -0.35,4.001 -2.436,5.205 -2.938,1.7 -5.598,4.213 -8.741,5.152 -3.591,1.072 -4.007,4.114 -5.697,6.403 l 0.132,-0.119 c -1.789,0.377 -3.558,0.787 -5.321,-0.172 -0.799,-0.437 -1.538,-0.43 -2.41,0.145 -2.977,1.985 -6.073,0.92 -7.262,-2.328 -0.178,-0.483 -0.627,-0.86 -0.95,-1.29 -0.753,-0.687 -1.255,-1.501 -1.314,-2.553 1.598,-2.903 -0.997,-2.169 -2.132,-2.262 -3.084,-0.258 -6.041,-0.443 -8.53,-2.791 -1.776,-1.673 -3.882,-2.149 -5.229,0.767 l 0.119,-0.085 c -4.245,-0.411 -8.364,0.628 -12.53,1.071 -1.842,0.198 -3.756,0.681 -5.281,-1.329 -1.327,-1.753 -3.77,0.396 -5.394,-1.019 1.406,-4.67 5.81,-5.41 9.414,-7.163 0.482,-0.232 1.037,-0.265 1.274,-0.847 l -0.152,0.106 c 2.958,-0.747 6.332,-1.038 6.054,-5.417 l -0.099,0.139 c 1.307,-0.688 2.185,-2.374 3.955,-1.945 2.878,0.695 5.73,0.411 8.641,0.331 2.912,-0.079 4.859,-0.668 5.856,-3.538 0.845,-2.448 3.024,-2.388 4.767,-1.727 2.924,1.105 5.954,0.596 7.664,-1.852 2.04,-2.9165 2.846,-3.062 5.275,-0.575 1.162,1.19 2.093,1.521 3.71,0.761 2.965,-1.396 5.638,-3.8366 9.335,-3.0231 0.113,0.0265 0.297,-0.2844 0.443,-0.4299 l -0.113,0.086 z"
         fill="#ff5039"
         id="path15" /></g></g></svg>
