<?xml version="1.0" encoding="UTF-8" standalone="no"?>
<!-- Created with Inkscape (http://www.inkscape.org/) -->

<svg
   width="210mm"
   height="297mm"
   viewBox="0 0 210 297"
   version="1.1"
   id="svg1"
   xml:space="preserve"
   inkscape:export-filename="비트맵.svg"
   inkscape:export-xdpi="96"
   inkscape:export-ydpi="96"
   sodipodi:docname="예멘.svg"
   xmlns:inkscape="http://www.inkscape.org/namespaces/inkscape"
   xmlns:sodipodi="http://sodipodi.sourceforge.net/DTD/sodipodi-0.dtd"
   xmlns="http://www.w3.org/2000/svg"
   xmlns:svg="http://www.w3.org/2000/svg"><sodipodi:namedview
     id="namedview1"
     pagecolor="#ffffff"
     bordercolor="#000000"
     borderopacity="0.25"
     inkscape:showpageshadow="2"
     inkscape:pageopacity="0.0"
     inkscape:pagecheckerboard="0"
     inkscape:deskcolor="#d1d1d1"
     inkscape:document-units="mm" /><defs
     id="defs1" /><g
     inkscape:label="Layer 1"
     inkscape:groupmode="layer"
     id="layer1"><g
       style="fill:none"
       id="g1"
       transform="matrix(0.26458333,0,0,0.26458333,60.632624,120.58642)"><path
         d="m 297.995,0.188805 c -1.36,2.880515 -3.389,5.110585 -5.233,7.397445 -2.281,2.82885 -4.197,5.76105 -5.448,9.19385 -0.603,1.6571 -1.515,3.2677 -2.575,4.6822 -2.581,3.4483 -2.74,7.5574 -2.921,11.4859 -0.319,6.9276 -3.589,12.7041 -6.174,18.8214 -1.643,3.8923 -5.439,6.0656 -7.046,9.8804 -0.108,0.2633 -0.499,0.5111 -0.798,0.573 -4.388,0.8931 -7.287,4.3414 -10.98,6.4218 -0.489,0.2736 -1.107,0.8208 -1.159,1.2957 -0.463,4.3311 -3.744,4.7957 -7.024,5.2603 -2.601,0.3665 -4.646,1.5229 -6.011,3.851 -0.375,0.6401 -0.607,1.2544 -0.468,1.9358 0.587,2.9373 -0.325,5.6114 -1.391,8.2596 -0.257,0.6349 -0.623,1.2234 -0.891,1.8532 -0.643,1.5177 -0.793,2.8908 0.783,4.0472 1.679,1.2337 1.736,2.4365 0.361,4.2794 -2.431,3.273 -1.736,7.537 -2.756,11.295 -0.262,0.97 1.036,1.843 2.225,2.091 1.648,0.34 2.802,0.753 1.468,2.844 -1.143,1.791 0.772,2.122 1.736,2.173 3.198,0.171 5.716,2.127 8.626,3.025 2.843,0.883 4.141,3.34 5.191,5.921 1.324,3.253 1.319,3.144 -2.199,3.588 -3.651,0.465 -6.963,1.662 -10.197,3.707 -3.358,2.126 -6.901,4.79 -11.48,3.505 -0.705,-0.196 -1.581,-0.15 -2.291,0.067 -7.087,2.178 -14.328,4.119 -20.662,8.068 -2.581,1.611 -6.309,1.534 -7.787,4.672 -1.473,3.139 -3.461,5.833 -5.835,8.28 -1.592,1.642 -3.152,3.34 -4.908,4.796 -0.85,0.702 -2.313,0.79 -3.07,-0.15 -1.225,-1.512 -2.796,-2.761 -3.837,-4.315 -0.736,-1.095 -0.793,-1.084 -1.921,-0.63 -2.976,1.208 -5.865,0.325 -8.569,-1.094 -1.494,-0.785 -1.314,-2.68 -2.56,-3.924 -3.826,-3.82 -8.683,-5.585 -13.354,-7.759 -1.056,-0.49 -1.499,-0.949 -1.643,-2.183 -0.226,-1.936 -1.565,-3.5 -3.1,-4.491 -1.772,-1.136 -1.02,-1.817 0.062,-2.561 1.194,-0.82 2.497,-1.481 3.739,-2.23 2.389,-1.43 2.626,-3.768 0.468,-5.503 -1.102,-0.888 -1.864,-1.652 -0.824,-3.087 0.263,-0.366 0.196,-0.991 0.237,-1.497 0.252,-3.076 1.185,-5.575 4.007,-7.495 2.302,-1.57 3.239,-4.558 4.702,-6.949 0.855,-1.399 -0.613,-1.373 -1.504,-1.424 -4.589,-0.264 -9.167,-0.083 -13.715,0.573 -3.63,0.526 -7.261,0.996 -10.933,0.944 -7.478,-0.108 -14.822,1.384 -22.336,1.776 3.188,-3.639 6.309,-7.242 9.481,-10.799 3.358,-3.7634 6.757,-7.4905 10.146,-11.2228 0.927,-1.0221 1.148,-2.2249 1.138,-3.5671 -0.036,-5.2396 0.041,-10.4793 -0.046,-15.7189 -0.026,-1.6726 0.494,-2.4417 2.188,-2.1836 5.279,0.8001 8.709,-2.8857 12.582,-5.3532 1.447,-0.9189 1.823,-2.9786 2.189,-4.5479 1.504,-6.4631 5.85,-11.0988 9.775,-16.0029 3.734,-4.6615 7.699,-9.1422 11.5,-13.7521 0.628,-0.764 1.329,-1.2854 2.183,-1.6932 8.024,-3.8458 16.11,-7.5781 24.031,-11.6305 2.976,-1.5228 6.025,-2.2971 9.239,-2.643 10.233,-1.0944 20.466,-2.1991 30.715,-3.12314 17.752,-1.60028 35.087,-5.55453 52.51,-9.039017 0.68,-0.1342175 1.318,-0.325219 2.369,-0.020649 z"
         fill="#ff5b46"
         id="path19" /><path
         d="m 299.402,0.0155433 c 2.476,5.1862867 4.823,10.0461567 7.119,14.9371567 1.53,3.2641 3.417,6.4401 4.388,9.87 2.714,9.6005 7.93,18.0302 12.118,26.9365 0.837,1.7823 -0.864,4.0102 0.175,4.3003 1.913,0.5337 2.265,1.6942 2.895,3.088 2.414,5.321 4.787,10.6627 7.429,15.8697 1.008,1.9947 0.346,2.5387 -1.391,2.9428 -6.374,1.487 -12.334,4.2175 -18.279,6.7821 -4.606,1.9895 -7.775,5.9583 -9.45,10.9632 -0.915,2.7408 -2.745,5.4147 -1.292,8.2897 1.018,2.021 0.636,4.171 1.401,6.145 0.413,1.067 0.346,1.844 -1.127,2.228 -5.071,1.331 -9.569,4.129 -14.469,5.927 -1.194,0.44 -2.761,0.782 -2.812,2.596 -0.011,0.419 -0.218,0.523 -0.595,0.642 -7.749,2.451 -15.296,5.518 -23.268,7.316 -2.098,0.471 -2.982,-0.166 -3.737,-1.829 -0.496,-1.083 -0.76,-2.249 -1.52,-3.249 -3.644,-4.787 -9.191,-5.611 -14.371,-7.264 1.06,-3.036 0.889,-3.569 -2.171,-4.72 -1.241,-0.466 -1.69,-1.16 -1.318,-2.326 1.189,-3.772 0.718,-8.046 3.515,-11.3516 1.215,-1.4352 -0.134,-2.5336 -1.039,-3.2434 -1.742,-1.373 -1.639,-3.031 -0.667,-4.4454 1.613,-2.347 1.143,-5.378 2.838,-7.6318 0.134,-0.1761 0.233,-0.5854 0.134,-0.6994 -0.63,-0.7357 -1.871,-1.2435 -0.909,-2.518 1.147,-1.5181 2.398,-2.9481 4.326,-3.4766 0.983,-0.2694 2.001,-0.4559 3.014,-0.5802 3.123,-0.3783 4.803,-1.7772 5.707,-4.9065 0.155,-0.5337 0.409,-0.9119 0.853,-1.2228 3.64,-2.5646 7.119,-5.3883 11.435,-6.8131 0.315,-0.1036 0.77,-0.1606 0.905,-0.3886 3.132,-5.2174 7.128,-9.8027 9.703,-15.4863 2.879,-6.3572 3.748,-12.9269 4.389,-19.6416 0.191,-1.9999 1.08,-3.606 2.073,-5.1863 2.558,-4.0671 3.763,-8.8545 6.797,-12.66776 C 294.543,6.26395 296.833,3.28482 299.402,0 Z"
         fill="#ff5b46"
         id="path20" /><path
         d="m 44.0051,77.43 c 2.916,-1.3612 4.5976,-3.3487 6.2999,-5.243 4.6232,-5.1394 10.0179,-8.0274 17.1766,-7.2303 3.5433,0.3933 3.5793,0.0672 3.5793,-3.5195 0,-2.4118 0.0669,-4.8237 -0.0257,-7.2252 -0.0566,-1.5268 0.4268,-2.0444 2.0159,-2.1375 4.5307,-0.2692 8.8352,0.0621 12.4968,3.183 0.5605,0.4761 1.1725,0.9575 2.0314,0.9937 10.8716,0.4348 21.5327,3.4263 32.5177,2.6344 2.298,-0.1656 4.587,-0.4037 6.819,-0.8488 2.149,-0.4296 3.713,-0.3261 4.999,1.7546 1.434,2.3186 3.183,4.4458 4.803,6.6455 0.787,1.0662 1.147,2.1996 1.121,3.5764 -0.082,4.213 -0.494,8.4984 0.077,12.6337 0.838,6.0711 -4.721,11.4331 -11.273,12.0024 -9.354,0.8074 -18.719,2.0702 -27.8526,4.5287 -3.2297,0.8699 -5.6827,2.6709 -7.2101,5.6879 -0.3446,0.683 -0.6223,1.465 -1.5428,1.563 -3.6616,0.399 -7.3129,1.527 -10.738,-1.211 -2.8593,-2.288 -5.9192,-4.363 -9.0871,-6.1952 -2.8131,-1.6303 -6.0633,-0.7298 -9.0615,-0.4968 -2.2782,0.1759 -4.3661,-0.5797 -6.5826,-0.528 -1.2034,0.0259 -3.5434,-4.539 -3.2039,-5.7605 0.3908,-1.3974 1.4039,-2.7689 -0.612,-3.9593 -0.648,-0.383 -0.288,-1.7856 -0.108,-2.7069 0.7508,-3.8662 -1.3114,-6.8836 -5.1942,-7.572 C 45.1417,77.9424 44.8537,77.7716 44,77.43 Z"
         fill="#ff5b46"
         id="path16" /><path
         d="m 165.885,109.778 c -1.713,3.138 -3.641,5.994 -6.335,8.267 -1.466,1.239 -2.222,2.733 -2.057,4.699 0.051,0.645 -0.124,1.367 -0.381,1.971 -0.905,2.119 -1.357,3.874 1.419,5.17 1.337,0.624 0.731,2.917 -0.92,3.895 -1.46,0.865 -2.962,1.633 -4.381,2.605 -1.389,0.952 -1.193,1.69 -0.278,2.596 1.815,1.786 4.361,3.112 3.764,6.326 -0.026,0.134 0.283,0.456 0.468,0.482 3.445,0.44 5.698,3.608 9.369,3.849 1.661,0.113 2.463,2.57 4.114,3.547 1.162,0.691 1.861,1.961 2.622,3.21 1.661,2.738 4.747,3.491 7.781,3.194 2.283,-0.225 4.124,0.092 5.666,1.797 0.566,0.624 1.615,1.448 1.147,2.052 -0.602,0.783 -2.098,1.71 -2.797,1.454 -2.633,-0.968 -4.819,0.215 -7.127,0.885 -0.926,0.272 -1.517,0.277 -2.412,-0.506 -2.983,-2.616 -6.135,-2.401 -9.189,0.128 -1.466,1.213 -2.828,2.549 -5.076,2.585 -1.27,0.02 -2.314,1.29 -3.337,2.206 -2.154,1.914 -4.412,3.721 -6.572,5.63 -1.568,1.383 -3.651,1.321 -5.45,2.058 -1.126,0.461 -1.229,-0.476 -1.224,-1.305 0.015,-3.629 -0.91,-7.207 -0.535,-10.852 0.072,-0.701 -0.041,-1.443 -0.735,-1.781 -1.707,-0.819 -2.438,-2.012 -2.448,-3.993 -0.01,-1.474 -1.563,-1.807 -2.422,-0.865 -1.969,2.155 -3.954,1.418 -5.795,0.246 -2.314,-1.469 -4.654,0.22 -6.927,-0.405 -0.144,-0.041 -0.411,0.272 -0.586,0.451 -3.491,3.486 -4.206,3.793 -9.153,3.731 1.692,-2.283 2.525,-4.386 0.103,-6.715 -1.63,-1.572 -3.301,-2.089 -4.942,-0.855 -2.149,1.617 -3.594,1.259 -5.08,-0.696 -0.278,-0.364 -0.977,-0.83 -1.26,-0.712 -2.993,1.229 -2.695,-1.07 -3.168,-2.733 -0.766,-2.662 -1.337,-5.559 -4.9002,-6.02 -0.9102,-0.118 -1.0079,-0.85 -0.9256,-1.551 0.2777,-2.36 -1.0953,-2.616 -2.9876,-2.58 -3.3322,0.067 -3.2602,0.015 -2.5248,-3.337 0.5553,-2.534 0.3239,-5.349 2.4219,-7.31 2.4477,-2.283 4.5457,-4.904 7.5233,-6.67 5.327,-3.168 10.346,-6.833 15.606,-10.13 2.566,-1.607 5.235,-1.146 7.816,-1.561 11.504,-1.848 23.253,-1.07 34.757,-3.097 2.437,-0.43 4.864,0.246 7.353,0.64 z"
         fill="#ff5b46"
         id="path18" /><path
         d="m 59,117.638 c 3.0301,-0.362 4.6407,-2.995 7.4333,-3.484 0.7537,-0.133 1.5951,-0.832 1.5641,-1.786 -0.0258,-0.867 -0.8207,-1.276 -1.5692,-1.49 -1.6209,-0.464 -2.07,-1.857 -2.1423,-3.143 -0.1445,-2.428 -0.7072,-4.678 -1.9357,-6.755 -0.9808,-1.6627 -0.284,-1.8464 1.3266,-1.9842 3.7012,-0.3214 6.8036,0.5919 9.6375,3.0762 2.1577,1.893 4.682,3.398 7.1236,4.954 3.4534,2.204 10.4531,0.521 12.4199,-2.964 1.0685,-1.898 2.7049,-2.969 4.6974,-3.668 5.2648,-1.842 10.7838,-2.4645 16.2448,-3.3471 4.45,-0.7194 8.915,-1.3673 13.385,-1.9693 1.167,-0.1582 2.37,-0.0255 3.815,-0.0255 -2.504,3.6478 -5.776,6.3829 -8.383,9.6679 -1.105,1.393 -2.406,2.633 -3.526,4.015 -3.071,3.812 -7.314,6.112 -11.434,8.475 -3.618,2.076 -6.932,4.622 -10.3857,6.882 -2.8391,1.857 -6.1841,4.255 -7.2681,7.903 -0.8208,2.775 -1.8377,5.689 -1.4454,8.602 0.1807,1.336 1.5331,2.479 0.4078,4.03 -0.4026,0.556 -0.8105,1.107 -1.2028,0.322 -0.862,-1.74 -1.5021,-1.204 -2.2248,0.02 -0.2581,0.439 -0.604,1.138 -1.0995,0.811 -2.0752,-1.362 -3.505,0.536 -4.4755,1.357 -2.0545,1.74 -2.8339,0.551 -3.2985,-0.954 -0.6143,-1.989 -0.9395,-4.112 -1.0531,-6.198 -0.0929,-1.689 -0.2994,-2.541 -2.3487,-2.113 -0.5833,0.123 -1.6673,0.776 -2.3178,-0.183 -0.7485,-1.102 0.5317,-1.623 0.7743,-2.449 0.9963,-3.388 4.3052,-5.383 5.384,-8.719 0.2065,-0.638 0.3459,-1.291 0.5162,-1.939 0.4182,-1.622 0.0672,-2.423 -1.8583,-2.929 -2.0854,-0.551 -3.918,-2.005 -5.9208,-2.943 -1.1357,-0.531 -2.7153,-1.562 -2.5759,1.102 0.0465,0.898 -0.5575,1.107 -1.3473,1.117 -1.0014,0.015 -1.5589,-0.699 -1.5331,-1.398 0.1239,-3.25 -1.337,-2.352 -3.0198,-1.26 -0.6865,0.444 -1.4402,0.566 -2.3642,-0.643 z"
         fill="#ff5b46"
         id="path17" /><path
         d="m 79.7357,176.787 c 2.6714,-0.168 3.1097,-1.414 2.0453,-3.394 3.4071,-0.23 3.5584,-0.46 2.3427,-3.324 1.9566,-0.883 4.0332,0.878 6.0107,-0.265 0.4435,-0.255 0.8505,0.347 1.2314,0.715 1.9409,1.858 4.508,1.817 6.2768,-0.143 1.4348,-1.588 3.4594,-2.251 5.2494,-3.201 2.514,-1.337 3.36,-3.558 3.871,-5.906 0.485,-2.231 3.856,-5.426 6.099,-5.263 2.646,0.199 4.488,3.553 3.173,5.835 -0.423,0.73 -1.247,1.403 -0.694,2.276 0.615,0.97 1.518,0.276 2.332,0.123 0.924,-0.174 1.894,-0.342 2.812,-0.25 1.654,0.168 2.948,-0.597 3.908,-1.613 1.086,-1.149 1.613,-2.711 3.773,-2.374 1.596,0.25 3.313,-0.194 4.763,0.847 1.294,0.929 3.209,-0.132 4.414,1.389 0.22,0.281 0.997,-0.71 1.341,-1.292 0.324,-0.546 0.747,-0.985 1.456,-0.755 0.637,0.209 0.595,0.812 0.538,1.291 -0.178,1.445 0.375,2.425 1.7,3.089 0.345,0.173 0.778,0.653 0.757,0.97 -0.235,3.869 1.252,7.621 0.767,11.511 -0.146,1.184 -0.464,1.705 -1.753,1.985 -3.866,0.843 -7.493,2.272 -11.14,3.875 -4.643,2.037 -9.95,2.006 -14.99,1.444 -3.668,-0.408 -7.195,0.46 -10.806,0.281 -1.419,-0.071 -2.864,0.582 -4.309,0.674 -6.1102,0.373 -10.0704,3.895 -13.1488,8.596 -1.2053,1.843 -2.7706,2.706 -4.8889,2.813 -1.6958,0.087 -3.141,0.842 -4.6489,1.485 -0.574,0.245 -1.174,1.455 -1.8992,0.307 -0.407,-0.643 -0.4957,-1.578 0.1669,-2.129 2.254,-1.873 2.8958,-4.533 3.7306,-7.085 0.1931,-0.592 0.3235,-1.082 0.9288,-1.404 2.3375,-1.24 2.0714,-2.716 0.2087,-4.099 -1.5444,-1.144 -1.4297,-1.909 0.0626,-3.048 0.887,-0.678 1.7218,-1.842 1.2366,-3.113 -0.4488,-1.175 -1.7219,-0.674 -2.901,-0.858 z"
         fill="#ff5b46"
         id="path13" /><path
         d="m 30.7093,133.079 c -1.2974,0.877 -2.6681,1.148 -3.887,2.255 -1.9043,1.739 -2.8669,3.112 -1.4021,5.446 0.0471,0.074 0.1151,0.188 0.0889,0.241 -2.0298,3.561 0.8214,6.375 1.5329,9.498 0.272,1.2 0.0419,1.952 -0.926,2.307 -1.7683,0.653 -1.4334,1.536 -0.6539,2.768 0.7952,1.253 1.9775,2.517 0.5336,4.156 -0.3401,0.387 0.0104,1.311 0.4185,1.337 2.7571,0.198 4.1016,4.229 7.5858,2.678 -1.0934,0.429 0.0994,3.243 -2.3961,1.985 -0.4551,-0.23 -1.0515,0.459 -0.9521,0.971 0.4918,2.433 -1.3184,2.177 -2.6629,2.24 -1.8781,0.089 -2.8303,0.679 -3.343,2.741 -0.3139,1.264 -1.2712,2.768 -2.6942,3.66 -1.6166,1.019 -2.8669,0.925 -3.1494,-1.07 -0.6958,-4.835 -4.8079,-8.166 -5.5508,-12.939 -0.4289,-2.752 -1.8624,-5.169 -2.5634,-7.832 -0.068,-0.251 -0.3401,-0.522 -0.2825,-0.71 1.3968,-4.496 -1.33932,-8.386 -1.92002,-12.584 -0.18311,-1.305 -0.08371,-2.517 -0.08371,-3.775 0,-1.222 -0.0994,-2.632 -1.05678,-3.363 -1.24511,-0.955 -1.34975,-2.057 -1.35498,-3.399 -0.00523,-2.846 -2.40652,-3.295 -4.36314,-4.062 -1.773503,-0.695 -1.810124,-0.601 -1.438682,-2.569 1.140482,0.329 1.459612,1.613 2.443152,2.109 0.77427,-0.454 1.31836,-1.248 1.08817,-1.937 -0.97308,-2.903 -0.51793,-6.114 -2.24958,-8.882 -1.893837,-3.023 -0.721962,-7.937 2.12925,-10.239 0.56501,-0.455 1.03062,-0.575 1.5904,-0.052 2.55824,2.391 5.26822,1.326 7.97292,0.334 0.2407,-0.089 0.4552,-0.267 0.701,-0.34 1.2713,-0.365 2.71,-1.759 3.8034,-0.6 0.9155,0.971 -0.0785,2.517 -0.2877,3.832 -0.4447,2.799 -0.2773,5.718 0.5022,8.532 0.2459,0.883 0.6173,1.703 0.2773,2.752 -0.6487,2.01 0.0157,4.099 1.6532,5.096 2.7047,1.645 4.091,4.35 5.943,6.6 1.4335,1.744 2.9402,2.381 4.9543,2.809 z"
         fill="#ff5b46"
         id="path3" /><path
         d="m 69.7484,58.3257 c 0,1.8198 0.6737,4.1677 -0.1838,5.3234 -0.9187,1.2342 -3.3024,0.2092 -5.0277,0.1569 -4.9103,-0.1516 -8.8406,1.8983 -12.2553,5.2503 -2.741,2.6878 -5.2676,5.5954 -8.4323,7.8231 -1.2965,0.9151 -2.8124,0.8785 -3.8588,0.4497 -4.1294,-1.6943 -7.8708,0.1778 -11.7807,0.753 -2.6848,0.3922 -5.436,0.2039 -8.1311,0.8628 -1.0106,0.2511 -1.9702,-0.3765 -2.4449,-1.4694 -0.4441,-1.0093 -0.0766,-1.4851 0.6891,-2.3375 1.7099,-1.8983 -0.5615,-2.8029 -1.5466,-3.807 C 16.174,70.7192 15.0357,70.6617 15,69.4485 c 2.1234,0.0313 -0.7095,-3.9639 2.4654,-3.1742 0.4645,0.115 0.8932,-0.57 0.8064,-1.1243 -0.148,-0.9518 -0.4645,-1.846 -1.47,-2.2591 -0.4032,-0.1674 -1.0617,0.1725 -1.1587,-0.6485 -0.0918,-0.7687 2.2714,-4.9678 3.0575,-5.1613 2.006,-0.4968 2.7002,-1.2812 0.735,-2.8239 -1.7967,-1.4119 -1.0106,-2.9441 -0.0663,-4.3351 1.4291,-2.1179 5.7882,-2.5885 7.6717,-0.8942 0.8218,0.7373 1.7405,1.4433 2.3173,2.3637 1.8222,2.9075 4.6857,3.3258 7.636,3.603 1.9447,0.183 4.0068,0.9203 5.4718,-1.2498 0.1225,-0.1831 0.638,-0.1255 0.9647,-0.1151 3.6495,0.1308 7.0132,-1.5897 10.6271,-1.6786 0.4236,-0.0104 0.9391,-0.2353 1.2556,-0.0627 4.0834,2.2852 8.1311,-0.4864 12.2145,-0.0889 1.6844,0.1673 2.5113,0.4706 2.3327,2.3584 -0.1276,1.3753 -0.0255,2.7768 -0.0255,4.1678 -0.0256,0 -0.0511,0 -0.0766,0 z"
         fill="#ff5b46"
         id="path15" /><path
         d="m 68.2981,174.774 c 1.6799,0.807 3.1022,-0.094 4.1792,-0.958 2.3602,-1.89 5.4264,-3.119 6.4931,-6.379 0.0979,-0.302 0.5153,-0.802 0.5926,-0.766 2.4581,1.099 3.1898,-1.213 4.5297,-2.301 0.8863,-0.719 1.6644,-0.318 1.6541,0.583 -0.0206,1.302 1.1595,3.135 -1.4068,3.687 -1.8551,0.401 -0.2061,1.838 -0.4226,2.874 -1.5614,0.136 -3.298,0.219 -2.4271,2.645 0.1803,0.506 0.1546,0.714 -0.469,0.854 -0.7884,0.183 -1.9221,0.417 -1.5717,1.578 0.3092,1.016 1.4275,0.698 2.252,0.771 0.2319,0.021 0.4534,0.135 0.6956,0.213 -0.0463,1.453 -1.2367,2.047 -1.9839,2.948 -0.8142,0.984 -1.5718,1.796 0.1546,2.822 1.7263,1.021 2.5972,2.375 0.1185,3.801 -0.7163,0.412 -0.8245,1.438 -1.0255,2.297 -0.5205,2.202 -1.2522,4.322 -3.0559,5.848 -1.0821,0.916 -1.3037,1.968 -0.5823,3.212 0.8503,1.464 0.1392,1.729 -1.2058,1.745 -1.6284,0.015 -3.1074,0.573 -4.6121,1.276 -2.9322,1.374 -6.2045,0.921 -9.3119,1.197 -2.9064,0.261 -4.777,1.484 -6.0241,4.015 -1.3089,2.656 -3.6536,3.801 -6.4673,3.109 -0.9481,-0.234 -1.8396,-0.427 -2.7363,0.042 -2.3962,1.26 -4.3802,1.76 -7.0908,-0.178 C 35.668,207.637 31.8958,206.83 28,206.304 c 1.3965,-2.083 1.6748,-4.723 4.0298,-6.077 0.335,-0.193 0.7936,-0.781 0.7112,-1 -1.4893,-3.858 2.9785,-2.447 3.8391,-4.27 0.0618,-0.13 2.1128,0.557 3.1383,1.078 0.8709,0.443 1.5202,0.88 2.0046,-0.385 0.0721,-0.182 0.4792,-0.443 0.5411,-0.396 2.2365,1.651 2.9167,-1.921 4.7925,-1.458 0.0927,0.021 0.2885,-0.187 0.3607,-0.328 0.8245,-1.515 1.345,-1.823 3.2517,-1.88 2.2983,-0.073 2.9064,-0.849 2.3962,-3.109 -0.2989,-1.327 -0.6545,-2.624 1.5305,-2.332 0.6029,0.078 1.2316,-0.235 1.2368,-1.011 0,-0.609 -0.4741,-0.88 -1.0152,-0.973 -0.5772,-0.105 -1.2162,-0.047 -1.6027,-0.834 1.7109,-1.077 3.731,-1.567 5.1481,-3.129 0.6493,-0.714 1.6284,0.021 2.4426,0.156 2.6333,0.432 4.9935,-1.208 7.6061,-0.963 0.8658,0.083 0.8555,-0.505 0.6648,-1.229 -0.2783,-1.052 -0.9224,-2.026 -0.7833,-3.374 z"
         fill="#ff5b46"
         id="path1" /><path
         d="m 39.5099,170.341 c -1.148,1.793 -1.2467,2.493 0.9142,2.607 2.3532,0.123 4.592,1.741 6.8205,1.787 2.3116,0.052 4.9661,2.678 7.1894,-0.731 0,0.69 0.1143,1.076 -0.0156,1.339 -1.2935,2.508 -1.1428,2.792 1.6311,2.719 0.7117,-0.02 1.4493,-0.123 1.8233,0.613 0.4312,0.835 -0.3325,1.273 -0.8207,1.669 -0.9195,0.747 -1.8234,1.592 -3.0753,1.772 -0.883,0.124 -1.4181,0.51 -1.496,1.453 -0.0987,1.184 0.9454,0.984 2.0571,1.566 -2.9662,-0.212 -2.535,1.571 -2.4675,3.033 0.1143,2.401 -1.496,3.673 -3.4908,2.318 -1.5531,-1.05 -1.9427,-0.164 -2.1142,0.763 -0.3012,1.591 -2.4882,1.617 -2.5141,3.301 0,0.057 -0.1559,0.17 -0.1663,0.16 -1.7921,-1.473 -3.7089,1.314 -5.5322,-0.185 -1.6311,-1.34 -2.7843,0.396 -4.1765,0.654 -1.9636,0.36 -2.67,1.118 -2.3947,2.987 0.0467,0.314 0,0.871 -0.1766,0.963 -3.283,1.669 -2.9142,5.898 -5.766,7.871 -0.0676,-0.036 -0.3481,-0.134 -0.3377,-0.18 0.9247,-4.713 -2.2492,-8.18 -4.618,-11.229 -3.8284,-4.93 -2.8362,-9.859 -2.0726,-15.005 0.348,-2.348 0.6753,-4.687 3.8699,-5.537 1.0286,-0.273 2.8882,-1.957 2.8986,-3.971 0,-0.845 0.2442,-1.679 1.1844,-1.7 1.2415,-0.026 3.096,-0.886 3.6206,0.077 1.5169,2.787 3.4752,0.902 5.231,0.876 0.4156,-0.005 1.0337,-0.757 1.2363,-0.026 0.5766,2.117 1.5428,1.056 2.7636,0.047 z"
         fill="#ff5b46"
         id="path2" /><path
         d="m 61,154.212 c 2.2084,0.026 2.6813,-0.904 3.5023,-2.264 1.2575,-2.083 1.4549,-3.732 0.7742,-5.877 -0.3273,-1.034 -0.1922,-2.3 0.9146,-3.019 2.1408,-1.391 4.0478,-3.189 6.62,-3.856 1.3666,-0.357 2.4422,-0.414 2.5773,1.494 0.1196,1.695 0.4469,3.375 0.7483,5.05 0.5768,3.174 2.2604,3.923 5.0456,2.336 0.3273,-0.186 0.9665,-0.284 1.2159,-0.098 1.2887,0.951 2.0837,0.155 3.0866,-0.553 1.0392,-0.729 1.8187,-2.062 3.6685,-1.24 0.9873,0.439 1.3043,-1.065 1.5641,-1.949 0.3897,-1.318 0.8834,-2.259 2.6293,-2.114 1.8499,0.155 1.3926,1.38 1.4602,2.408 0.0519,0.848 0.2909,1.722 1.2263,1.67 4.3388,-0.217 4.4588,3.313 4.8528,5.914 0.359,2.357 0.562,3.504 3.305,2.744 1.616,-0.449 3.03,1.872 2.78,3.552 -0.343,2.3 -1.813,4.099 -2.364,6.27 -0.192,0.765 -0.92,1.029 -1.471,1.359 -2.114,1.293 -4.3384,2.342 -6.2714,4.012 -1.0185,0.884 -3.0866,1.768 -4.3961,-0.414 -0.5871,-0.977 -1.7147,-0.724 -2.6189,-0.605 -1.9538,0.259 -3.2892,-0.036 -3.258,-2.45 0.0104,-1.029 0.1922,-2.321 -1.2575,-2.812 -1.5173,-0.517 -1.8811,0.915 -2.6345,1.582 -1.7823,1.571 -2.1565,1.225 -3.5854,-0.832 -1.5381,-2.213 -3.4504,-4.198 -5.0092,-6.436 -0.1923,-0.279 -0.7691,-0.408 -1.164,-0.414 -2.8891,-0.01 -5.7678,0.099 -8.4751,1.324 -0.7223,0.331 -1.5433,0.367 -2.2292,-0.119 -0.9353,-0.667 -0.0208,-1.122 0.239,-1.68 0.5456,-1.163 -0.4676,-1.809 -1.4705,-2.988 z"
         fill="#ff5b46"
         id="path14" /><path
         d="m 3.01517,86.3982 c 1.36064,0.3896 2.56953,0.8051 3.83911,0.3636 0.94587,-0.3324 1.87656,-0.509 1.69953,-2.031 -0.22761,-1.9843 1.57809,-1.9895 2.74659,-2.218 1.6439,-0.3221 2.7465,-0.7999 2.8022,-2.779 0.0505,-1.7973 1.0925,-2.0986 2.5442,-1.3558 2.175,1.1168 4.264,1.3714 6.6969,0.4104 2.2256,-0.8779 3.1563,0.3532 3.48,2.7998 0.344,2.5816 -1.3201,4.8152 -0.6474,7.4903 0.6929,2.7479 1.6135,5.3866 2.529,8.041 0.3086,0.8882 1.391,1.6154 -0.1062,2.4985 -0.5665,0.3324 -0.5918,1.392 -0.0961,1.854 0.4755,0.437 1.0673,-0.145 1.4719,-0.566 0.3895,-0.405 0.6171,-1.2101 1.3404,-0.857 0.6272,0.307 0.6778,1.023 0.87,1.704 0.6525,2.353 -0.3338,4.846 0.6879,7.173 0.1518,0.343 0.4704,1.756 -1.2341,1.226 -1.1836,-0.369 -1.8766,0.785 -1.3556,2.213 0.5412,1.496 -0.086,2.332 -1.5377,1.901 -3.0602,-0.904 -5.9888,-0.182 -8.877,0.592 -1.7703,0.473 -2.2863,-0.275 -1.9221,-1.683 0.5918,-2.296 -0.7132,-4.529 0.5514,-7.017 1.2544,-2.462 -0.6272,-3.948 -3.308,-3.127 -1.6035,0.488 -3.126,1.194 -4.7243,1.709 -2.14466,0.691 -3.75314,-0.135 -5.41221,-1.164 C 3.69802,102.735 4.47191,101.353 4.62365,100.408 5.38237,95.6183 3.83459,91.1823 3,86.3982 Z"
         fill="#ff5b46"
         id="path12" /><path
         d="m 50.8624,83.8446 c -0.2749,2.1674 -1.5873,4.3912 0.4098,6.3891 0.1609,0.1592 0.0986,0.7088 -0.0518,0.9707 -1.0271,1.7873 -0.5291,3.1586 0.9804,4.422 1.0011,0.8372 1.2761,1.8849 -0.4461,2.0339 -1.3384,0.1181 -2.5418,0.7652 -3.5482,1.2685 -1.6496,0.8269 -1.5043,2.9172 -1.3331,4.6532 0.0467,0.462 0.9026,0.981 0.5031,1.32 -2.2305,1.89 -1.8103,5.054 -3.5948,7.088 -0.5447,0.621 -1.4576,1.777 -2.4484,0.261 -0.3942,-0.6 -0.8663,-0.4 -1.2917,-0.015 -0.3683,0.334 -0.7936,0.642 -1.0582,1.048 -0.2386,0.364 -0.6328,0.97 -0.8611,0.601 -1.6703,-2.712 -5.3533,2.285 -6.6087,-1.747 -0.1763,-0.575 -0.6484,-1.099 0.2802,-1.402 2.5469,-0.837 2.1942,-1.571 1.9089,-4.165 -0.1816,-1.633 -0.5343,-3.42 -0.472,-5.156 0.0466,-1.3 -0.5603,-1.9161 -1.8052,-2.63 -1.5666,-0.8988 -2.6923,-2.6604 -2.5211,-4.7199 0.0623,-0.7807 0.3579,-1.4791 -0.4772,-2.039 -2.2565,-1.5099 -1.1983,-3.9495 -1.0531,-5.7317 0.109,-1.3302 0.4098,-2.6655 0.2438,-4.0779 -0.1141,-0.9912 -0.2386,-2.7374 0.1712,-2.9121 2.4485,-1.0272 5.1718,-2.5885 7.5632,-2.2598 2.8115,0.3852 5.6438,1.207 8.5176,1.1453 3.2836,-0.0719 4.9487,2.0287 6.6294,4.2166 0.275,0.3595 0.2438,0.9502 0.3528,1.433 z"
         fill="#ff5b46"
         id="path11" /><path
         d="m 45.3996,152.814 c 0,-0.519 0.0104,-1.038 0,-1.557 -0.0156,-0.619 0,-1.269 -0.8191,-1.395 -0.648,-0.1 -1.2442,0.078 -1.5604,0.671 -0.8347,1.579 -2.0789,2.696 -3.6445,3.472 -1.1146,0.55 -0.4458,1.248 -0.2488,1.966 0.4562,1.663 -0.5029,2.654 -2.1307,2.004 -1.4412,-0.577 -1.8663,-0.105 -2.0374,1.227 -0.0881,0.682 -0.2644,1.363 -0.4925,2.014 -0.6687,1.893 -2.3847,2.349 -3.9192,1.033 -0.5339,-0.457 -1.0264,-0.845 -1.7678,-0.965 -1.2649,-0.21 -2.5506,-0.498 -1.2027,-2.261 0.5184,-0.676 -0.0881,-1.263 -0.4406,-1.866 -0.6325,-1.086 -1.1509,-2.24 -2.1359,-4.196 3.3593,2.323 4.2925,-0.388 5.8322,-1.495 0.5236,-0.377 0.762,-1.248 1.6174,-0.86 2.0011,0.902 3.4682,-0.32 5.0027,-1.227 3.5667,-2.108 3.8674,-5.323 0.7621,-8.149 -0.5081,-0.462 -1.182,-0.745 -1.6434,-1.238 -0.6169,-0.656 -1.9285,-1.112 -1.5863,-2.129 0.3939,-1.175 1.4515,-0.231 2.2395,-0.179 0.9176,0.058 1.6123,-0.461 2.2603,-1.069 1.3116,-1.228 2.5506,-2.575 4.0073,-3.587 1.6123,-1.123 3.2971,-0.567 4.7383,0.571 1.773,1.395 3.6393,1.605 5.6248,0.614 0.4096,-0.205 0.674,-0.394 1.1405,-0.11 1.7626,1.059 3.1987,0.146 4.6865,-0.782 0.8606,-0.54 1.8507,-0.933 2.8305,-1.201 1.3324,-0.362 2.1515,0.063 2.0685,1.684 -0.0881,1.683 -0.3681,3.241 2.0789,3.959 1.8507,0.546 1.6952,2.664 0.0829,3.923 -1.8818,1.463 -2.7891,3.288 -1.8093,5.7 1.0006,2.455 -1.042,4.023 -1.9336,5.795 -0.3474,0.693 -1.6382,1.054 -2.3122,2.234 -0.6687,1.175 -2.5765,-0.251 -3.1623,-0.786 -1.0835,-0.986 -2.2758,-1.049 -3.4371,-1.458 -0.5651,-0.199 -1.3893,-0.074 -1.7159,-0.441 -2.3692,-2.643 -4.5776,-2.984 -6.9623,0.095 z"
         fill="#ff5b46"
         id="path7" /><path
         d="m 31,166.618 c 1.2461,0.659 2.0838,0.511 2.3927,-0.792 0.2984,-1.252 1.3508,-2.192 1.1727,-3.745 -0.0733,-0.628 -0.1832,-2.585 2.2304,-2.6 1.6073,-0.011 3.8953,-1.395 2.8691,-4.072 -0.2827,-0.731 0.3351,-0.915 0.733,-1.119 1.4398,-0.736 2.2042,-2.084 3.2042,-3.29 1.0262,0.828 -0.5655,2.856 1.3455,3.024 1.7906,0.159 3.0891,-0.781 3.3613,-2.528 4.2304,2.406 8.4136,4.521 13.1361,5.568 -0.2687,1.315 0.2496,2.451 1.555,3.408 -2.9162,1.073 -3.9791,3.029 -2.8325,5.339 -2.0523,0 -3.6911,0.112 -4.2932,2.769 -0.4293,1.88 -2.6492,3.187 -2.9057,5.446 -0.0628,0.556 -0.9529,1.267 -1.6492,0.848 -2.5288,-1.513 -5.5393,-1.073 -8.1728,-2.075 -1.1309,-0.429 -2.2618,-0.623 -3.5079,-0.362 0.3404,-1.461 2.021,-3.633 -1.4712,-2.396 -1.979,-2.054 -3.7539,-0.322 -5.6387,0.224 -1,0.292 -1.8848,-0.229 -1.0681,-1.302 0.7644,-1.012 -0.3769,-1.318 -0.4607,-2.345 z"
         fill="#ff5b46"
         id="path6" /><path
         d="m 67.7651,179.213 c -2.6507,-1.06 -4.5847,1.048 -7.0343,0.76 -2.5167,-0.295 -3.5223,-4.275 -6.6785,-2.21 0.8922,-1.498 0.8252,-2.793 0.1754,-4.093 -0.5209,-1.038 -0.0722,-1.744 0.5827,-2.59 0.7633,-0.989 1.6761,-1.856 1.8257,-3.386 0.1444,-1.509 1.7637,-1.274 2.8725,-1.536 1.0056,-0.235 2.3826,-0.374 0.6188,-1.717 -0.6756,-0.514 -0.4435,-0.862 0.0774,-1.45 1.5368,-1.718 3.5481,-2.889 5.317,-4.19 0.8303,-0.61 3.1355,-0.406 4.7342,-0.706 1.8669,-0.348 3.0633,0.252 3.9865,1.9 0.8251,1.465 1.3202,3.108 3.2489,3.809 1.0985,0.401 0.3146,4.858 -1.3666,6.11 -2.527,1.878 -4.595,4.874 -8.3597,4.302 -0.9592,-0.145 -1.3821,0.47 -1.0108,1.535 0.3662,1.065 0.6395,2.167 1.0057,3.456 z"
         fill="#ff5b46"
         id="path5" /><path
         d="m 26.8911,114.311 c 1.6349,0.482 3.5128,0.462 5.4261,0.488 1.0376,0.01 1.9841,0.05 2.8294,-0.468 1.397,-0.859 2.384,0.163 3.4014,0.706 1.2351,0.661 -0.4707,1.052 -0.3037,1.357 1.3565,2.48 -1.0933,2.064 -1.9386,3.044 -2.1056,2.44 -5.0312,3.146 -7.557,4.66 -0.8959,0.539 -1.2198,1.484 -0.9415,2.424 0.3746,1.246 -0.1467,2.13 -1.1338,2.414 -1.073,0.31 -2.1663,-0.564 -2.2575,-1.519 -0.1923,-2.104 -1.8576,-2.648 -3.1533,-3.629 C 19.4859,122.442 19,120.841 19,118.468 c 0,-4.671 3.7102,-2.77 5.7146,-3.812 0.5568,-0.289 1.3008,-0.223 2.1714,-0.345 z"
         fill="#ff5b46"
         id="path10" /><path
         d="m 27.3646,153 c 0.9563,-2.698 -0.7484,-4.819 -1.502,-7.103 -0.1716,-0.511 -1.0031,-0.894 -0.842,-1.492 0.5561,-2.07 0.4833,-4.093 0.3742,-6.224 -0.052,-0.981 1.9438,-2.376 3.2899,-3.03 1.4864,-0.721 1.6891,1.349 2.5726,1.809 2.2609,1.17 3.5134,3.413 5.6235,4.655 1.9802,1.165 2.2764,3.327 2.0581,4.916 -0.2754,2.018 -4.189,3.689 -6.0444,3.204 -0.9563,-0.251 -2.24,-0.2 -2.5311,0.531 -0.5769,1.462 -2.0269,1.758 -2.9988,2.734 z"
         fill="#ff5b46"
         id="path8" /><path
         d="m 301,199.853 c 0.966,-0.369 2.069,-0.67 1.993,-1.619 -0.22,-2.832 2.033,-3.67 3.673,-4.066 1.671,-0.4 3.766,-0.147 5.37,1.43 0.935,0.917 2.11,1.761 3.52,1.998 0.48,0.079 1.083,0.612 1.415,0.132 2.003,-2.895 5.871,-0.575 8.042,-3.117 0.455,-0.532 1.129,0.517 1.748,0.749 2.662,1.007 5.283,2.125 7.95,3.101 2.186,0.796 1.134,1.788 0.178,2.674 -0.403,0.369 -1.073,0.495 -1.64,0.601 -2.171,0.401 -4.113,1.123 -5.891,2.647 -1.778,1.524 -4.302,0.986 -6.468,1.44 -1.788,0.374 -3.643,0.622 -5.472,0.938 -3.418,0.591 -6.591,0.238 -8.92,-2.805 -1.411,-1.851 -3.669,-2.431 -5.493,-4.098 z"
         fill="#ff5b46"
         id="path21" /><path
         fill-rule="evenodd"
         clip-rule="evenodd"
         d="m 64.0674,119.702 c -0.0096,-0.501 -0.0196,-1.019 -0.1631,-1.486 H 63.894 c -0.2928,0.134 -0.5774,0.288 -0.8583,0.44 -1.1341,0.613 -2.208,1.194 -3.5137,0.313 -0.0586,-0.04 -0.1183,-0.078 -0.1779,-0.117 -0.4602,-0.298 -0.9115,-0.591 -0.7244,-1.24 0.165,-0.562 0.4228,-1.212 1.1549,-1.212 1.5093,0.003 2.6399,-0.804 3.7734,-1.613 0.9535,-0.68 1.9091,-1.362 3.0939,-1.565 0.8043,-0.139 1.2064,-0.964 0.1753,-1.387 -2.7306,-1.126 -2.9769,-3.375 -3.2388,-5.766 -0.0214,-0.196 -0.0429,-0.393 -0.066,-0.59 -0.2732,-2.327 -0.8352,-5.35 -3.0985,-5.9326 -3.5574,-0.9183 -7.3365,-1.687 -11.1517,0.1857 -1.7838,0.8769 -2.0519,2.0689 -1.4951,3.1469 1.0981,2.136 0.0412,3.389 -1.2271,4.679 -0.0881,0.09 -0.1869,0.181 -0.287,0.273 -0.456,0.418 -0.9381,0.861 -0.5533,1.373 1.04,1.391 0.3308,1.941 -0.4693,2.56 -0.2231,0.173 -0.4534,0.352 -0.6547,0.555 -0.1042,0.106 -0.2087,0.215 -0.3138,0.324 -0.9655,1.004 -1.9813,2.061 -3.3157,1.451 -1.3319,-0.609 -1.2938,-0.25 -1.2236,0.409 0.0179,0.168 0.0378,0.355 0.0378,0.551 -0.0011,0.269 0.0098,0.562 0.021,0.862 0.0417,1.119 0.0873,2.342 -0.4696,2.862 -1.923,1.811 -4.2276,3.261 -6.5116,4.638 -0.4759,0.287 -1.0145,0.511 -1.5491,0.733 -1.7643,0.735 -3.4839,1.451 -2.7558,4.333 0.0618,0.247 -0.2011,0.671 -0.4331,0.882 -2.1911,2.033 -0.6187,2.275 1.1394,2.44 1.4281,0.134 2.5314,0.356 1.8818,2.347 -0.4795,1.481 0.5671,2.729 1.9282,2.657 0.2389,-0.013 0.4792,-0.024 0.7203,-0.035 2.5848,-0.117 5.2556,-0.238 7.0854,-2.673 2.2169,-2.956 3.9286,-2.652 7.8984,-0.49 0.1775,0.096 0.3606,0.207 0.5468,0.321 1.1873,0.721 2.5002,1.519 3.289,-0.956 0.2887,-0.897 1.1755,-0.609 1.6344,0.021 1.1909,1.625 2.5314,0.99 3.8255,0.289 1.5982,-0.867 3.315,-1.347 5.068,-1.744 0.9847,-0.227 2.0571,0.17 1.923,1.063 -0.4124,2.775 1.0311,4.441 2.9439,5.984 0.1545,0.125 0.2135,0.355 0.2721,0.584 0.0979,0.381 0.1947,0.758 0.7332,0.639 0.66,-0.145 1.0827,-0.764 1.2786,-1.486 0.9538,-3.482 2.5573,-6.567 5.0371,-9.276 2.9233,-3.188 2.3871,-5.654 -1.325,-7.506 -0.4731,-0.237 -0.948,-0.472 -1.423,-0.708 -0.9073,-0.449 -1.8151,-0.898 -2.7118,-1.365 -1.0002,-0.522 -1.6808,-0.491 -1.5725,0.871 0.1326,1.668 -0.9143,1.677 -2.109,1.687 h -0.0409 c -1.9728,0.015 -1.9942,-1.101 -2.0177,-2.326 z"
         fill="#ff5b46"
         id="path9" /></g></g></svg>
