<svg width="30" height="30" viewBox="0 0 30 30" fill="none" xmlns="http://www.w3.org/2000/svg">
<path d="M30 15C30 23.2843 23.2843 30 15 30C6.71573 30 0 23.2843 0 15C0 6.71573 6.71573 0 15 0C23.2843 0 30 6.71573 30 15Z" fill="#247EF4"/>
<path d="M5.58203 18.718C7.1262 18.6347 7.63766 18.8183 8.85758 17.0128C9.50976 16.0478 10.0384 14.3059 10.4458 13.2053C11.6731 9.8951 14.3797 7.61484 17.5451 7.67559C21.3162 7.74765 22.5141 11.7967 22.7588 13.9781C22.4064 13.5486 21.8044 12.7814 20.8757 12.5639C19.6607 12.2799 18.3416 13.1671 18.0015 14.5898C17.7604 15.5957 18.0394 17.5256 19.5567 18.4213C21.2232 19.4061 23.2678 18.8325 24.489 17.2374" stroke="white" stroke-width="1.6" stroke-linecap="round" stroke-linejoin="round"/>
<path d="M21.8559 11.9085C20.7963 11.0086 19.3414 10.2697 17.971 10.3177C14.266 10.4491 12.5077 15.2159 13.1403 18.6024" stroke="white" stroke-width="1.6" stroke-linecap="round" stroke-linejoin="round"/>
</svg>
