<svg width="22" height="32" viewBox="0 0 22 32" fill="none" xmlns="http://www.w3.org/2000/svg">
<path d="M22 11.2676C22 16.4772 14.2908 27.4943 11.7801 30.9442C11.3903 31.4797 10.6097 31.4797 10.2199 30.9442C7.70918 27.4943 0 16.4772 0 11.2676C0 5.04468 4.92487 0 11 0C17.0751 0 22 5.04468 22 11.2676Z" fill="#247EF4"/>
<path d="M4 14.1901C5.14341 14.1283 5.52213 14.2645 6.42545 12.9254C6.90836 12.2098 7.29977 10.918 7.60148 10.1018C8.51023 7.64689 10.5144 5.95583 12.8583 6.00088C15.6507 6.05431 16.5377 9.05716 16.7189 10.6749C16.4579 10.3564 16.0122 9.78744 15.3245 9.62609C14.4248 9.41549 13.4481 10.0735 13.1962 11.1286C13.0177 11.8746 13.2243 13.3058 14.3478 13.97C15.5818 14.7003 17.0958 14.2749 18 13.092" stroke="white" stroke-width="0.818242" stroke-linecap="round" stroke-linejoin="round"/>
<path d="M16.0503 9.14003C15.2657 8.47261 14.1884 7.92464 13.1737 7.96026C10.4302 8.0577 9.12824 11.5928 9.59666 14.1043" stroke="white" stroke-width="0.818242" stroke-linecap="round" stroke-linejoin="round"/>
</svg>
