<svg width="11" height="17" viewBox="0 0 11 17" fill="363636" xmlns="http://www.w3.org/2000/svg">
<path d="M10.3914 8.4927C10.3914 8.65744 10.3598 8.8095 10.2964 8.9489C10.233 9.08829 10.138 9.22135 10.0113 9.34808L2.60748 16.5903C2.39839 16.8057 2.13861 16.9134 1.82814 16.9134C1.62538 16.9134 1.43847 16.8627 1.26739 16.7614C1.09631 16.6663 0.960088 16.5333 0.858709 16.3622C0.763667 16.1974 0.716146 16.0137 0.716146 15.8109C0.716146 15.5068 0.830197 15.2375 1.0583 15.0031L7.73025 8.4927L1.0583 1.98231C0.830197 1.74788 0.716146 1.48176 0.716146 1.18396C0.716146 0.974866 0.763667 0.78795 0.858709 0.623211C0.960088 0.458471 1.09631 0.32858 1.26739 0.233538C1.43847 0.13216 1.62538 0.0814705 1.82814 0.0814705C2.13861 0.0814705 2.39839 0.186017 2.60748 0.395109L10.0113 7.63732C10.138 7.76404 10.233 7.8971 10.2964 8.03649C10.3598 8.17589 10.3914 8.32796 10.3914 8.4927Z" fill="#363636"/>
</svg>
