<svg width="7" height="11" viewBox="0 0 7 11" fill="none" xmlns="http://www.w3.org/2000/svg">
<path d="M6.29087 5.75159C6.29087 5.85359 6.27125 5.94773 6.23203 6.03403C6.1928 6.12034 6.13396 6.20272 6.0555 6.28117L1.47169 10.7649C1.34224 10.8983 1.1814 10.965 0.989185 10.965C0.863655 10.965 0.747932 10.9336 0.642016 10.8709C0.5361 10.812 0.451759 10.7296 0.388994 10.6237C0.330152 10.5217 0.300731 10.408 0.300731 10.2824C0.300731 10.0941 0.371342 9.92743 0.512563 9.78228L4.64329 5.75159L0.512563 1.7209C0.371342 1.57576 0.300731 1.411 0.300731 1.22663C0.300731 1.09717 0.330152 0.981449 0.388994 0.879456C0.451759 0.777463 0.5361 0.697045 0.642016 0.638203C0.747932 0.575438 0.863655 0.544056 0.989185 0.544056C1.1814 0.544056 1.34224 0.608782 1.47169 0.738235L6.0555 5.22201C6.13396 5.30047 6.1928 5.38285 6.23203 5.46915C6.27125 5.55545 6.29087 5.6496 6.29087 5.75159Z" fill="#666666"/>
</svg>
