<svg width="61" height="61" viewBox="0 0 61 61" fill="none" xmlns="http://www.w3.org/2000/svg">
    <rect width="61" height="61" rx="10" fill="#E2E2E8"/>
    <g filter="url(#filter0_dd_0_1)">
        <path d="M37.2016 33.4155C36.4928 33.4202 35.7939 33.5816 35.155 33.8882C34.5162 34.1948 33.9533 34.6389 33.5068 35.1886L27.3887 32.3732C27.6764 31.4935 27.6764 30.5452 27.3887 29.6656L33.5068 26.8501C34.2285 27.7199 35.2346 28.3071 36.3476 28.508C37.4606 28.709 38.6089 28.5109 39.5899 27.9486C40.5709 27.3863 41.3215 26.4961 41.7091 25.4349C42.0968 24.3737 42.0967 23.2099 41.7089 22.1488C41.321 21.0877 40.5702 20.1976 39.5892 19.6355C38.6081 19.0734 37.4597 18.8754 36.3468 19.0766C35.2338 19.2778 34.2277 19.8652 33.5062 20.7351C32.7847 21.605 32.394 22.7014 32.4031 23.831C32.4067 24.1164 32.4348 24.401 32.4871 24.6816L26.1531 27.5929C25.4779 26.9335 24.6227 26.4877 23.6949 26.3115C22.7671 26.1353 21.8078 26.2364 20.9373 26.6023C20.0668 26.9681 19.3237 27.5824 18.8012 28.3681C18.2787 29.1539 18 30.0761 18 31.0194C18 31.9626 18.2787 32.8849 18.8012 33.6706C19.3237 34.4564 20.0668 35.0706 20.9373 35.4365C21.8078 35.8023 22.7671 35.9035 23.6949 35.7272C24.6227 35.551 25.4779 35.1053 26.1531 34.4458L32.4871 37.3571C32.4348 37.6377 32.4067 37.9223 32.4031 38.2077C32.4031 39.1556 32.6845 40.0821 33.2118 40.8702C33.7391 41.6583 34.4885 42.2725 35.3653 42.6352C36.2421 42.9979 37.2069 43.0928 38.1377 42.9079C39.0685 42.723 39.9235 42.2666 40.5946 41.5964C41.2656 40.9262 41.7226 40.0723 41.9078 39.1427C42.0929 38.2131 41.9979 37.2495 41.6347 36.3738C41.2716 35.4982 40.6565 34.7497 39.8674 34.2231C39.0783 33.6966 38.1506 33.4155 37.2016 33.4155ZM37.2016 21.4349C37.6761 21.4349 38.1399 21.5754 38.5345 21.8387C38.929 22.102 39.2366 22.4762 39.4181 22.914C39.5997 23.3519 39.6473 23.8337 39.5547 24.2985C39.4621 24.7633 39.2336 25.1902 38.8981 25.5253C38.5625 25.8604 38.135 26.0886 37.6696 26.1811C37.2042 26.2735 36.7218 26.2261 36.2834 26.0447C35.845 25.8634 35.4703 25.5563 35.2067 25.1622C34.943 24.7682 34.8023 24.3049 34.8023 23.831C34.8023 23.1955 35.0551 22.586 35.5051 22.1367C35.955 21.6873 36.5652 21.4349 37.2016 21.4349ZM22.8062 33.4155C22.3317 33.4155 21.8678 33.275 21.4733 33.0117C21.0788 32.7484 20.7712 32.3742 20.5896 31.9363C20.4081 31.4985 20.3605 31.0167 20.4531 30.5519C20.5457 30.0871 20.7742 29.6602 21.1097 29.3251C21.4453 28.99 21.8728 28.7617 22.3382 28.6693C22.8036 28.5768 23.286 28.6243 23.7244 28.8056C24.1628 28.987 24.5375 29.2941 24.8011 29.6882C25.0647 30.0822 25.2055 30.5455 25.2055 31.0194C25.2055 31.6549 24.9527 32.2643 24.5027 32.7137C24.0528 33.163 23.4425 33.4155 22.8062 33.4155ZM37.2016 40.6039C36.727 40.6039 36.2632 40.4633 35.8686 40.2001C35.4741 39.9368 35.1666 39.5625 34.985 39.1247C34.8034 38.6869 34.7559 38.2051 34.8484 37.7403C34.941 37.2755 35.1695 36.8485 35.5051 36.5134C35.8406 36.1783 36.2681 35.9501 36.7335 35.8577C37.1989 35.7652 37.6813 35.8127 38.1197 35.994C38.5581 36.1754 38.9328 36.4825 39.1964 36.8765C39.4601 37.2706 39.6008 37.7338 39.6008 38.2077C39.6008 38.8432 39.348 39.4527 38.8981 39.9021C38.4481 40.3514 37.8379 40.6039 37.2016 40.6039Z" fill="#414141"/>
    </g>
    <defs>
        <filter id="filter0_dd_0_1" x="14" y="19" width="32" height="32" filterUnits="userSpaceOnUse" color-interpolation-filters="sRGB">
            <feFlood flood-opacity="0" result="BackgroundImageFix"/>
            <feColorMatrix in="SourceAlpha" type="matrix" values="0 0 0 0 0 0 0 0 0 0 0 0 0 0 0 0 0 0 127 0" result="hardAlpha"/>
            <feOffset dy="4"/>
            <feGaussianBlur stdDeviation="2"/>
            <feComposite in2="hardAlpha" operator="out"/>
            <feColorMatrix type="matrix" values="0 0 0 0 0 0 0 0 0 0 0 0 0 0 0 0 0 0 0.25 0"/>
            <feBlend mode="normal" in2="BackgroundImageFix" result="effect1_dropShadow_0_1"/>
            <feColorMatrix in="SourceAlpha" type="matrix" values="0 0 0 0 0 0 0 0 0 0 0 0 0 0 0 0 0 0 127 0" result="hardAlpha"/>
            <feOffset dy="4"/>
            <feGaussianBlur stdDeviation="2"/>
            <feComposite in2="hardAlpha" operator="out"/>
            <feColorMatrix type="matrix" values="0 0 0 0 0 0 0 0 0 0 0 0 0 0 0 0 0 0 0.25 0"/>
            <feBlend mode="normal" in2="effect1_dropShadow_0_1" result="effect2_dropShadow_0_1"/>
            <feBlend mode="normal" in="SourceGraphic" in2="effect2_dropShadow_0_1" result="shape"/>
        </filter>
    </defs>
</svg>
