<svg width="32" height="32" viewBox="0 0 32 32" fill="none" xmlns="http://www.w3.org/2000/svg">
<g filter="url(#filter0_dd_238_16494)">
<path d="M23.2016 14.4155C22.4928 14.4202 21.7939 14.5816 21.155 14.8882C20.5162 15.1948 19.9533 15.6389 19.5068 16.1886L13.3887 13.3732C13.6764 12.4935 13.6764 11.5452 13.3887 10.6656L19.5068 7.85011C20.2285 8.71987 21.2346 9.30705 22.3476 9.50804C23.4606 9.70903 24.6089 9.5109 25.5899 8.94862C26.5709 8.38634 27.3215 7.49606 27.7091 6.43489C28.0968 5.37373 28.0967 4.2099 27.7089 3.14881C27.321 2.08771 26.5702 1.19756 25.5892 0.635463C24.6081 0.0733626 23.4597 -0.124557 22.3468 0.0766338C21.2338 0.277825 20.2277 0.865193 19.5062 1.73508C18.7847 2.60496 18.394 3.70144 18.4031 4.831C18.4067 5.11641 18.4348 5.401 18.4871 5.68162L12.1531 8.59291C11.4779 7.93347 10.6227 7.48772 9.69491 7.3115C8.76709 7.13528 7.80782 7.23643 6.9373 7.60227C6.06678 7.96812 5.32372 8.58239 4.80122 9.36813C4.27871 10.1539 4 11.0761 4 12.0194C4 12.9626 4.27871 13.8849 4.80122 14.6706C5.32372 15.4564 6.06678 16.0706 6.9373 16.4365C7.80782 16.8023 8.76709 16.9035 9.69491 16.7272C10.6227 16.551 11.4779 16.1053 12.1531 15.4458L18.4871 18.3571C18.4348 18.6377 18.4067 18.9223 18.4031 19.2077C18.4031 20.1556 18.6845 21.0821 19.2118 21.8702C19.7391 22.6583 20.4885 23.2725 21.3653 23.6352C22.2421 23.9979 23.2069 24.0928 24.1377 23.9079C25.0685 23.723 25.9235 23.2666 26.5946 22.5964C27.2656 21.9262 27.7226 21.0723 27.9078 20.1427C28.0929 19.2131 27.9979 18.2495 27.6347 17.3738C27.2716 16.4982 26.6565 15.7497 25.8674 15.2231C25.0783 14.6966 24.1506 14.4155 23.2016 14.4155ZM23.2016 2.43487C23.6761 2.43487 24.1399 2.5754 24.5345 2.83869C24.929 3.10198 25.2366 3.4762 25.4181 3.91404C25.5997 4.35187 25.6473 4.83365 25.5547 5.29846C25.4621 5.76326 25.2336 6.19021 24.8981 6.52531C24.5625 6.86042 24.135 7.08863 23.6696 7.18108C23.2042 7.27354 22.7218 7.22608 22.2834 7.04473C21.845 6.86337 21.4703 6.55625 21.2067 6.16221C20.943 5.76817 20.8023 5.30491 20.8023 4.831C20.8023 4.1955 21.0551 3.58604 21.5051 3.13668C21.955 2.68732 22.5652 2.43487 23.2016 2.43487ZM8.80624 14.4155C8.33171 14.4155 7.86785 14.275 7.4733 14.0117C7.07875 13.7484 6.77124 13.3742 6.58964 12.9363C6.40805 12.4985 6.36054 12.0167 6.45312 11.5519C6.54569 11.0871 6.77419 10.6602 7.10973 10.3251C7.44527 9.98995 7.87277 9.76174 8.33817 9.66929C8.80357 9.57683 9.28598 9.62428 9.72438 9.80564C10.1628 9.987 10.5375 10.2941 10.8011 10.6882C11.0647 11.0822 11.2055 11.5455 11.2055 12.0194C11.2055 12.6549 10.9527 13.2643 10.5027 13.7137C10.0528 14.163 9.44255 14.4155 8.80624 14.4155ZM23.2016 21.6039C22.727 21.6039 22.2632 21.4633 21.8686 21.2001C21.4741 20.9368 21.1666 20.5625 20.985 20.1247C20.8034 19.6869 20.7559 19.2051 20.8484 18.7403C20.941 18.2755 21.1695 17.8485 21.5051 17.5134C21.8406 17.1783 22.2681 16.9501 22.7335 16.8577C23.1989 16.7652 23.6813 16.8127 24.1197 16.994C24.5581 17.1754 24.9328 17.4825 25.1964 17.8765C25.4601 18.2706 25.6008 18.7338 25.6008 19.2077C25.6008 19.8432 25.348 20.4527 24.8981 20.9021C24.4481 21.3514 23.8379 21.6039 23.2016 21.6039Z" fill="#414141"/>
</g>
<defs>
<filter id="filter0_dd_238_16494" x="0" y="0" width="32" height="32" filterUnits="userSpaceOnUse" color-interpolation-filters="sRGB">
<feFlood flood-opacity="0" result="BackgroundImageFix"/>
<feColorMatrix in="SourceAlpha" type="matrix" values="0 0 0 0 0 0 0 0 0 0 0 0 0 0 0 0 0 0 127 0" result="hardAlpha"/>
<feOffset dy="4"/>
<feGaussianBlur stdDeviation="2"/>
<feComposite in2="hardAlpha" operator="out"/>
<feColorMatrix type="matrix" values="0 0 0 0 0 0 0 0 0 0 0 0 0 0 0 0 0 0 0.25 0"/>
<feBlend mode="normal" in2="BackgroundImageFix" result="effect1_dropShadow_238_16494"/>
<feColorMatrix in="SourceAlpha" type="matrix" values="0 0 0 0 0 0 0 0 0 0 0 0 0 0 0 0 0 0 127 0" result="hardAlpha"/>
<feOffset dy="4"/>
<feGaussianBlur stdDeviation="2"/>
<feComposite in2="hardAlpha" operator="out"/>
<feColorMatrix type="matrix" values="0 0 0 0 0 0 0 0 0 0 0 0 0 0 0 0 0 0 0.25 0"/>
<feBlend mode="normal" in2="effect1_dropShadow_238_16494" result="effect2_dropShadow_238_16494"/>
<feBlend mode="normal" in="SourceGraphic" in2="effect2_dropShadow_238_16494" result="shape"/>
</filter>
</defs>
</svg>
