<svg width="44" height="44" viewBox="0 0 44 44" fill="none" xmlns="http://www.w3.org/2000/svg">
<ellipse cx="22.2887" cy="21.8486" rx="21.7188" ry="21.7523" fill="#000000"/>
<g clip-path="url(#clip0_753_1521)">
<path d="M22.7941 10.2136C16.6658 10.2136 11.6821 15.205 11.6821 21.3427C11.6821 27.4804 16.6658 32.4718 22.7941 32.4718C28.9223 32.4718 33.906 27.4804 33.906 21.3427C33.906 15.205 28.9223 10.2136 22.7941 10.2136ZM22.7941 11.6048C23.1149 11.6048 23.4678 11.7675 23.8678 12.203C24.2706 12.637 24.6776 13.3298 25.0234 14.2187C25.3484 15.0492 25.611 16.055 25.8082 17.1693H19.78C19.9772 16.0564 20.2397 15.0492 20.5648 14.2187C20.9106 13.3312 21.319 12.637 21.7204 12.2016C22.1204 11.7689 22.4732 11.6048 22.7941 11.6048ZM20.155 11.9748C19.8216 12.4756 19.5272 13.0543 19.2702 13.7137C18.8483 14.831 18.543 15.9891 18.359 17.1693H14.0156C14.6096 15.9149 15.4648 14.8022 16.5237 13.9063C17.5827 13.0103 18.8208 12.3517 20.155 11.9748ZM25.4332 11.9748C26.7673 12.3517 28.0055 13.0103 29.0644 13.9063C30.1234 14.8022 30.9786 15.9149 31.5725 17.1693H27.2291C27.0452 15.9891 26.7399 14.831 26.318 13.7137C26.0858 13.1042 25.7892 12.5212 25.4332 11.9748ZM13.4781 18.5605H18.1923C18.0905 19.4844 18.0372 20.4131 18.0326 21.3427C18.0326 22.311 18.0993 23.2305 18.1923 24.125H13.4781C13.2088 23.2222 13.0717 22.285 13.0711 21.3427C13.0711 20.3745 13.217 19.4424 13.4781 18.5605ZM19.5925 18.5605H25.9957C26.0943 19.448 26.1666 20.3689 26.1666 21.3427C26.1666 22.3165 26.0943 23.2347 25.9957 24.125H19.5925C19.4938 23.2347 19.4216 22.3165 19.4216 21.3427C19.4216 20.3689 19.4938 19.448 19.5925 18.5605ZM27.3944 18.5605H32.1101C32.3712 19.4424 32.5171 20.3745 32.5171 21.3427C32.5171 22.311 32.3712 23.243 32.1101 24.125H27.3944C27.4889 23.2305 27.5556 22.311 27.5556 21.3427C27.5556 20.3745 27.4889 19.4536 27.3944 18.5605ZM14.0184 25.5161H18.359C18.5702 26.8043 18.8799 27.9757 19.2702 28.9745C19.5258 29.6325 19.8202 30.2085 20.1522 30.7079C18.8193 30.3306 17.5824 29.6721 16.5245 28.7766C15.4666 27.8812 14.6121 26.7695 14.0184 25.5161ZM19.7827 25.5161H25.8054C25.6096 26.6291 25.3471 27.6404 25.0234 28.4695C24.6776 29.3585 24.2692 30.0499 23.8678 30.4867C23.4678 30.9207 23.1149 31.0807 22.7941 31.0807C22.4732 31.0807 22.1204 30.9207 21.7204 30.4853C21.3176 30.0499 20.9106 29.3585 20.5648 28.4695C20.2411 27.6404 19.9786 26.6291 19.7827 25.5161ZM27.2291 25.5161H31.5698C30.9761 26.7695 30.1216 27.8812 29.0637 28.7766C28.0058 29.6721 26.7689 30.3306 25.436 30.7079C25.7679 30.2071 26.061 29.6325 26.318 28.9745C26.7069 27.9757 27.018 26.8043 27.2291 25.5161Z" fill="white"/>
</g>
<defs>
<clipPath id="clip0_753_1521">
<rect width="22.2239" height="22.2582" fill="white" transform="translate(11.6821 10.2136)"/>
</clipPath>
</defs>
</svg>
