<svg width="43" height="43" viewBox="0 0 43 43" fill="none" xmlns="http://www.w3.org/2000/svg">
<circle cx="21.5" cy="21.5" r="21.5" fill="#247EF4"/>
<path d="M29.375 17.16V14.0625C29.375 13.2503 29.0523 12.4713 28.478 11.897C27.9037 11.3227 27.1247 11 26.3125 11H14.0625C13.2503 11 12.4713 11.3227 11.897 11.897C11.3227 12.4713 11 13.2503 11 14.0625V28.9375C11 29.7497 11.3227 30.5287 11.897 31.103C12.4713 31.6773 13.2503 32 14.0625 32H28.9375C29.7497 32 30.5287 31.6773 31.103 31.103C31.6773 30.5287 32 29.7497 32 28.9375V20.1875C31.9991 19.4517 31.7334 18.7408 31.2514 18.1849C30.7693 17.6289 30.1033 17.2651 29.375 17.16ZM23.2019 30.25H14.0625C13.7144 30.25 13.3806 30.1117 13.1344 29.8656C12.8883 29.6194 12.75 29.2856 12.75 28.9375V14.0625C12.75 13.7144 12.8883 13.3806 13.1344 13.1344C13.3806 12.8883 13.7144 12.75 14.0625 12.75H26.3125C26.6606 12.75 26.9944 12.8883 27.2406 13.1344C27.4867 13.3806 27.625 13.7144 27.625 14.0625V30.25H23.2019ZM30.25 28.9375C30.2492 29.2083 30.1647 29.4722 30.0081 29.6931C29.8514 29.914 29.6303 30.081 29.375 30.1712V18.9538C29.6303 19.044 29.8514 19.211 30.0081 19.4319C30.1647 19.6528 30.2492 19.9167 30.25 20.1875V28.9375Z" fill="white"/>
<path d="M25.4375 20.7781H14.9375C14.7054 20.7781 14.4829 20.8703 14.3188 21.0344C14.1547 21.1985 14.0625 21.421 14.0625 21.6531C14.0625 21.8851 14.1547 22.1077 14.3188 22.2718C14.4829 22.4359 14.7054 22.5281 14.9375 22.5281H25.4375C25.6696 22.5281 25.8921 22.4359 26.0562 22.2718C26.2203 22.1077 26.3125 21.8851 26.3125 21.6531C26.3125 21.421 26.2203 21.1985 26.0562 21.0344C25.8921 20.8703 25.6696 20.7781 25.4375 20.7781ZM25.4375 24.0856H14.9375C14.7054 24.0856 14.4829 24.1778 14.3188 24.3419C14.1547 24.5059 14.0625 24.7285 14.0625 24.9606C14.0625 25.1926 14.1547 25.4152 14.3188 25.5793C14.4829 25.7434 14.7054 25.8356 14.9375 25.8356H25.4375C25.6696 25.8356 25.8921 25.7434 26.0562 25.5793C26.2203 25.4152 26.3125 25.1926 26.3125 24.9606C26.3125 24.7285 26.2203 24.5059 26.0562 24.3419C25.8921 24.1778 25.6696 24.0856 25.4375 24.0856ZM25.4375 17.4006H14.9375C14.7054 17.4006 14.4829 17.4928 14.3188 17.6569C14.1547 17.8209 14.0625 18.0435 14.0625 18.2756C14.0625 18.5076 14.1547 18.7302 14.3188 18.8943C14.4829 19.0584 14.7054 19.1506 14.9375 19.1506H25.4375C25.6696 19.1506 25.8921 19.0584 26.0562 18.8943C26.2203 18.7302 26.3125 18.5076 26.3125 18.2756C26.3125 18.0435 26.2203 17.8209 26.0562 17.6569C25.8921 17.4928 25.6696 17.4006 25.4375 17.4006Z" fill="white"/>
</svg>
