<svg width="43" height="43" viewBox="0 0 43 43" fill="none" xmlns="http://www.w3.org/2000/svg">
<circle cx="21.5" cy="21.5" r="21.5" fill="#247EF4"/>
<path d="M25.646 22.7155C26.6264 21.9442 27.342 20.8864 27.6933 19.6894C28.0445 18.4925 28.014 17.2158 27.6058 16.037C27.1977 14.8582 26.4323 13.8359 25.4161 13.1124C24.3999 12.3888 23.1835 12 21.936 12C20.6886 12 19.4721 12.3888 18.456 13.1124C17.4398 13.8359 16.6744 14.8582 16.2662 16.037C15.8581 17.2158 15.8275 18.4925 16.1788 19.6894C16.53 20.8864 17.2456 21.9442 18.226 22.7155C16.5461 23.3885 15.0803 24.5048 13.9849 25.9454C12.8895 27.386 12.2056 29.0968 12.006 30.8955C11.9916 31.0268 12.0031 31.1597 12.0401 31.2866C12.077 31.4134 12.1385 31.5317 12.2211 31.6348C12.3881 31.843 12.6308 31.9763 12.896 32.0055C13.1612 32.0347 13.4272 31.9573 13.6354 31.7904C13.8435 31.6235 13.9769 31.3807 14.006 31.1155C14.2256 29.1607 15.1577 27.3553 16.6243 26.0443C18.0908 24.7333 19.9889 24.0085 21.956 24.0085C23.9231 24.0085 25.8213 24.7333 27.2878 26.0443C28.7543 27.3553 29.6864 29.1607 29.906 31.1155C29.9332 31.3612 30.0505 31.5882 30.2351 31.7525C30.4198 31.9169 30.6588 32.007 30.906 32.0055H31.016C31.2782 31.9753 31.5178 31.8428 31.6826 31.6367C31.8474 31.4307 31.9241 31.1679 31.896 30.9055C31.6955 29.1017 31.0079 27.3865 29.9069 25.9437C28.8059 24.5009 27.3329 23.385 25.646 22.7155ZM21.936 22.0055C21.1449 22.0055 20.3715 21.7709 19.7138 21.3314C19.056 20.8918 18.5433 20.2671 18.2405 19.5362C17.9378 18.8053 17.8585 18.0011 18.0129 17.2251C18.1672 16.4492 18.5482 15.7365 19.1076 15.1771C19.667 14.6177 20.3797 14.2367 21.1557 14.0824C21.9316 13.928 22.7359 14.0072 23.4668 14.31C24.1977 14.6127 24.8224 15.1254 25.2619 15.7832C25.7014 16.441 25.936 17.2144 25.936 18.0055C25.936 19.0664 25.5146 20.0838 24.7645 20.8339C24.0143 21.5841 22.9969 22.0055 21.936 22.0055Z" fill="white"/>
</svg>
